<svg width="36" height="36" viewBox="0 0 36 36" fill="none" xmlns="http://www.w3.org/2000/svg">
<path d="M23.7973 18.5806C23.8081 17.7459 24.0298 16.9276 24.4418 16.2016C24.8538 15.4757 25.4428 14.8657 26.1539 14.4285C25.7021 13.7834 25.1062 13.2524 24.4134 12.8779C23.7205 12.5033 22.9499 12.2955 22.1627 12.2709C20.4835 12.0946 18.8555 13.2757 17.9998 13.2757C17.1275 13.2757 15.81 12.2884 14.3913 12.3176C13.4736 12.3472 12.5793 12.6141 11.7954 13.0921C11.0115 13.5702 10.3649 14.2431 9.91839 15.0454C7.98439 18.3938 9.42698 23.3149 11.2796 26.0215C12.2065 27.3469 13.2898 28.8273 14.7072 28.7748C16.0943 28.7173 16.6123 27.8903 18.2866 27.8903C19.9454 27.8903 20.4314 28.7748 21.8776 28.7414C23.366 28.7173 24.3038 27.4102 25.1981 26.0723C25.8641 25.1279 26.3766 24.0842 26.7166 22.9798C25.8518 22.614 25.1139 22.0019 24.5948 21.2196C24.0757 20.4373 23.7983 19.5195 23.7973 18.5806V18.5806Z" fill="white"/>
<path d="M21.0657 10.4906C21.8772 9.51641 22.277 8.26423 22.1802 7C20.9404 7.13022 19.7951 7.72278 18.9726 8.65961C18.5705 9.11728 18.2625 9.64971 18.0663 10.2265C17.87 10.8033 17.7894 11.413 17.8289 12.021C18.4491 12.0274 19.0626 11.893 19.6232 11.6279C20.1839 11.3628 20.6771 10.9739 21.0657 10.4906Z" fill="white"/>
</svg>
