<svg width="24" height="24" viewBox="0 0 24 24" fill="none" xmlns="http://www.w3.org/2000/svg">
<path d="M11.9599 7.38461C12.8175 7.38461 13.8926 6.80483 14.5327 6.03179C15.1125 5.33121 15.5353 4.35283 15.5353 3.37444C15.5353 3.24158 15.5232 3.10871 15.499 3C14.5448 3.03624 13.3973 3.64018 12.7088 4.44946C12.1653 5.06548 11.6701 6.03179 11.6701 7.02225C11.6701 7.1672 11.6942 7.31214 11.7063 7.36046C11.7667 7.37254 11.8633 7.38461 11.9599 7.38461ZM8.94024 22C10.1119 22 10.6313 21.2149 12.0928 21.2149C13.5785 21.2149 13.9046 21.9758 15.2092 21.9758C16.4895 21.9758 17.3471 20.7921 18.1564 19.6325C19.0623 18.3039 19.4367 16.9994 19.4609 16.939C19.3764 16.9148 16.9243 15.9123 16.9243 13.0979C16.9243 10.658 18.857 9.5588 18.9657 9.47425C17.6853 7.63827 15.7406 7.58996 15.2092 7.58996C13.7718 7.58996 12.6001 8.45963 11.8633 8.45963C11.0661 8.45963 10.0153 7.63827 8.77114 7.63827C6.40369 7.63827 4 9.59504 4 13.2912C4 15.5861 4.89383 18.014 5.99301 19.5842C6.93516 20.9129 7.75652 22 8.94024 22Z" fill="#0F0F0F"/>
</svg>
