<svg width="31" height="44" viewBox="0 0 31 44" fill="none" xmlns="http://www.w3.org/2000/svg">
<g clip-path="url(#clip0_114_455)">
<rect width="31" height="44" fill="white"/>
<path d="M31 0H0V44H31V0Z" fill="white"/>
<path d="M15.7099 14.8846C16.5675 14.8846 17.6426 14.3048 18.2827 13.5318C18.8625 12.8312 19.2853 11.8528 19.2853 10.8744C19.2853 10.7416 19.2732 10.6087 19.249 10.5C18.2948 10.5362 17.1473 11.1402 16.4588 11.9495C15.9153 12.5655 15.4201 13.5318 15.4201 14.5223C15.4201 14.6672 15.4442 14.8121 15.4563 14.8605C15.5167 14.8725 15.6133 14.8846 15.7099 14.8846ZM12.6902 29.5C13.8619 29.5 14.3813 28.7149 15.8428 28.7149C17.3285 28.7149 17.6546 29.4758 18.9592 29.4758C20.2395 29.4758 21.0971 28.2921 21.9064 27.1325C22.8123 25.8039 23.1867 24.4994 23.2109 24.439C23.1264 24.4148 20.6743 23.4123 20.6743 20.5979C20.6743 18.158 22.607 17.0588 22.7157 16.9743C21.4353 15.1383 19.4906 15.09 18.9592 15.09C17.5218 15.09 16.3501 15.9596 15.6133 15.9596C14.8161 15.9596 13.7653 15.1383 12.5211 15.1383C10.1537 15.1383 7.75 17.095 7.75 20.7912C7.75 23.0861 8.64383 25.514 9.74301 27.0842C10.6852 28.4129 11.5065 29.5 12.6902 29.5Z" fill="#0F0F0F"/>
</g>
<defs>
<clipPath id="clip0_114_455">
<rect width="31" height="44" fill="white"/>
</clipPath>
</defs>
</svg>
