<svg width="1300" height="1300" viewBox="0 0 1300 1300" fill="none" xmlns="http://www.w3.org/2000/svg">
<mask id="mask0_610_1273" style="mask-type:alpha" maskUnits="userSpaceOnUse" x="0" y="0" width="1296" height="1296">
<circle cx="647.869" cy="647.869" r="647.869" fill="#D9D9D9"/>
</mask>
<g mask="url(#mask0_610_1273)">
<path d="M1003.04 1182.75C1000.07 1184.87 996.669 1186.99 993.695 1189.12C990.296 1191.24 987.322 1193.37 983.923 1195.07C980.95 1196.76 978.401 1198.46 975.427 1200.16C975.002 1200.59 974.577 1200.59 974.152 1201.01C964.381 1206.96 954.185 1212.48 943.989 1217.58C941.015 1219.28 937.616 1220.98 934.642 1222.26C934.642 1222.26 934.218 1222.68 933.793 1222.68C930.394 1224.38 926.995 1226.08 923.597 1227.78C916.799 1231.18 909.577 1234.15 902.78 1237.12C899.381 1238.82 895.557 1240.1 892.159 1241.37C888.76 1242.65 884.937 1244.35 881.538 1245.62C878.139 1246.9 874.316 1248.59 870.917 1249.87C870.917 1249.87 870.917 1249.87 870.492 1249.87C867.093 1251.14 863.27 1252.42 859.871 1253.69C852.224 1256.24 844.152 1258.79 836.505 1261.34C833.956 1262.19 830.982 1263.04 828.433 1263.89C820.361 1266.44 812.29 1268.56 804.218 1270.26C801.244 1271.11 798.27 1271.54 794.871 1272.39C787.224 1274.09 779.152 1275.78 771.505 1277.48C769.806 1277.91 768.531 1277.91 766.832 1278.33C764.283 1278.76 761.309 1279.18 758.76 1279.61C754.937 1280.03 751.538 1280.88 747.714 1281.31C746.015 1281.73 744.316 1281.73 742.616 1282.16C740.492 1282.58 737.943 1283.01 735.394 1283.01C728.597 1283.86 721.374 1284.71 714.577 1285.56C712.453 1285.98 709.904 1285.98 707.78 1286.41H707.355C704.381 1286.83 701.407 1286.83 698.433 1287.25C695.459 1287.68 692.486 1287.68 689.512 1287.68C687.812 1287.68 685.688 1288.1 683.989 1288.1C680.59 1288.1 677.616 1288.53 674.642 1288.53C670.394 1288.53 666.571 1288.95 662.322 1288.95C658.074 1288.95 654.25 1288.95 650.002 1288.95C647.028 1288.95 644.054 1288.95 641.08 1288.95C461.799 1286.41 300.786 1210.36 185.656 1089.71C185.656 1089.71 185.656 1089.28 185.231 1089.28C172.486 1077.81 183.531 1016.63 234.937 977.974C299.512 929.118 454.152 898.53 454.152 898.53C454.152 898.53 514.054 888.758 736.244 935.066C866.244 962.255 965.231 1001.76 1020.46 1108.82C1031.93 1130.92 1043.4 1164.9 1003.04 1182.75Z" fill="white"/>
<path d="M737.518 930.392C819.087 946.961 906.178 964.804 973.302 1018.76C995.819 1037.03 1010.69 1063.79 1023.01 1089.71C1028.96 1102.45 1034.9 1115.62 1039.58 1129.64C1042.13 1138.99 1045.95 1149.61 1043.83 1160.65C1043.4 1163.63 1040.85 1167.45 1038.73 1169.58C1028.96 1179.35 1018.34 1185.29 1007.71 1192.94C945.263 1236.27 873.466 1266.86 799.119 1283.01C633.433 1319.12 454.152 1291.08 308.433 1203.99C260.002 1174.67 215.394 1138.99 177.159 1096.93C172.91 1091.83 172.91 1083.33 172.91 1077.81C173.335 1065.07 176.734 1052.75 180.982 1041.27C191.178 1014.93 204.348 988.595 226.864 970.327C243.008 959.281 260.427 949.935 278.27 942.288C334.348 918.497 393.4 901.928 454.152 895.131C459.25 894.706 460.1 901.928 455.002 902.778C396.799 914.673 339.021 932.516 285.067 956.732C265.525 966.503 244.708 975 228.989 990.294C214.119 1006.44 203.498 1026.41 195.002 1046.8C189.479 1059.12 185.655 1078.66 187.355 1088.43C214.119 1120.29 245.557 1148.33 279.544 1172.55C465.623 1302.55 748.139 1311.05 946.113 1202.71C963.956 1192.94 981.374 1181.9 997.943 1170.42C1006.01 1164.9 1014.51 1160.23 1020.88 1153.86C1021.31 1153.43 1020.88 1153.86 1020.88 1154.28C1020.88 1154.71 1020.46 1155.13 1020.46 1155.13C1020.88 1150.03 1019.18 1143.24 1017.06 1136.44C1009.41 1111.8 997.093 1085.88 983.923 1063.37C963.106 1029.8 927.845 1008.56 892.159 991.569C867.518 980.098 841.603 971.177 815.263 962.68C788.923 954.183 762.159 946.961 735.394 940.588C728.597 938.889 730.721 929.118 737.518 930.392Z" fill="black"/>
<path d="M390.426 822.909C390.426 822.909 429.936 813.562 446.504 812.288L451.602 858.595C451.602 858.17 390.851 834.804 390.426 822.909Z" fill="black"/>
<path d="M1062.94 1446.14H69.6738C69.6738 1446.14 132.974 1310.62 155.066 1157.68C170.36 1051.05 188.628 993.693 245.131 959.706C308.857 921.47 411.667 904.052 453.301 893.006C453.301 895.131 453.726 896.83 453.726 898.954C453.726 898.954 499.608 1035.33 618.988 1083.76C716.275 1123.27 774.053 1096.93 782.974 1053.17C788.497 1025.13 771.079 979.248 762.157 964.379C757.059 960.131 753.661 953.758 751.961 947.385L748.563 933.366C759.184 931.242 769.38 928.268 779.151 924.444C833.955 938.889 939.739 966.503 1004.31 1048.5C1020.46 1068.89 1071.01 1177.22 1061.67 1360.33C1058.27 1455.49 1062.94 1446.14 1062.94 1446.14Z" fill="black"/>
<path d="M279.967 1446.14L260.85 1288.53" stroke="white" stroke-width="3" stroke-miterlimit="10" stroke-linecap="round" stroke-linejoin="round"/>
<path d="M1022.16 1235C1022.16 1235 1009.41 1266.01 1013.24 1297.03C1017.06 1328.04 1028.11 1373.5 1012.39 1446.14" stroke="white" stroke-width="3" stroke-miterlimit="10" stroke-linecap="round" stroke-linejoin="round"/>
<path d="M587.124 1162.78C352.189 1094.8 293.137 956.733 293.137 956.733C293.137 956.733 330.098 933.792 347.516 910.001C358.137 895.556 453.725 878.988 453.725 878.988C455.424 897.256 453.725 878.988 454.999 898.955C454.999 898.955 500.882 1035.33 620.261 1083.76C717.548 1123.27 775.326 1096.93 784.248 1053.17C789.771 1025.13 772.352 979.249 763.431 964.38C758.333 960.132 754.934 953.759 753.235 947.387L749.836 933.367C774.052 928.269 796.993 918.922 816.96 906.602C817.81 907.877 818.235 909.151 818.66 910.426C827.581 932.092 854.771 951.635 854.771 951.635C911.274 1085.88 826.307 1232.03 587.124 1162.78Z" fill="black"/>
<path d="M871.766 945.686C871.766 945.686 891.308 936.34 910.851 938.464C930.393 940.588 1023.43 1015.78 1032.35 1031.5C1041.7 1047.22 1041.28 1097.35 1030.23 1103.73C1019.18 1110.1 1012.81 1096.08 1012.81 1096.08C1012.81 1096.08 1020.88 1050.2 1011.96 1041.7C1003.04 1033.2 916.798 960.98 913.824 960.556C910.851 960.131 894.707 973.725 894.707 973.725L871.766 945.686Z" fill="black"/>
<path d="M356.863 919.771C356.863 919.771 312.68 897.255 296.111 897.255C279.542 897.255 183.105 956.732 169.935 987.745C156.765 1018.76 174.608 1081.21 174.608 1081.21L197.974 1054.44C197.974 1054.44 191.601 1007.71 198.399 990.719C205.196 973.725 282.091 923.595 288.889 924.869C295.686 925.719 333.497 949.935 333.497 949.935L356.863 919.771Z" fill="black"/>
<path d="M457.125 1001.76C497.909 1079.93 579.478 1184.02 715.85 1232.88C838.628 1277.06 830.981 1128.79 813.138 1040C690.785 1066.76 568.007 1068.89 457.125 1001.76Z" fill="white"/>
<path d="M813.137 1040.42C808.464 1017.06 802.941 997.941 799.117 987.32C790.621 964.379 777.876 943.987 766.405 928.693C760.882 930.392 755.359 931.666 749.836 932.941L753.235 946.96C754.934 953.758 758.333 959.706 763.431 963.954C764.281 965.653 765.555 967.777 766.83 970.326C670.392 1007.71 556.536 958.431 556.536 958.431C522.124 956.732 524.673 990.719 540.817 1031.08C479.64 972.876 454.575 898.954 454.575 898.954C453.725 886.209 452.876 873.889 451.601 861.568C451.601 861.568 420.163 878.987 425.686 918.072C428.235 934.64 438.006 965.653 457.124 1001.76C568.006 1068.89 690.784 1066.76 813.137 1040.42Z" fill="white"/>
<path d="M811.437 1039.15C810.163 1037.03 809.738 1035.75 808.888 1033.2C803.79 1016.63 798.267 999.215 790.62 983.921C781.699 966.078 770.228 949.934 757.483 935.065L769.378 938.889L751.96 943.562L760.457 930.392C761.306 934.215 763.43 943.137 764.28 946.536C765.555 951.634 769.378 955.032 772.352 958.856C771.927 962.255 771.502 965.653 770.653 968.627C771.502 971.176 770.653 974.15 768.104 975.424C755.783 981.372 742.189 986.045 728.594 989.019C678.463 999.215 627.483 987.745 579.476 973.725C570.13 970.751 561.633 968.627 551.437 969.477L555.261 970.326C552.712 970.326 549.738 970.326 547.189 971.176C534.444 975 540.391 997.091 542.94 1007.71C545.065 1014.51 547.189 1021.31 550.163 1028.1C552.712 1033.63 549.738 1040 544.215 1042.55C539.966 1044.25 535.718 1042.97 532.744 1040C522.973 1030.23 513.627 1020.46 505.13 1009.84C479.215 977.549 458.823 942.287 443.953 903.627L454.149 910.849C448.202 910.849 443.529 906.176 443.104 900.653L440.13 863.692L456.274 872.189C437.156 883.66 431.633 907.451 438.006 927.843C444.378 951.634 454.574 975.424 466.045 997.516L461.797 993.268C565.032 1062.52 693.757 1068.04 811.437 1039.15ZM814.836 1041.27C800.816 1051.47 776.6 1059.97 758.757 1063.79C716.699 1073.14 672.515 1067.61 630.457 1060.82C617.287 1058.69 598.169 1056.14 584.574 1054.02L562.058 1049.35C531.895 1042.12 502.156 1032.35 473.267 1020.46L462.646 1015.78L451.6 1011.11C450.326 1010.69 449.051 1009.41 448.202 1008.14C434.182 980.947 421.437 952.483 415.489 921.895C409.966 895.13 422.712 865.817 446.502 851.797C453.3 847.973 462.221 852.647 462.646 860.294L465.62 897.679C465.62 897.679 454.574 887.483 454.999 887.483C459.672 887.483 463.921 890.457 465.195 894.706C478.365 930.392 498.332 964.804 522.548 994.542C530.62 1004.74 539.542 1013.66 548.463 1023.01L531.045 1034.9C522.548 1011.96 511.078 982.647 526.372 959.705C533.594 950.359 545.914 946.96 557.385 947.385L561.208 948.235C567.156 955.882 575.653 959.281 583.725 961.83C625.359 975.424 670.391 977.973 714.149 974.575C731.568 972.875 748.561 969.477 765.555 965.228L763.006 972.026C760.032 970.751 757.483 969.902 754.509 969.477L756.633 972.026C748.561 965.228 743.463 953.758 741.764 943.562L739.64 935.065C738.365 929.117 742.189 923.17 748.136 921.895L763.855 918.072H764.705C768.953 916.797 773.627 918.921 775.751 922.32C792.744 948.66 805.489 978.398 811.012 1009.41C812.712 1016.63 813.561 1024.71 814.836 1032.35C814.411 1034.9 814.836 1038.73 814.836 1041.27Z" fill="black"/>
<path d="M390.426 822.909C390.426 822.909 495.36 826.307 575.23 847.549C582.877 849.673 582.877 898.954 583.726 907.026C586.7 935.915 526.373 985.196 533.171 1011.11C542.092 1044.67 782.975 1233.3 785.099 1255.39C787.223 1277.48 610.491 1271.96 505.556 1146.21C400.197 1020.46 408.269 997.517 408.269 997.517C408.269 997.517 390.426 876.863 390.426 822.909Z" fill="black"/>
<path d="M861.57 868.366L888.759 879.837C897.256 883.236 901.504 893.007 898.531 901.928C886.21 939.314 855.622 1032.35 854.348 1064.64C852.648 1105.43 768.531 1367.55 768.531 1367.55C768.531 1367.55 717.125 1300 754.936 1233.3C784.674 1180.62 786.374 1068.04 783.4 1053.17C779.576 1033.63 763.433 987.745 754.511 958.856C749.838 943.137 748.988 933.366 748.988 933.366C748.988 933.366 807.616 923.595 861.57 868.366Z" fill="black"/>
<path d="M545.488 938.039C552.293 938.039 557.809 931.762 557.809 924.02C557.809 916.277 552.293 910 545.488 910C538.684 910 533.168 916.277 533.168 924.02C533.168 931.762 538.684 938.039 545.488 938.039Z" fill="white"/>
<path d="M764.282 1220.98C760.883 1243.92 757.485 1267.29 759.184 1290.65C764.707 1325.07 766.831 1359.48 769.805 1393.89C770.23 1402.39 757.909 1403.24 757.06 1394.74C755.785 1360.33 754.936 1325.49 750.687 1291.08C749.838 1266.86 754.086 1243.07 758.759 1219.71C759.609 1216.73 764.707 1217.58 764.282 1220.98Z" fill="white"/>
<path d="M881.96 965.228C874.313 1003.04 865.816 1041.27 851.797 1077.38C830.555 1122.42 801.666 1163.2 777.025 1205.69C774.901 1209.51 768.954 1206.53 770.653 1202.71C791.045 1154.7 820.784 1111.8 840.751 1064.21C842.45 1059.12 851.797 1031.08 853.496 1025.55C860.293 1004.74 867.516 983.921 875.588 963.528C877.287 959.705 882.81 960.979 881.96 965.228Z" fill="black"/>
<path d="M823.332 1214.61C831.075 1214.61 837.352 1208.33 837.352 1200.59C837.352 1192.85 831.075 1186.57 823.332 1186.57C815.589 1186.57 809.312 1192.85 809.312 1200.59C809.312 1208.33 815.589 1214.61 823.332 1214.61Z" fill="white"/>
<path d="M777.447 1043.4C768.525 1087.16 710.748 1113.5 613.46 1073.99C512.349 1033.2 468.591 935.915 457.545 907.027C517.447 794.87 475.813 717.125 475.813 717.125C613.885 705.229 734.538 866.667 734.538 866.667L753.231 946.536C754.931 953.334 758.329 959.281 763.427 963.53C772.349 979.249 782.97 1015.36 777.447 1043.4Z" fill="white"/>
<path d="M455.423 908.301C463.495 895.981 468.593 881.536 471.992 867.517C478.364 838.203 480.489 808.465 480.913 778.726V767.68C479.639 756.634 475.815 745.164 471.567 734.968C466.044 721.373 486.011 712.876 492.384 726.471C493.234 728.17 493.234 731.144 493.234 732.844C494.508 790.621 497.057 864.968 460.521 912.974C457.972 915.523 452.874 911.7 455.423 908.301Z" fill="black"/>
<path d="M739.212 865.818C745.585 869.641 747.709 874.739 748.559 879.837C751.108 890.033 750.258 901.079 752.807 911.7C754.931 921.896 761.304 931.667 763.003 942.288C765.128 953.334 771.5 976.7 774.049 988.171C774.899 990.72 773.199 993.693 770.226 994.118C768.526 994.543 767.252 994.118 765.977 993.269C760.454 988.595 757.905 983.922 754.507 977.974C748.984 967.778 745.16 958.432 741.762 946.961C738.788 936.765 740.062 925.72 737.513 915.099C735.389 904.903 729.441 895.131 727.317 884.51C726.043 879.412 725.618 873.89 729.441 867.517C731.99 864.968 736.239 864.118 739.212 865.818Z" fill="black"/>
<path d="M769.802 977.974C688.658 973.726 622.384 948.236 557.809 833.105C612.188 881.112 676.338 899.379 743.887 907.876L752.809 946.961C754.508 953.759 764.704 973.726 769.802 977.974Z" fill="black"/>
<path d="M766.404 962.255C780.849 989.445 789.346 1023.43 780.424 1053.6C773.627 1074.84 754.084 1090.56 732.842 1096.5C683.561 1109.67 626.633 1088.86 582.875 1065.49C528.921 1035.33 488.986 984.772 463.496 929.543C461.797 925.295 467.744 921.896 470.293 926.144C479.215 943.987 489.411 961.406 500.882 977.125C512.352 993.268 525.522 1008.14 540.391 1021.31C583.725 1060.39 642.352 1084.61 700.98 1084.61C761.306 1082.91 784.248 1051.05 770.228 992.419C768.104 983.072 764.705 973.301 760.032 965.229C757.483 961.83 763.855 958.007 766.404 962.255Z" fill="black"/>
<path d="M930.815 452.027C938.462 487.713 942.285 516.602 921.468 611.765C901.076 706.504 950.782 726.046 833.102 877.713C785.096 939.739 668.691 922.321 574.377 858.17C542.514 836.504 528.919 780.85 505.128 741.34C486.436 710.327 477.939 742.615 453.298 715.85C419.736 679.314 379.377 605.818 399.344 475.818C431.632 265.099 598.592 240.458 722.22 263.824C846.697 287.615 910.423 358.138 930.815 452.027Z" fill="white"/>
<path d="M474.541 753.66C464.77 737.092 452.024 722.647 440.129 707.353C428.658 691.634 419.312 674.216 411.665 656.373C361.109 532.321 380.652 357.713 504.704 284.641C556.109 254.902 618.136 247.68 675.913 252.353C799.541 261.275 912.972 318.203 939.737 449.053C954.181 506.83 934.639 566.308 923.593 622.811C918.495 650.85 922.743 679.739 922.319 708.628C921.894 737.942 913.822 767.255 902.776 794.445C895.979 813.138 884.083 829.706 871.763 845C851.371 869.641 830.979 894.706 805.064 913.824C799.116 918.072 788.495 920.196 781.273 921.046C761.306 924.02 741.763 924.87 721.796 923.595C643.626 920.196 559.933 882.386 528.495 806.765C527.221 803.791 531.469 801.667 533.168 804.216C573.953 868.791 648.724 900.654 723.07 904.902C746.011 906.177 769.377 905.752 791.894 901.079C802.939 895.556 812.711 885.785 822.057 876.863C844.998 853.922 868.364 829.281 884.933 801.242C904.9 763.432 915.946 722.223 912.547 679.314C911.698 660.196 911.273 640.229 915.096 621.111C918.495 601.994 922.743 583.726 925.292 564.183C927.841 545.491 929.116 526.373 929.116 507.68C926.992 452.876 909.149 396.373 874.312 353.889C797.417 258.301 615.587 233.236 513.201 298.661C448.626 338.595 418.462 413.366 408.691 486.013C393.822 573.105 398.07 658.922 467.319 722.223L487.711 743.464C495.783 752.811 481.338 763.857 474.541 753.66Z" fill="black"/>
<path d="M524.67 618.562C524.67 618.562 511.5 554.837 449.474 562.484C395.944 569.281 377.252 697.582 498.755 733.268" fill="white"/>
<path d="M493.234 677.615C483.463 672.092 476.666 662.746 476.241 651.275C476.666 642.778 477.94 633.007 475.816 624.51C474.541 616.438 466.045 614.314 459.672 614.739C452.875 616.014 448.626 624.51 447.352 631.308C447.352 631.733 446.927 633.007 446.927 633.432C446.502 635.556 443.103 635.556 442.254 633.432C436.731 616.863 449.051 598.595 466.894 600.72C491.96 602.419 495.358 628.759 490.685 648.726C488.136 657.223 491.535 664.87 496.208 672.092L497.058 673.367C499.182 675.916 495.783 679.314 493.234 677.615Z" fill="black"/>
<path d="M833.102 573.53C839.474 603.693 851.369 631.732 866.239 658.072C879.409 690.36 845.422 720.948 815.258 719.673C811.86 719.673 811.435 715 814.409 714.151C833.526 708.203 850.945 695.458 853.918 675.915C855.193 669.968 853.494 664.87 850.52 659.772C836.5 633.432 828.003 603.268 830.128 573.53C830.128 571.405 833.102 571.405 833.102 573.53Z" fill="black"/>
<path d="M522.547 618.988C512.776 593.922 491.534 570.131 463.07 570.556C460.521 570.131 456.272 570.981 453.723 570.981C446.501 571.406 440.553 573.955 435.03 579.053C407.841 606.242 412.514 654.249 434.606 684.412C442.253 695.033 452.024 704.38 463.07 712.027C474.115 719.674 486.436 725.622 499.606 730.72C502.579 731.569 501.305 736.242 498.331 735.818C469.867 729.87 442.677 715.85 423.985 692.484C395.096 657.648 389.148 599.445 423.56 565.458C431.207 558.661 441.828 553.563 452.449 553.563C455.847 553.563 460.945 552.713 464.344 553.563C482.187 554.412 499.181 563.334 510.226 577.354C519.998 589.249 525.521 603.693 527.22 618.138C527.22 620.687 523.396 621.537 522.547 618.988Z" fill="black"/>
<path d="M800.818 761.733C787.648 772.353 769.38 772.778 753.661 768.955C748.563 767.68 742.616 766.831 739.642 761.308C736.668 756.634 739.642 750.687 745.165 749.837C750.687 748.563 754.086 751.112 758.759 752.386C771.08 756.634 784.674 759.183 797.42 754.935C800.818 754.085 804.217 759.183 800.818 761.733Z" fill="black"/>
<path d="M754.085 734.543C763.007 750.262 750.262 768.955 734.968 774.902C731.569 776.602 715.425 780 715.85 773.628C715.85 772.778 716.7 771.928 717.549 771.504C732.843 764.706 743.889 750.687 746.438 734.543C746.863 731.144 751.536 730.294 753.236 733.268L754.085 734.543Z" fill="black"/>
<path d="M674.642 616.863C664.446 616.438 656.799 607.941 657.648 597.745L658.073 585.85C658.498 575.654 666.995 568.007 677.191 568.856C687.387 569.281 695.034 577.778 694.184 587.974L693.76 599.87C693.335 609.641 684.838 617.288 674.642 616.863Z" fill="black"/>
<path d="M853.496 623.236C844.149 622.811 836.927 614.739 837.352 605.393L837.777 594.347C838.201 585.001 846.273 577.779 855.62 578.203C864.966 578.628 872.188 586.7 871.763 596.046L871.339 607.092C870.914 616.439 862.842 623.661 853.496 623.236Z" fill="black"/>
<path d="M712.877 593.922C698.857 584.576 683.563 578.203 666.57 581.602C661.047 582.451 655.524 584.151 652.125 587.974C650.851 589.674 647.877 589.249 647.877 586.7C648.302 578.203 655.524 572.68 662.321 569.281C675.491 562.484 693.759 563.759 705.655 572.68C709.903 575.229 724.348 590.948 716.7 594.347C715.001 595.196 714.151 594.772 712.877 593.922Z" fill="black"/>
<path d="M834.379 596.046C834.379 578.203 856.47 571.83 870.065 578.203C877.712 581.602 883.235 588.399 885.359 596.471C886.209 599.02 882.386 601.144 880.686 599.02C873.464 590.523 861.144 586.275 851.372 591.373C848.399 593.072 847.974 594.347 847.124 596.046C847.124 604.543 834.804 604.118 834.379 596.046Z" fill="black"/>
<path d="M733.269 523.824C742.19 526.798 751.112 518.726 749.412 508.955C748.563 503.857 746.438 498.759 742.19 494.935C729.445 483.464 676.765 473.268 644.902 488.138C616.863 501.732 692.484 510.229 733.269 523.824Z" fill="black"/>
<path d="M860.295 530.621C853.073 533.17 845.426 525.523 846.701 516.602C847.126 511.928 848.825 507.255 852.224 503.857C862.42 493.66 897.256 485.589 919.348 501.308C938.465 514.477 893.433 518.301 860.295 530.621Z" fill="black"/>
<path d="M881.113 327.974C859.446 308.007 832.257 288.464 799.12 275.294C700.982 235.36 609.643 236.634 537.845 267.647C535.721 226.013 524.675 162.288 475.819 151.667C401.897 135.098 427.388 215.817 450.329 266.373C450.329 266.373 361.963 187.353 323.303 240.882C286.342 292.288 378.956 348.366 378.956 348.366C378.956 348.366 241.734 359.412 270.623 437.582C287.616 482.614 344.545 467.745 390.002 447.353C353.041 593.922 417.192 693.758 450.329 733.693C484.316 774.477 487.29 805.49 487.29 805.49C504.708 795.719 483.891 751.961 484.741 729.02C378.531 688.235 397.649 569.706 449.479 562.909C503.858 556.111 520.852 604.543 523.826 616.438C543.368 593.072 543.368 570.556 539.544 547.19C524.675 461.797 533.172 415.49 584.577 404.445C666.571 386.601 740.492 428.235 838.205 441.405C874.316 446.503 896.832 413.366 923.597 425.262C926.571 434.183 929.12 443.105 931.244 452.451C932.943 459.673 934.218 466.471 935.067 473.693C939.316 414.216 926.995 370.458 881.113 327.974Z" fill="black"/>
</g>
</svg>
