<svg width="1300" height="1300" viewBox="0 0 1300 1300" fill="none" xmlns="http://www.w3.org/2000/svg">
<mask id="mask0_610_1253" style="mask-type:alpha" maskUnits="userSpaceOnUse" x="0" y="0" width="1296" height="1296">
<circle cx="647.869" cy="647.869" r="647.869" fill="#D9D9D9"/>
</mask>
<g mask="url(#mask0_610_1253)">
<path d="M1003.04 1182.75C1000.07 1184.87 996.669 1186.99 993.695 1189.12C990.296 1191.24 987.322 1193.37 983.923 1195.07C980.95 1196.76 978.401 1198.46 975.427 1200.16C975.002 1200.59 974.577 1200.59 974.152 1201.01C964.381 1206.96 954.185 1212.48 943.989 1217.58C941.015 1219.28 937.616 1220.98 934.642 1222.26C934.642 1222.26 934.218 1222.68 933.793 1222.68C930.394 1224.38 926.995 1226.08 923.597 1227.78C916.799 1231.18 909.577 1234.15 902.78 1237.12C899.381 1238.82 895.557 1240.1 892.159 1241.37C888.76 1242.65 884.937 1244.35 881.538 1245.62C878.139 1246.9 874.316 1248.59 870.917 1249.87C870.917 1249.87 870.917 1249.87 870.492 1249.87C867.093 1251.14 863.27 1252.42 859.871 1253.69C852.224 1256.24 844.152 1258.79 836.505 1261.34C833.956 1262.19 830.982 1263.04 828.433 1263.89C820.361 1266.44 812.29 1268.56 804.218 1270.26C801.244 1271.11 798.27 1271.54 794.871 1272.39C787.224 1274.09 779.152 1275.78 771.505 1277.48C769.806 1277.91 768.531 1277.91 766.832 1278.33C764.283 1278.76 761.309 1279.18 758.76 1279.61C754.937 1280.03 751.538 1280.88 747.714 1281.31C746.015 1281.73 744.316 1281.73 742.616 1282.16C740.492 1282.58 737.943 1283.01 735.394 1283.01C728.597 1283.86 721.374 1284.71 714.577 1285.56C712.453 1285.98 709.904 1285.98 707.78 1286.41H707.355C704.381 1286.83 701.407 1286.83 698.433 1287.25C695.459 1287.68 692.486 1287.68 689.512 1287.68C687.812 1287.68 685.688 1288.1 683.989 1288.1C680.59 1288.1 677.616 1288.53 674.642 1288.53C670.394 1288.53 666.571 1288.95 662.322 1288.95C658.074 1288.95 654.25 1288.95 650.002 1288.95C647.028 1288.95 644.054 1288.95 641.08 1288.95C461.799 1286.41 300.786 1210.36 185.656 1089.71C185.656 1089.71 185.656 1089.28 185.231 1089.28C172.486 1077.81 183.531 1016.63 234.937 977.974C299.512 929.118 454.152 898.53 454.152 898.53C454.152 898.53 514.054 888.758 736.244 935.066C866.244 962.255 965.231 1001.76 1020.46 1108.82C1031.93 1130.92 1043.4 1164.9 1003.04 1182.75Z" fill="white"/>
<path d="M737.518 930.392C819.087 946.961 906.178 964.804 973.302 1018.76C995.819 1037.03 1010.69 1063.79 1023.01 1089.71C1028.96 1102.45 1034.9 1115.62 1039.58 1129.64C1042.13 1138.99 1045.95 1149.61 1043.83 1160.65C1043.4 1163.63 1040.85 1167.45 1038.73 1169.58C1028.96 1179.35 1018.34 1185.29 1007.71 1192.94C945.263 1236.27 873.466 1266.86 799.119 1283.01C633.433 1319.12 454.152 1291.08 308.433 1203.99C260.002 1174.67 215.394 1138.99 177.159 1096.93C172.91 1091.83 172.91 1083.33 172.91 1077.81C173.335 1065.07 176.734 1052.75 180.982 1041.27C191.178 1014.93 204.348 988.595 226.864 970.327C243.008 959.281 260.427 949.935 278.27 942.288C334.348 918.497 393.4 901.928 454.152 895.131C459.25 894.706 460.1 901.928 455.002 902.778C396.799 914.673 339.021 932.516 285.067 956.732C265.525 966.503 244.708 975 228.989 990.294C214.119 1006.44 203.498 1026.41 195.002 1046.8C189.479 1059.12 185.655 1078.66 187.355 1088.43C214.119 1120.29 245.557 1148.33 279.544 1172.55C465.623 1302.55 748.139 1311.05 946.113 1202.71C963.956 1192.94 981.374 1181.9 997.943 1170.42C1006.01 1164.9 1014.51 1160.23 1020.88 1153.86C1021.31 1153.43 1020.88 1153.86 1020.88 1154.28C1020.88 1154.71 1020.46 1155.13 1020.46 1155.13C1020.88 1150.03 1019.18 1143.24 1017.06 1136.44C1009.41 1111.8 997.093 1085.88 983.923 1063.37C963.106 1029.8 927.845 1008.56 892.159 991.569C867.518 980.098 841.603 971.177 815.263 962.68C788.923 954.183 762.159 946.961 735.394 940.588C728.597 938.889 730.721 929.118 737.518 930.392Z" fill="black"/>
<path d="M1144.09 1446.14H69.6758C69.6758 1446.14 132.976 1312.75 161.016 1160.65C180.558 1055.29 195.003 993.693 249.807 959.706C288.467 935.915 397.225 901.503 474.545 890.458C505.983 886.209 568.434 881.536 622.388 885.784C663.173 890.882 747.29 914.673 779.578 923.595C828.009 937.19 932.944 977.549 979.251 1020.03C997.519 1037.03 1040.85 1121.99 1068.89 1245.2C1101.18 1385.39 1144.09 1446.14 1144.09 1446.14Z" fill="white"/>
<path d="M1153.86 1451.24C833.956 1453.79 385.328 1459.74 70.0994 1459.31C60.753 1459.74 53.9556 1449.12 58.204 1440.62C65.851 1424.48 73.0733 1407.91 79.8706 1390.92C110.459 1315.29 136.374 1237.55 152.093 1157.68C164.838 1095.23 175.034 1025.56 222.191 978.399C235.361 965.229 251.505 955.033 268.073 947.386C301.635 932.092 336.047 919.347 370.884 908.301C440.982 885.36 515.328 875.588 589.25 876.863C626.21 876.863 663.596 882.811 699.707 891.307C715.426 894.281 737.518 901.079 752.812 905.327L765.982 909.15C768.531 910.425 769.38 915.523 770.655 918.072C771.505 919.771 772.354 920.196 773.629 920.621C775.753 921.046 779.152 918.072 781.276 918.922C824.184 931.667 865.394 950.36 904.903 971.177C932.943 986.896 961.831 1002.19 984.773 1025.13C1004.74 1050.62 1020.88 1079.08 1035.75 1107.97C1071.86 1182.32 1082.06 1266.44 1109.67 1343.33C1119.87 1372.65 1131.77 1401.96 1146.21 1429.58L1149.18 1435.1L1150.88 1438.07L1151.73 1439.35L1152.16 1440.2C1154.71 1441.9 1155.56 1448.27 1153.86 1451.24ZM1134.32 1441.05C1132.19 1443.59 1132.62 1449.12 1134.32 1451.24L1133.89 1450.39L1133.04 1448.69L1131.34 1445.72C1113.92 1415.13 1101.6 1382.42 1090.56 1349.28C1061.67 1262.61 1052.32 1170 1011.54 1087.58C1001.34 1066.76 991.145 1045.52 975.851 1028.1C966.929 1020.03 957.158 1013.24 946.962 1006.86C901.08 978.824 849.675 959.706 799.119 941.438C794.871 939.739 784.25 936.34 780.001 935.065C776.603 934.216 775.328 933.791 774.479 929.543C773.629 926.144 772.779 921.895 768.956 923.595C766.831 924.445 763.008 929.543 760.459 929.118C751.962 926.994 729.446 921.046 720.949 918.922C688.237 910.425 655.949 899.804 622.812 893.431C520.851 884.51 418.89 902.353 321.603 932.516C288.041 943.987 251.08 954.608 226.864 982.222C184.805 1034.48 177.583 1122.42 164.413 1187.42C146.145 1277.91 118.531 1365.85 81.57 1451.24L69.6746 1432.55C377.256 1433.82 822.485 1437.65 1134.32 1441.05Z" fill="black"/>
<path d="M461.372 933.366C448.202 934.641 434.183 937.614 422.287 944.412C421.013 945.261 419.314 943.137 420.588 942.288C431.634 932.516 445.653 926.993 459.248 922.745C462.222 921.895 465.196 923.595 465.621 926.569C466.895 929.967 464.771 933.366 461.372 933.366Z" fill="black"/>
<path d="M495.361 987.746C480.067 991.145 465.198 998.367 452.878 1008.56C443.106 1010.26 467.747 990.295 469.446 989.446C476.668 984.348 483.891 980.524 492.387 977.125C494.936 976.276 498.335 977.55 499.185 980.099C500.884 983.923 498.76 987.321 495.361 987.746Z" fill="black"/>
<path d="M550.161 1042.12C537.841 1051.9 527.22 1065.07 520.423 1079.51C519.998 1080.36 518.723 1080.78 517.874 1080.36C517.024 1079.93 516.599 1079.08 517.024 1078.24C519.573 1070.16 522.972 1062.09 527.645 1054.87C532.318 1047.22 537.416 1040.42 543.364 1034.05C545.488 1031.93 548.887 1031.93 551.011 1034.05C553.135 1036.18 553.135 1040.42 550.161 1042.12Z" fill="black"/>
<path d="M641.928 1084.18C634.705 1099.48 629.182 1116.05 628.333 1133.04C628.333 1136.01 623.235 1136.01 623.235 1133.04C622.385 1119.44 624.509 1105.85 628.333 1093.1C630.457 1088.01 630.882 1074.41 639.379 1076.96C641.928 1077.81 643.202 1081.21 641.928 1084.18Z" fill="black"/>
<path d="M739.215 1085.88C741.764 1091.83 761.306 1139.41 751.96 1139.84C750.685 1139.84 749.411 1138.99 749.411 1137.71C748.986 1133.46 747.711 1129.64 746.012 1125.39C741.764 1113.5 735.816 1101.6 729.443 1090.56C726.469 1084.18 736.241 1079.09 739.215 1085.88Z" fill="black"/>
<path d="M779.575 991.993C795.294 994.967 808.464 1004.31 818.235 1016.21C818.66 1016.63 818.66 1017.91 818.235 1018.33C817.81 1018.76 816.96 1018.76 816.111 1018.33C805.915 1009.41 792.32 1003.04 778.725 1002.61C770.653 1002.19 771.928 990.719 779.575 991.993Z" fill="black"/>
<path d="M764.28 942.289C777.45 945.687 789.77 951.21 799.542 960.557C800.391 961.406 800.391 962.681 799.542 963.53C798.692 964.38 797.842 964.38 796.993 963.955C786.797 957.158 774.476 953.759 762.581 952.91C754.934 952.06 756.633 940.589 764.28 942.289Z" fill="black"/>
<path d="M779.575 1051.9C791.47 1061.67 803.366 1071.86 811.013 1085.46C811.437 1085.88 811.013 1086.73 810.588 1087.16C810.163 1087.58 809.313 1087.16 808.888 1086.73C799.542 1075.26 786.797 1067.61 774.052 1060.39C767.254 1056.99 773.202 1047.22 779.575 1051.9Z" fill="black"/>
<path d="M777.447 1043.4C768.525 1087.16 710.748 1113.5 613.46 1073.99C512.349 1033.2 468.591 935.915 457.545 907.027C517.447 794.87 475.813 717.125 475.813 717.125C613.885 705.229 734.538 866.667 734.538 866.667L753.231 946.536C754.931 953.334 758.329 959.281 763.427 963.53C772.349 979.249 782.97 1015.36 777.447 1043.4Z" fill="white"/>
<path d="M455.423 908.301C463.495 895.981 468.593 881.536 471.992 867.517C478.364 838.203 480.489 808.465 480.913 778.726V767.68C479.639 756.634 475.815 745.164 471.567 734.968C466.044 721.373 486.011 712.876 492.384 726.471C493.234 728.17 493.234 731.144 493.234 732.844C494.508 790.621 497.057 864.968 460.521 912.974C457.972 915.523 452.874 911.7 455.423 908.301Z" fill="black"/>
<path d="M739.212 865.818C745.585 869.641 747.709 874.739 748.559 879.837C751.108 890.033 750.258 901.079 752.807 911.7C754.931 921.896 761.304 931.667 763.003 942.288C765.128 953.334 771.5 976.7 774.049 988.171C774.899 990.72 773.199 993.694 770.226 994.118C768.526 994.543 767.252 994.118 765.977 993.269C760.454 988.596 757.905 983.922 754.507 977.975C748.984 967.778 745.16 958.432 741.762 946.961C738.788 936.765 740.062 925.72 737.513 915.099C735.389 904.903 729.441 895.131 727.317 884.51C726.043 879.412 725.618 873.89 729.441 867.517C731.99 864.968 736.239 864.118 739.212 865.818Z" fill="black"/>
<path d="M769.802 977.974C688.658 973.726 622.384 948.236 557.809 833.105C612.188 881.112 676.338 899.379 743.887 907.876L752.809 946.961C754.508 953.758 764.704 973.726 769.802 977.974Z" fill="black"/>
<path d="M766.404 962.255C780.849 989.445 789.346 1023.43 780.424 1053.6C773.627 1074.84 754.084 1090.56 732.842 1096.5C683.561 1109.67 626.633 1088.86 582.875 1065.49C528.921 1035.33 488.986 984.772 463.496 929.543C461.797 925.295 467.744 921.896 470.293 926.144C479.215 943.987 489.411 961.406 500.882 977.125C512.352 993.268 525.522 1008.14 540.391 1021.31C583.725 1060.39 642.352 1084.61 700.98 1084.61C761.306 1082.91 784.248 1051.05 770.228 992.419C768.104 983.072 764.705 973.301 760.032 965.229C757.483 961.83 763.855 958.007 766.404 962.255Z" fill="black"/>
<path d="M930.818 452.027C938.465 487.713 942.288 516.602 921.471 611.765C901.079 706.504 940.589 802.092 840.327 889.184C772.778 947.811 654.674 958.857 560.36 894.706C528.497 873.04 520.001 771.929 494.935 733.268C484.314 717.125 477.942 743.04 453.726 716.275C420.164 679.739 379.805 606.242 399.772 476.242C432.059 265.523 599.02 240.883 722.648 264.249C846.7 287.615 910.425 358.138 930.818 452.027Z" fill="white"/>
<path d="M474.542 753.66C464.771 737.517 452.45 723.497 440.98 708.628C423.986 685.687 411.241 659.347 402.744 632.157C366.208 515.752 385.751 364.085 493.659 291.438C593.496 223.889 784.248 244.281 871.764 325.85C915.522 365.36 939.738 422.713 944.836 480.49C947.385 519.151 938.039 556.536 929.967 593.922C920.62 630.458 918.496 666.994 918.496 704.804C918.071 742.615 916.372 782.125 901.927 817.811C879.836 872.19 833.529 916.373 777.875 935.066C704.803 960.556 618.561 946.111 558.659 897.255C556.11 895.131 558.659 891.732 561.633 893.007C640.228 937.615 743.463 945.262 819.934 893.857C865.392 863.268 896.829 814.837 904.052 760.458C909.999 723.497 908.3 686.111 911.699 648.726C912.973 632.157 917.646 609.216 921.045 592.647C926.143 565.033 929.542 537.419 929.117 509.804C928.692 482.615 922.744 455.85 914.673 429.935C886.633 337.745 806.339 283.366 713.725 268.497C575.228 244.281 454.15 295.687 418.039 439.706C402.32 510.229 389.999 587.974 419.738 656.373C430.359 682.288 447.777 704.379 467.744 723.497L487.287 744.314C495.784 752.811 481.339 763.856 474.542 753.66Z" fill="black"/>
<path d="M524.67 618.562C524.67 618.562 511.5 554.837 449.474 562.484C395.944 569.281 377.252 697.582 498.755 733.268" fill="white"/>
<path d="M493.234 677.614C483.463 672.092 476.666 662.745 476.241 651.275C476.666 642.778 477.94 633.007 475.816 624.51C474.541 616.438 466.045 614.314 459.672 614.739C452.875 616.013 448.626 624.51 447.352 631.307C447.352 631.732 446.927 633.007 446.927 633.431C446.502 635.556 443.103 635.556 442.254 633.431C436.731 616.863 449.051 598.595 466.894 600.719C491.96 602.418 495.358 628.758 490.685 648.726C488.136 657.222 491.535 664.869 496.208 672.092L497.058 673.366C499.182 675.915 495.783 679.314 493.234 677.614Z" fill="black"/>
<path d="M833.102 573.53C839.474 603.693 851.369 631.732 866.239 658.072C879.409 690.36 845.422 720.948 815.258 719.673C811.86 719.673 811.435 715 814.409 714.151C833.526 708.203 850.945 695.458 853.918 675.915C855.193 669.968 853.494 664.87 850.52 659.772C836.5 633.432 828.003 603.268 830.128 573.53C830.128 571.405 833.102 571.405 833.102 573.53Z" fill="black"/>
<path d="M522.549 618.987C512.777 593.922 491.536 570.131 463.072 570.556C460.523 570.131 456.274 570.98 453.725 570.98C446.503 571.405 440.555 573.954 435.032 579.052C407.843 606.242 412.516 654.248 434.608 684.412C442.255 695.033 452.026 704.379 463.072 712.026C474.117 719.673 486.438 725.621 499.608 730.719C502.581 731.569 501.307 736.242 498.333 735.817C469.869 729.869 442.679 715.85 423.987 692.484C395.098 657.647 389.15 599.445 423.562 565.458C431.209 558.66 441.83 553.562 452.451 553.562C455.849 553.562 460.947 552.713 464.346 553.562C482.189 554.412 499.183 563.333 510.228 577.353C520 589.248 525.523 603.693 527.222 618.137C527.222 620.686 523.398 621.536 522.549 618.987Z" fill="black"/>
<path d="M804.638 760.033C797.416 765.131 786.795 760.882 779.148 764.281C773.625 765.98 764.704 773.628 751.959 772.778C741.762 771.928 736.664 766.83 728.168 763.007C719.246 760.033 709.9 754.51 703.952 747.288C702.677 746.013 702.677 744.314 703.952 743.039C705.651 741.34 707.351 742.614 709.05 743.464C712.874 745.588 715.847 747.288 718.821 748.137C721.795 748.987 724.769 748.137 729.442 748.137C734.115 747.713 740.913 749.837 745.161 753.235C748.135 755.36 751.534 756.634 754.083 757.059C760.88 758.333 769.377 752.811 776.599 751.961C781.697 751.111 787.22 751.536 791.468 752.811C795.717 754.085 798.691 754.935 802.089 754.085C805.913 753.235 808.037 758.333 804.638 760.033Z" fill="black"/>
<path d="M737.09 528.497C746.436 529.771 753.658 520 750.26 510.654C748.56 505.556 745.586 500.883 740.913 497.909C726.469 488.987 672.514 488.137 644.05 508.53C618.56 527.222 694.606 522.549 737.09 528.497Z" fill="black"/>
<path d="M854.768 533.17C847.121 533.17 842.448 523.399 846.272 515.327C848.396 511.079 851.37 507.255 855.618 505.131C868.788 498.758 904.049 502.582 919.768 524.249C933.788 543.366 890.03 532.745 854.768 533.17Z" fill="black"/>
<path d="M723.072 584.575C708.203 597.745 685.261 597.745 667.418 590.948C664.444 589.673 647.451 582.026 650.85 577.778C651.274 577.353 652.124 576.928 652.549 576.928C664.444 577.353 675.49 578.628 686.961 579.477C698.431 580.327 708.627 579.902 720.523 579.477C723.497 579.477 725.196 582.876 723.072 584.575Z" fill="black"/>
<path d="M890.88 591.798C877.285 607.517 849.671 605.392 836.926 590.098C835.651 588.824 836.926 586.275 838.625 586.7C843.298 587.124 847.547 587.974 851.795 588.399C864.54 590.523 875.161 590.098 888.756 589.673C890.88 588.824 891.73 590.948 890.88 591.798Z" fill="black"/>
<path d="M985.62 480.49C973.725 517.451 945.261 548.464 926.993 569.281C931.241 549.314 927.418 537.418 928.267 523.399C929.542 504.281 936.339 483.039 935.065 474.543C934.215 466.895 932.516 459.673 930.816 452.026C928.692 442.68 926.143 433.758 923.169 424.837C856.47 489.837 742.189 425.686 742.189 425.686C742.189 425.686 717.973 445.654 675.49 440.98C630.032 436.307 617.712 408.268 617.712 408.268C605.392 494.085 524.248 461.373 539.117 546.765C543.365 570.131 543.365 592.647 523.398 616.013C519.999 604.118 503.431 555.686 449.052 562.484C397.646 568.856 378.104 687.811 484.313 728.595C483.039 768.105 487.287 821.634 483.039 807.614C453.3 715.85 393.823 730.294 365.784 661.046C352.614 627.909 354.738 598.595 361.535 576.928C368.333 556.111 367.908 533.595 361.11 512.778C353.463 488.562 347.516 452.026 361.535 407.843C385.326 332.222 436.307 314.804 449.477 305.882C462.646 296.961 456.274 215.392 548.463 189.902C621.96 169.51 677.189 212.418 693.333 209.445C709.477 206.471 822.483 132.124 909.575 202.222C993.692 270.196 962.254 350.49 962.254 350.49C962.254 350.49 1014.51 390.85 985.62 480.49Z" fill="black"/>
<path d="M477.092 631.732C477.092 631.732 443.105 626.634 445.654 674.216C446.929 698.431 446.929 711.601 446.504 718.399C446.079 723.072 449.053 727.32 453.301 729.02C458.399 731.144 463.922 729.02 466.471 723.922C470.295 717.124 474.543 707.778 474.543 700.131C474.543 687.386 488.138 675.915 488.138 675.915C488.138 675.915 475.818 665.294 477.092 631.732Z" fill="white"/>
<path d="M475.817 633.007C475.817 633.432 476.242 633.856 476.667 633.856C476.667 633.856 476.667 633.856 476.242 633.856H475.392C455 635.556 448.627 653.399 449.477 671.667C449.902 683.562 450.752 695.458 450.327 706.928C451.176 713.301 447.353 721.798 453.725 725.196C457.549 727.32 462.647 725.621 464.346 721.373C468.17 713.726 471.993 706.079 471.993 697.582C473.693 687.811 480.065 680.164 486.863 674.216V677.615C477.941 668.268 475.817 655.523 474.542 643.628C474.967 640.654 474.967 635.981 475.817 633.007ZM478.791 630.033C480.065 641.928 480.065 654.249 485.163 664.869C486.438 667.843 488.562 671.242 491.111 673.366C492.81 674.641 492.81 677.19 491.111 678.464C485.163 683.987 480.065 690.785 479.216 698.432C479.216 707.778 475.392 716.7 471.144 724.771C467.745 731.994 457.974 735.817 450.752 731.569C446.078 729.02 442.68 723.922 442.68 718.399C442.68 714.151 443.105 710.752 443.105 706.503C443.105 694.608 442.255 683.137 441.83 671.242C441.83 663.595 442.255 654.673 445.654 647.026C449.902 635.131 463.072 627.059 475.817 629.183C477.092 629.183 478.366 629.608 478.791 630.033Z" fill="black"/>
<path d="M471.569 1134.74C485.589 1073.56 467.321 1004.74 451.602 943.562C445.229 919.347 438.857 896.405 435.883 876.438C430.36 842.876 434.184 811.013 447.778 781.275C464.347 744.314 461.798 712.876 461.798 711.602L453.301 712.451C453.301 712.876 455.85 743.464 440.131 777.876C426.112 808.889 421.863 842.451 427.386 877.713C430.785 898.105 436.733 921.471 443.105 945.687C458.824 1005.59 476.667 1073.56 463.072 1132.61C455.425 1165.33 470.295 1218.86 491.536 1272.39C494.935 1272.81 497.909 1273.24 501.308 1273.66C479.641 1220.13 464.347 1166.18 471.569 1134.74Z" fill="black"/>
<path d="M446.929 698.856C447.354 708.203 446.929 714.575 446.929 718.399C446.504 723.072 449.478 727.321 453.726 729.02C458.824 731.144 464.347 729.02 466.896 723.922C470.72 717.124 474.968 707.778 474.968 700.131C474.968 699.706 474.968 698.856 474.968 698.432C466.472 701.83 456.275 704.379 446.929 698.856Z" fill="white"/>
<path d="M448.204 700.556C448.629 706.504 449.053 712.026 449.053 717.974C448.629 720.523 449.478 723.072 451.178 725.196C456.701 730.719 464.348 727.321 466.472 720.523C469.87 713.726 472.844 706.504 472.844 698.857L475.818 700.981C466.472 702.68 456.701 705.229 447.779 701.406C447.779 701.406 448.204 700.981 448.204 700.556ZM446.08 696.732C446.929 696.732 448.629 697.157 449.478 698.007C457.125 703.53 466.897 700.981 474.544 696.732C475.818 695.883 477.942 697.157 477.518 698.857C477.093 708.628 473.269 717.974 468.171 726.471C463.498 732.843 453.727 733.268 448.204 727.745C445.655 725.196 444.38 720.948 444.805 717.549C444.805 710.327 445.655 703.53 446.08 696.732Z" fill="black"/>
<path d="M847.125 981.372C854.347 931.242 847.55 895.555 845.001 884.935C843.726 885.784 842.877 887.059 841.602 887.908C840.328 889.183 839.053 890.033 837.779 891.307C840.328 904.902 845.001 937.189 838.628 980.098C835.654 1000.07 834.805 1031.5 834.38 1068.04C833.53 1103.3 822.484 1191.24 809.314 1274.51C812.288 1273.66 815.262 1272.81 818.236 1272.39C831.406 1189.97 842.027 1103.73 842.877 1068.46C843.726 1031.93 844.151 1000.91 847.125 981.372Z" fill="black"/>
</g>
</svg>
