<svg width="1300" height="1300" viewBox="0 0 1300 1300" fill="none" xmlns="http://www.w3.org/2000/svg">
<mask id="mask0_610_1283" style="mask-type:alpha" maskUnits="userSpaceOnUse" x="0" y="0" width="1296" height="1296">
<circle cx="647.869" cy="647.869" r="647.869" fill="#D9D9D9"/>
</mask>
<g mask="url(#mask0_610_1283)">
<path d="M1003.04 1182.75C1000.07 1184.87 996.669 1186.99 993.695 1189.12C990.296 1191.24 987.322 1193.37 983.923 1195.07C980.95 1196.76 978.401 1198.46 975.427 1200.16C975.002 1200.59 974.577 1200.59 974.152 1201.01C964.381 1206.96 954.185 1212.48 943.989 1217.58C941.015 1219.28 937.616 1220.98 934.642 1222.26C934.642 1222.26 934.218 1222.68 933.793 1222.68C930.394 1224.38 926.995 1226.08 923.597 1227.78C916.799 1231.18 909.577 1234.15 902.78 1237.12C899.381 1238.82 895.557 1240.1 892.159 1241.37C888.76 1242.65 884.937 1244.35 881.538 1245.62C878.139 1246.9 874.316 1248.59 870.917 1249.87C870.917 1249.87 870.917 1249.87 870.492 1249.87C867.093 1251.14 863.27 1252.42 859.871 1253.69C852.224 1256.24 844.152 1258.79 836.505 1261.34C833.956 1262.19 830.982 1263.04 828.433 1263.89C820.361 1266.44 812.29 1268.56 804.218 1270.26C801.244 1271.11 798.27 1271.54 794.871 1272.39C787.224 1274.09 779.152 1275.78 771.505 1277.48C769.806 1277.91 768.531 1277.91 766.832 1278.33C764.283 1278.76 761.309 1279.18 758.76 1279.61C754.937 1280.03 751.538 1280.88 747.714 1281.31C746.015 1281.73 744.316 1281.73 742.616 1282.16C740.492 1282.58 737.943 1283.01 735.394 1283.01C728.597 1283.86 721.374 1284.71 714.577 1285.56C712.453 1285.98 709.904 1285.98 707.78 1286.41H707.355C704.381 1286.83 701.407 1286.83 698.433 1287.25C695.459 1287.68 692.486 1287.68 689.512 1287.68C687.812 1287.68 685.688 1288.1 683.989 1288.1C680.59 1288.1 677.616 1288.53 674.642 1288.53C670.394 1288.53 666.571 1288.95 662.322 1288.95C658.074 1288.95 654.25 1288.95 650.002 1288.95C647.028 1288.95 644.054 1288.95 641.08 1288.95C461.799 1286.41 300.786 1210.36 185.656 1089.71C185.656 1089.71 185.656 1089.28 185.231 1089.28C172.486 1077.81 183.531 1016.63 234.937 977.974C299.512 929.118 454.152 898.53 454.152 898.53C454.152 898.53 514.054 888.758 736.244 935.066C866.244 962.255 965.231 1001.76 1020.46 1108.82C1031.93 1130.92 1043.4 1164.9 1003.04 1182.75Z" fill="white"/>
<path d="M737.518 930.392C819.087 946.961 906.178 964.804 973.302 1018.76C995.819 1037.03 1010.69 1063.79 1023.01 1089.71C1028.96 1102.45 1034.9 1115.62 1039.58 1129.64C1042.13 1138.99 1045.95 1149.61 1043.83 1160.65C1043.4 1163.63 1040.85 1167.45 1038.73 1169.58C1028.96 1179.35 1018.34 1185.29 1007.71 1192.94C945.263 1236.27 873.466 1266.86 799.119 1283.01C633.433 1319.12 454.152 1291.08 308.433 1203.99C260.002 1174.67 215.394 1138.99 177.159 1096.93C172.91 1091.83 172.91 1083.33 172.91 1077.81C173.335 1065.07 176.734 1052.75 180.982 1041.27C191.178 1014.93 204.348 988.595 226.864 970.327C243.008 959.281 260.427 949.935 278.27 942.288C334.348 918.497 393.4 901.928 454.152 895.131C459.25 894.706 460.1 901.928 455.002 902.778C396.799 914.673 339.021 932.516 285.067 956.732C265.525 966.503 244.708 975 228.989 990.294C214.119 1006.44 203.498 1026.41 195.002 1046.8C189.479 1059.12 185.655 1078.66 187.355 1088.43C214.119 1120.29 245.557 1148.33 279.544 1172.55C465.623 1302.55 748.139 1311.05 946.113 1202.71C963.956 1192.94 981.374 1181.9 997.943 1170.42C1006.01 1164.9 1014.51 1160.23 1020.88 1153.86C1021.31 1153.43 1020.88 1153.86 1020.88 1154.28C1020.88 1154.71 1020.46 1155.13 1020.46 1155.13C1020.88 1150.03 1019.18 1143.24 1017.06 1136.44C1009.41 1111.8 997.093 1085.88 983.923 1063.37C963.106 1029.8 927.845 1008.56 892.159 991.569C867.518 980.098 841.603 971.177 815.263 962.68C788.923 954.183 762.159 946.961 735.394 940.588C728.597 938.889 730.721 929.118 737.518 930.392Z" fill="black"/>
<path d="M1003.04 1182.75C1000.07 1184.87 996.668 1186.99 993.694 1189.12C990.296 1191.24 987.322 1193.37 983.923 1195.07C980.949 1196.76 978.4 1198.46 975.426 1200.16C975.002 1200.59 974.577 1200.59 974.152 1201.01C964.381 1206.96 954.185 1212.48 943.988 1217.58C941.015 1219.28 937.616 1220.98 934.642 1222.26C934.642 1222.26 934.217 1222.68 933.792 1222.68C930.394 1224.38 926.995 1226.08 923.596 1227.78C916.799 1231.18 909.577 1234.15 902.779 1237.12C899.381 1238.82 895.557 1240.1 892.158 1241.37C888.76 1242.65 884.936 1244.35 881.538 1245.62C878.139 1246.9 874.315 1248.59 870.917 1249.87C870.917 1249.87 870.917 1249.87 870.492 1249.87C867.093 1251.14 863.27 1252.42 859.871 1253.69C852.224 1256.24 844.152 1258.79 836.505 1261.34C833.956 1262.19 830.982 1263.04 828.433 1263.89C820.361 1266.44 812.289 1268.56 804.217 1270.26C801.243 1271.11 798.27 1271.54 794.871 1272.39C787.224 1274.09 779.152 1275.78 771.505 1277.48C769.805 1277.91 768.531 1277.91 766.832 1278.33C764.283 1278.76 761.309 1279.18 758.76 1279.61C754.936 1280.03 751.537 1280.88 747.714 1281.31C746.015 1281.73 744.315 1281.73 742.616 1282.16C740.492 1282.58 737.943 1283.01 735.394 1283.01C728.596 1283.86 721.374 1284.71 714.577 1285.56C712.453 1285.98 709.904 1285.98 707.779 1286.41H707.354C704.381 1286.83 701.407 1286.83 698.433 1287.25C695.459 1287.68 692.485 1287.68 689.511 1287.68C687.812 1287.68 685.688 1288.1 683.988 1288.1C680.59 1288.1 677.616 1288.53 674.642 1288.53C670.394 1288.53 666.57 1288.95 662.322 1288.95C658.073 1288.95 654.25 1288.95 650.002 1288.95C647.028 1288.95 644.054 1288.95 641.08 1288.95C461.799 1286.41 300.786 1210.36 185.655 1089.71C185.655 1089.71 185.655 1089.28 185.23 1089.28C172.485 1082.91 181.407 1010.26 232.812 971.601C297.387 922.745 454.152 898.53 454.152 898.53C454.152 898.53 514.054 888.758 736.243 935.066C855.198 959.706 965.655 998.791 1006.01 1066.76C1017.06 1085.46 1043.83 1121.99 1039.15 1149.61C1036.6 1164.48 1015.79 1171.27 1003.04 1182.75Z" fill="white"/>
<path d="M737.518 930.392C816.538 947.386 909.152 962.255 974.152 1013.66C1015.79 1046.8 1029.38 1099.48 1049.35 1147.06C1051.05 1150.03 1049.35 1153.01 1048.07 1155.56C1036.6 1173.4 1017.91 1185.29 1000.92 1197.19C951.211 1230.75 895.557 1256.24 838.204 1272.81C646.178 1328.46 429.087 1293.63 266.374 1176.8C233.662 1153.43 203.499 1126.67 176.734 1096.93L178.858 1098.63C172.061 1093.95 170.361 1085.46 170.361 1078.24C172.486 1048.5 185.655 1021.31 198.825 994.968C203.074 987.321 207.747 978.824 214.544 972.876C276.995 915.523 379.806 893.432 461.799 885.785C466.897 885.36 467.322 892.582 462.649 893.432C386.603 907.451 307.584 925.294 243.008 969.477C234.512 976.275 224.316 983.072 218.368 992.419C208.597 1007.71 174.185 1073.99 186.93 1087.58C275.721 1193.37 409.119 1254.12 544.642 1270.26C678.041 1288.1 818.662 1269.84 938.041 1206.54C955.035 1197.61 971.603 1187.84 987.322 1176.8C1001.77 1167.03 1016.21 1157.68 1027.26 1144.51L1026.83 1145.36L1026.41 1153.01C1025.13 1137.29 1017.06 1121.99 1011.96 1107.12C1006.01 1092.26 999.642 1076.54 991.995 1062.94C976.701 1035.33 950.361 1015.78 922.747 1000.92C894.283 985.621 863.27 974.575 831.407 965.229C799.544 955.883 767.682 947.811 734.969 940.589C728.597 938.889 730.721 929.118 737.518 930.392Z" fill="black"/>
<path d="M241.734 962.255C241.734 962.255 262.976 964.804 292.29 982.647C347.094 1016.21 432.911 1224.8 283.368 1349.71C283.368 1349.71 256.604 1506.05 283.368 1535.78C283.368 1535.78 772.78 1560.43 983.924 1535.78C983.924 1535.78 1011.96 1444.02 998.368 1345.88C981.375 1221.41 986.473 1090.56 904.479 978.824C867.094 927.843 679.741 883.66 571.408 884.51C461.8 885.785 416.342 897.255 387.453 904.477C358.14 912.124 243.859 939.739 241.734 962.255Z" fill="black" stroke="black" stroke-width="5.1257" stroke-miterlimit="10" stroke-linecap="round" stroke-linejoin="round"/>
<path d="M254.479 979.249C305.884 932.092 299.936 972.026 396.374 956.307C433.335 950.36 477.093 919.772 533.596 921.046C574.38 921.896 618.563 952.484 670.818 959.281C712.877 964.804 763.008 945.687 813.139 955.883C855.197 964.804 894.282 1001.76 942.714 1014.93" stroke="white" stroke-width="4" stroke-miterlimit="10" stroke-linecap="round" stroke-linejoin="round"/>
<path d="M258.303 1035.75C318.63 999.641 307.159 1037.45 402.747 1024.28C440.558 1019.18 485.59 987.745 541.669 988.17C583.303 988.595 628.335 1018.76 681.015 1023.86C723.924 1028.1 774.054 1007.29 824.61 1015.78C867.943 1023.43 908.303 1059.97 957.159 1071.44" stroke="white" stroke-width="4" stroke-miterlimit="10" stroke-linecap="round" stroke-linejoin="round"/>
<path d="M262.125 1092.68C328.4 1066.34 313.955 1102.03 408.694 1091.83C447.779 1087.58 493.661 1056.14 549.739 1056.14C592.223 1056.14 638.53 1085.88 691.21 1090.13C734.968 1093.53 785.524 1070.59 836.079 1077.81C880.262 1084.18 922.321 1119.87 972.027 1129.64" stroke="white" stroke-width="4" stroke-miterlimit="10" stroke-linecap="round" stroke-linejoin="round"/>
<path d="M265.949 1150.46C336.047 1133.04 319.903 1166.6 413.792 1158.95C453.727 1155.56 500.884 1124.54 556.962 1124.12C600.72 1123.69 648.302 1153.43 700.982 1156.41C746.015 1158.95 796.145 1133.89 847.55 1139.41C893.008 1144.09 937.191 1178.92 987.322 1186.99" stroke="white" stroke-width="4" stroke-miterlimit="10" stroke-linecap="round" stroke-linejoin="round"/>
<path d="M268.924 1208.24C341.571 1198.04 324.153 1229.9 418.041 1225.23C459.251 1223.1 507.682 1192.09 564.185 1191.67C608.793 1191.24 657.649 1221.41 710.754 1223.1C756.636 1224.8 807.192 1198.04 859.022 1201.44C905.754 1204.84 952.061 1238.4 1002.62 1243.92" stroke="white" stroke-width="4" stroke-miterlimit="10" stroke-linecap="round" stroke-linejoin="round"/>
<path d="M271.895 1266.01C346.241 1261.77 328.398 1292.78 422.287 1290.66C464.77 1289.81 514.476 1259.22 570.979 1259.22C616.862 1259.22 666.568 1289.38 720.097 1290.23C767.254 1291.08 818.234 1262.62 870.064 1264.32C918.071 1266.01 966.502 1298.3 1017.91 1301.28" stroke="white" stroke-width="4" stroke-miterlimit="10" stroke-linecap="round" stroke-linejoin="round"/>
<path d="M777.447 1043.4C768.525 1087.16 710.748 1113.5 613.46 1073.99C512.349 1033.2 468.591 935.915 457.545 907.027C517.447 794.87 475.813 717.125 475.813 717.125C613.885 705.229 734.538 866.667 734.538 866.667L753.231 946.536C754.931 953.334 758.329 959.281 763.427 963.53C772.349 979.249 782.97 1015.36 777.447 1043.4Z" fill="white"/>
<path d="M455.423 908.301C463.495 895.981 468.593 881.536 471.992 867.517C478.364 838.203 480.489 808.465 480.913 778.726V767.68C479.639 756.634 475.815 745.164 471.567 734.968C466.044 721.373 486.011 712.876 492.384 726.471C493.234 728.17 493.234 731.144 493.234 732.844C494.508 790.621 497.057 864.968 460.521 912.974C457.972 915.523 452.874 911.7 455.423 908.301Z" fill="black"/>
<path d="M739.212 865.818C745.585 869.641 747.709 874.739 748.559 879.837C751.108 890.033 750.258 901.079 752.807 911.7C754.931 921.896 761.304 931.667 763.003 942.288C765.128 953.334 771.5 976.7 774.049 988.171C774.899 990.72 773.199 993.693 770.226 994.118C768.526 994.543 767.252 994.118 765.977 993.269C760.454 988.595 757.905 983.922 754.507 977.974C748.984 967.778 745.16 958.432 741.762 946.961C738.788 936.765 740.062 925.72 737.513 915.099C735.389 904.903 729.441 895.131 727.317 884.51C726.043 879.412 725.618 873.89 729.441 867.517C731.99 864.968 736.239 864.118 739.212 865.818Z" fill="black"/>
<path d="M769.802 977.974C688.658 973.726 622.384 948.236 557.809 833.105C612.188 881.112 676.338 899.379 743.887 907.876L752.809 946.961C754.508 953.759 764.704 973.726 769.802 977.974Z" fill="black"/>
<path d="M766.404 962.255C780.849 989.445 789.346 1023.43 780.424 1053.6C773.627 1074.84 754.084 1090.56 732.842 1096.5C683.561 1109.67 626.633 1088.86 582.875 1065.49C528.921 1035.33 488.986 984.772 463.496 929.543C461.797 925.295 467.744 921.896 470.293 926.144C479.215 943.987 489.411 961.406 500.882 977.125C512.352 993.268 525.522 1008.14 540.391 1021.31C583.725 1060.39 642.352 1084.61 700.98 1084.61C761.306 1082.91 784.248 1051.05 770.228 992.419C768.104 983.072 764.705 973.301 760.032 965.229C757.483 961.83 763.855 958.007 766.404 962.255Z" fill="black"/>
<path d="M930.815 452.027C938.462 487.713 942.285 516.602 921.468 611.765C901.076 706.504 950.782 726.046 833.102 877.713C785.096 939.739 668.691 922.321 574.377 858.17C542.514 836.504 528.919 780.85 505.128 741.34C486.436 710.327 477.939 742.615 453.298 715.85C419.736 679.314 379.377 605.818 399.344 475.818C431.632 265.099 598.592 240.458 722.22 263.824C846.697 287.615 910.423 358.138 930.815 452.027Z" fill="white"/>
<path d="M474.541 753.66C464.77 737.092 452.024 722.647 440.129 707.353C428.658 691.634 419.312 674.216 411.665 656.373C361.109 532.321 380.652 357.713 504.704 284.641C556.109 254.902 618.136 247.68 675.913 252.353C799.541 261.275 912.972 318.203 939.737 449.053C954.181 506.83 934.639 566.308 923.593 622.811C918.495 650.85 922.743 679.739 922.319 708.628C921.894 737.942 913.822 767.255 902.776 794.445C895.979 813.138 884.083 829.706 871.763 845C851.371 869.641 830.979 894.706 805.064 913.824C799.116 918.072 788.495 920.196 781.273 921.046C761.306 924.02 741.763 924.87 721.796 923.595C643.626 920.196 559.933 882.386 528.495 806.765C527.221 803.791 531.469 801.667 533.168 804.216C573.953 868.791 648.724 900.654 723.07 904.902C746.011 906.177 769.377 905.752 791.894 901.079C802.939 895.556 812.711 885.785 822.057 876.863C844.998 853.922 868.364 829.281 884.933 801.242C904.9 763.432 915.946 722.223 912.547 679.314C911.698 660.196 911.273 640.229 915.096 621.111C918.495 601.994 922.743 583.726 925.292 564.183C927.841 545.491 929.116 526.373 929.116 507.68C926.992 452.876 909.149 396.373 874.312 353.889C797.417 258.301 615.587 233.236 513.201 298.661C448.626 338.595 418.462 413.366 408.691 486.013C393.822 573.105 398.07 658.922 467.319 722.223L487.711 743.464C495.783 752.811 481.338 763.857 474.541 753.66Z" fill="black"/>
<path d="M524.67 618.562C524.67 618.562 511.5 554.837 449.474 562.484C395.944 569.281 377.252 697.582 498.755 733.268" fill="white"/>
<path d="M493.234 677.615C483.463 672.092 476.666 662.746 476.241 651.275C476.666 642.778 477.94 633.007 475.816 624.51C474.541 616.438 466.045 614.314 459.672 614.739C452.875 616.014 448.626 624.51 447.352 631.308C447.352 631.733 446.927 633.007 446.927 633.432C446.502 635.556 443.103 635.556 442.254 633.432C436.731 616.863 449.051 598.595 466.894 600.72C491.96 602.419 495.358 628.759 490.685 648.726C488.136 657.223 491.535 664.87 496.208 672.092L497.058 673.367C499.182 675.916 495.783 679.314 493.234 677.615Z" fill="black"/>
<path d="M833.102 573.53C839.474 603.693 851.369 631.732 866.239 658.072C879.409 690.36 845.422 720.948 815.258 719.673C811.86 719.673 811.435 715 814.409 714.151C833.526 708.203 850.945 695.458 853.918 675.915C855.193 669.968 853.494 664.87 850.52 659.772C836.5 633.432 828.003 603.268 830.128 573.53C830.128 571.405 833.102 571.405 833.102 573.53Z" fill="black"/>
<path d="M522.547 618.988C512.776 593.922 491.534 570.131 463.07 570.556C460.521 570.131 456.272 570.981 453.723 570.981C446.501 571.406 440.553 573.955 435.03 579.053C407.841 606.242 412.514 654.249 434.606 684.412C442.253 695.033 452.024 704.38 463.07 712.027C474.115 719.674 486.436 725.622 499.606 730.72C502.579 731.569 501.305 736.242 498.331 735.818C469.867 729.87 442.677 715.85 423.985 692.484C395.096 657.648 389.148 599.445 423.56 565.458C431.207 558.661 441.828 553.563 452.449 553.563C455.847 553.563 460.945 552.713 464.344 553.563C482.187 554.412 499.181 563.334 510.226 577.354C519.998 589.249 525.521 603.693 527.22 618.138C527.22 620.687 523.396 621.537 522.547 618.988Z" fill="black"/>
<path d="M791.043 760.457C791.468 767.255 786.37 779.15 777.023 787.647C729.017 758.333 707.35 773.627 707.35 773.627C690.357 747.712 694.18 712.451 735.389 739.215C763.853 757.908 781.697 760.882 791.043 760.457Z" fill="black"/>
<path d="M776.599 788.072C766.403 796.993 751.109 802.516 730.292 794.019C720.521 790.196 712.873 782.549 706.926 774.052C707.351 774.052 728.592 758.758 776.599 788.072Z" fill="white"/>
<path d="M799.115 759.183C799.115 759.183 781.272 768.954 735.389 739.64C680.585 704.379 691.631 778.3 730.291 794.019C770.651 810.588 791.468 774.477 791.043 760.882" stroke="black" stroke-width="3" stroke-miterlimit="10" stroke-linecap="round" stroke-linejoin="round"/>
<path d="M707.352 774.052C707.352 774.052 729.018 758.758 777.025 788.072" stroke="black" stroke-width="3" stroke-miterlimit="10" stroke-linecap="round" stroke-linejoin="round"/>
<path d="M737.09 528.497C746.436 529.771 753.658 520 750.26 510.654C748.56 505.556 745.586 500.883 740.913 497.909C726.469 488.987 672.514 488.137 644.05 508.53C618.56 527.222 694.606 522.549 737.09 528.497Z" fill="black"/>
<path d="M854.768 533.17C847.121 533.17 842.448 523.399 846.272 515.327C848.396 511.079 851.37 507.255 855.618 505.131C868.788 498.758 904.049 502.582 919.768 524.249C933.788 543.366 890.03 532.745 854.768 533.17Z" fill="black"/>
<path d="M721.371 583.301C699.704 573.954 675.064 576.503 652.547 581.601C649.998 582.451 648.299 579.052 650.423 577.353C669.966 561.209 706.926 559.085 722.645 581.177C723.92 582.026 723.07 583.726 721.371 583.301Z" fill="black"/>
<path d="M888.332 592.223C878.136 585 863.266 586.275 851.371 587.549C847.123 587.974 842.874 588.824 838.201 590.098C836.927 590.523 835.652 588.399 836.502 587.549L837.351 586.7C847.972 575.654 864.541 573.105 878.985 578.628C884.083 580.752 889.181 583.726 891.73 589.674C893.005 591.798 890.031 593.922 888.332 592.223Z" fill="black"/>
<path d="M964.816 522.973C983.933 457.548 950.796 412.091 927.005 389.999C915.96 360.261 897.267 330.947 867.528 308.431C861.581 303.757 855.208 299.509 847.986 295.685C842.038 292.287 835.665 289.313 829.293 286.339C773.215 262.123 683.574 233.659 594.783 248.953C560.796 254.476 526.809 266.797 494.947 287.614C494.522 287.614 494.522 288.038 494.522 288.038C491.973 289.738 489.424 291.437 487.299 293.136C481.352 285.914 474.554 279.542 466.907 273.594C413.803 233.659 356.025 240.457 316.09 293.986C276.156 347.091 269.358 426.535 322.463 466.47C339.032 478.79 357.724 486.437 376.842 489.411C376.417 491.535 376.417 494.084 375.992 496.208C352.626 705.653 512.79 799.967 500.469 734.117C497.071 732.842 495.371 731.568 495.371 730.718C377.692 693.333 396.384 567.581 449.489 560.784C468.607 558.235 482.626 562.908 493.672 569.705C497.92 573.953 501.744 577.777 505.567 581.601C515.764 594.346 524.685 610.489 524.685 616.862C525.11 611.764 525.535 605.816 526.809 599.868C578.215 638.104 624.522 624.509 708.639 490.261C764.293 401.47 797.43 384.051 815.698 386.601C822.92 389.15 829.718 394.672 836.09 404.019C837.79 406.568 839.489 409.117 840.764 411.666C878.149 410.816 895.567 432.483 904.489 454.999C904.489 454.999 904.489 454.999 904.489 455.424C911.711 474.542 912.561 494.084 913.411 499.182C913.411 500.032 913.411 500.457 913.835 500.457C912.986 517.45 910.862 546.339 910.437 583.725C910.437 600.718 912.136 634.705 910.862 654.248C910.437 660.195 910.012 666.143 909.587 671.666C909.162 674.64 909.162 677.614 908.737 680.163C908.313 682.712 908.313 685.685 907.888 688.659C907.463 692.058 907.038 695.032 907.038 698.431C915.535 708.627 927.855 710.326 938.051 717.123C940.6 688.235 932.953 664.019 929.979 631.306C932.528 642.352 935.927 652.973 941.025 664.019C958.018 700.555 948.672 727.319 948.672 727.319L976.711 729.019C979.685 720.947 982.234 706.078 973.313 686.535C959.718 656.372 958.868 642.352 958.868 642.352C958.868 642.352 966.09 666.993 979.685 683.561C990.306 697.156 994.554 715.424 990.306 729.869L1000.5 730.718C1031.09 684.836 936.352 619.411 964.816 522.973ZM618.149 559.934C585.862 583.3 558.672 578.627 542.103 571.404C542.528 571.404 542.953 570.98 542.953 570.98C553.149 570.13 563.345 568.006 573.116 564.182C619.848 547.614 663.182 504.705 701.417 465.195C669.13 505.13 638.116 545.489 618.149 559.934Z" fill="black"/>
</g>
</svg>
