<svg width="1300" height="1300" viewBox="0 0 1300 1300" fill="none" xmlns="http://www.w3.org/2000/svg">
<mask id="mask0_610_1313" style="mask-type:alpha" maskUnits="userSpaceOnUse" x="0" y="0" width="1296" height="1296">
<circle cx="647.869" cy="647.869" r="647.869" fill="#D9D9D9"/>
</mask>
<g mask="url(#mask0_610_1313)">
<path d="M1003.04 1182.75C1000.07 1184.87 996.669 1186.99 993.695 1189.12C990.296 1191.24 987.322 1193.37 983.923 1195.07C980.95 1196.76 978.401 1198.46 975.427 1200.16C975.002 1200.59 974.577 1200.59 974.152 1201.01C964.381 1206.96 954.185 1212.48 943.989 1217.58C941.015 1219.28 937.616 1220.98 934.642 1222.26C934.642 1222.26 934.218 1222.68 933.793 1222.68C930.394 1224.38 926.995 1226.08 923.597 1227.78C916.799 1231.18 909.577 1234.15 902.78 1237.12C899.381 1238.82 895.557 1240.1 892.159 1241.37C888.76 1242.65 884.937 1244.35 881.538 1245.62C878.139 1246.9 874.316 1248.59 870.917 1249.87C870.917 1249.87 870.917 1249.87 870.492 1249.87C867.093 1251.14 863.27 1252.42 859.871 1253.69C852.224 1256.24 844.152 1258.79 836.505 1261.34C833.956 1262.19 830.982 1263.04 828.433 1263.89C820.361 1266.44 812.29 1268.56 804.218 1270.26C801.244 1271.11 798.27 1271.54 794.871 1272.39C787.224 1274.09 779.152 1275.78 771.505 1277.48C769.806 1277.91 768.531 1277.91 766.832 1278.33C764.283 1278.76 761.309 1279.18 758.76 1279.61C754.937 1280.03 751.538 1280.88 747.714 1281.31C746.015 1281.73 744.316 1281.73 742.616 1282.16C740.492 1282.58 737.943 1283.01 735.394 1283.01C728.597 1283.86 721.374 1284.71 714.577 1285.56C712.453 1285.98 709.904 1285.98 707.78 1286.41H707.355C704.381 1286.83 701.407 1286.83 698.433 1287.25C695.459 1287.68 692.486 1287.68 689.512 1287.68C687.812 1287.68 685.688 1288.1 683.989 1288.1C680.59 1288.1 677.616 1288.53 674.642 1288.53C670.394 1288.53 666.571 1288.95 662.322 1288.95C658.074 1288.95 654.25 1288.95 650.002 1288.95C647.028 1288.95 644.054 1288.95 641.08 1288.95C461.799 1286.41 300.786 1210.36 185.656 1089.71C185.656 1089.71 185.656 1089.28 185.231 1089.28C172.486 1077.81 183.531 1016.63 234.937 977.974C299.512 929.118 454.152 898.53 454.152 898.53C454.152 898.53 514.054 888.758 736.244 935.066C866.244 962.255 965.231 1001.76 1020.46 1108.82C1031.93 1130.92 1043.4 1164.9 1003.04 1182.75Z" fill="white"/>
<path d="M737.518 930.392C819.087 946.961 906.178 964.804 973.302 1018.76C995.819 1037.03 1010.69 1063.79 1023.01 1089.71C1028.96 1102.45 1034.9 1115.62 1039.58 1129.64C1042.13 1138.99 1045.95 1149.61 1043.83 1160.65C1043.4 1163.63 1040.85 1167.45 1038.73 1169.58C1028.96 1179.35 1018.34 1185.29 1007.71 1192.94C945.263 1236.27 873.466 1266.86 799.119 1283.01C633.433 1319.12 454.152 1291.08 308.433 1203.99C260.002 1174.67 215.394 1138.99 177.159 1096.93C172.91 1091.83 172.91 1083.33 172.91 1077.81C173.335 1065.07 176.734 1052.75 180.982 1041.27C191.178 1014.93 204.348 988.595 226.864 970.327C243.008 959.281 260.427 949.935 278.27 942.288C334.348 918.497 393.4 901.928 454.152 895.131C459.25 894.706 460.1 901.928 455.002 902.778C396.799 914.673 339.021 932.516 285.067 956.732C265.525 966.503 244.708 975 228.989 990.294C214.119 1006.44 203.498 1026.41 195.002 1046.8C189.479 1059.12 185.655 1078.66 187.355 1088.43C214.119 1120.29 245.557 1148.33 279.544 1172.55C465.623 1302.55 748.139 1311.05 946.113 1202.71C963.956 1192.94 981.374 1181.9 997.943 1170.42C1006.01 1164.9 1014.51 1160.23 1020.88 1153.86C1021.31 1153.43 1020.88 1153.86 1020.88 1154.28C1020.88 1154.71 1020.46 1155.13 1020.46 1155.13C1020.88 1150.03 1019.18 1143.24 1017.06 1136.44C1009.41 1111.8 997.093 1085.88 983.923 1063.37C963.106 1029.8 927.845 1008.56 892.159 991.569C867.518 980.098 841.603 971.177 815.263 962.68C788.923 954.183 762.159 946.961 735.394 940.588C728.597 938.889 730.721 929.118 737.518 930.392Z" fill="black"/>
<path d="M1144.09 1446.14H69.6738C69.6738 1446.14 87.0921 1271.11 153.367 1131.34C177.582 1080.36 185.654 1005.59 233.661 972.875C282.942 939.313 387.876 912.548 424.412 908.299C444.804 905.75 440.131 904.051 454.576 900.228C459.249 912.973 506.406 1037.87 619.412 1083.76C716.7 1123.27 774.478 1096.93 783.399 1053.17C788.922 1025.13 771.504 979.247 762.582 964.378C757.484 960.13 754.086 953.757 752.386 947.384L748.987 933.365C756.635 931.665 763.857 929.541 771.504 927.417C775.327 928.267 779.576 927.842 782.974 929.966C818.661 949.509 926.144 977.123 982.223 1036.18C1004.31 1059.12 1038.73 1140.69 1044.25 1193.79C1059.97 1339.51 1144.09 1446.14 1144.09 1446.14Z" fill="white"/>
<path d="M1150.04 1448.69C831.408 1449.54 384.055 1453.37 70.1005 1452.09C66.277 1452.09 63.3031 1448.69 63.728 1444.87C67.5515 1414.71 72.6495 1385.39 78.5973 1355.65C94.3162 1274.51 118.107 1194.64 153.793 1120.29C168.238 1085.46 175.46 1048.92 192.878 1014.93C203.074 994.542 218.368 975 238.761 963.529C271.473 943.987 307.584 931.667 343.695 920.621C365.362 914.248 387.453 908.301 409.545 904.052C420.591 901.503 431.636 901.928 441.833 897.68C447.355 895.556 457.976 889.183 461.375 897.255C492.388 977.549 552.29 1053.59 635.983 1082.06C679.316 1097.78 754.512 1110.95 776.604 1057.84C783.401 1037.88 777.029 1016.21 771.081 996.242C767.682 986.046 763.434 975.425 758.336 966.928L759.61 968.203C751.963 961.83 747.715 951.634 746.44 942.288L744.316 933.791C743.466 930.392 745.591 926.993 748.989 926.144C756.636 924.869 764.283 922.32 771.931 920.196C776.179 920.196 782.976 921.046 788.499 924.02C835.231 945.686 888.336 961.405 932.944 988.595C958.009 1003.46 983.499 1020.88 999.643 1045.95C1029.38 1095.65 1048.5 1152.16 1054.02 1209.51C1065.92 1291.5 1099.05 1370.1 1146.64 1437.65L1148.34 1439.77L1149.19 1440.62L1149.61 1441.05C1149.61 1441.05 1149.61 1440.62 1150.04 1441.9C1150.46 1444.44 1150.46 1447.42 1150.04 1448.69ZM1138.56 1443.17C1137.71 1444.44 1137.71 1447.42 1138.56 1448.69C1139.41 1449.54 1138.99 1449.12 1138.99 1449.12L1138.56 1448.69L1137.71 1447.42L1136.02 1445.29C1109.25 1404.51 1087.16 1360.75 1071.02 1315.29C1058.27 1281.73 1048.92 1246.9 1043.83 1211.21C1042.13 1198.46 1040 1181.47 1037.03 1169.15C1027.26 1128.37 1011.54 1087.58 989.022 1052.32C981.8 1040.85 971.179 1031.93 960.558 1023.43C926.996 997.941 887.486 982.222 848.401 966.928L808.467 952.059C795.297 946.961 779.578 941.438 771.506 933.366H774.904C767.257 935.915 759.61 938.039 751.963 939.739L756.636 932.091L758.761 940.588C760.46 948.235 762.159 955.033 768.107 960.131C768.532 960.556 768.957 960.98 769.382 961.405C780.852 982.222 787.649 1003.89 791.048 1027.25C798.27 1067.61 772.78 1099.48 733.695 1107.12C679.741 1117.75 615.166 1094.38 570.558 1064.22C514.48 1024.71 474.12 966.078 449.48 902.778L457.127 906.601C453.303 907.876 450.754 909.15 446.931 910.85C443.107 912.974 438.434 914.248 434.185 915.098C434.61 917.647 433.336 910 435.035 920.196C426.963 921.046 420.591 921.471 412.944 923.17C391.277 926.569 369.61 931.667 348.368 937.614C319.904 945.261 291.865 954.608 265.525 966.928C252.355 973.301 239.61 980.098 229.839 989.02C219.643 997.941 211.571 1009.84 204.774 1022.58C184.806 1061.24 175.035 1107.55 154.643 1146.63C112.159 1241.37 88.3685 1344.61 76.8979 1447.84L70.5254 1441.05C378.957 1439.77 825.035 1441.47 1138.56 1443.17Z" fill="black"/>
<path d="M799.12 1168.3C784.251 1172.55 732.421 1118.59 721.8 1109.25C712.029 1120.29 643.205 1198.04 609.218 1192.94C571.833 1187.42 476.245 1123.27 427.813 1022.58C401.048 967.353 400.199 933.791 403.173 915.523C404.447 907.026 406.996 901.503 408.271 898.529C412.519 888.758 443.107 850.947 450.754 851.372V851.797C454.578 892.581 467.748 932.091 489.839 966.503C517.029 1008.56 559.937 1059.12 619.839 1083.33C717.127 1122.84 767.682 1083.76 776.179 1040C781.702 1011.96 771.931 978.823 763.009 963.954C757.911 959.706 754.513 953.333 752.813 946.96L749.414 932.941C757.062 931.242 764.284 929.117 771.931 926.993C774.055 926.143 776.604 925.719 778.728 924.869C780.003 926.568 781.702 928.268 782.977 929.967C800.82 950.359 819.513 978.398 829.709 1025.98C846.702 1102.03 815.689 1163.2 799.12 1168.3Z" fill="black"/>
<path d="M720.525 1106.7C720.525 1106.7 751.538 1124.54 750.689 1139.41C749.839 1154.28 758.761 1201.44 758.761 1201.44" stroke="black" stroke-width="3" stroke-miterlimit="10" stroke-linecap="round" stroke-linejoin="round"/>
<path d="M720.1 1163.2C725.731 1163.2 730.296 1158.64 730.296 1153.01C730.296 1147.38 725.731 1142.81 720.1 1142.81C714.469 1142.81 709.904 1147.38 709.904 1153.01C709.904 1158.64 714.469 1163.2 720.1 1163.2Z" fill="black"/>
<path d="M723.497 1203.14C729.128 1203.14 733.693 1198.57 733.693 1192.94C733.693 1187.31 729.128 1182.74 723.497 1182.74C717.866 1182.74 713.301 1187.31 713.301 1192.94C713.301 1198.57 717.866 1203.14 723.497 1203.14Z" fill="black"/>
<path d="M279.969 1446.14L260.852 1288.53" stroke="#544D4D" stroke-width="3" stroke-miterlimit="10" stroke-linecap="round" stroke-linejoin="round"/>
<path d="M1022.16 1235C1022.16 1235 1009.41 1266.01 1013.24 1297.03C1017.06 1328.04 1028.11 1373.5 1012.39 1446.14" stroke="#544D4D" stroke-width="3" stroke-miterlimit="10" stroke-linecap="round" stroke-linejoin="round"/>
<path d="M450.753 851.372C450.753 851.372 587.975 808.889 779.152 924.444C779.152 924.444 831.832 1066.34 799.119 1088.01C766.407 1109.67 663.596 1111.8 591.799 1088.01C519.577 1064.64 426.962 947.81 450.753 851.372Z" fill="black"/>
<path d="M777.447 1043.4C768.525 1087.16 710.748 1113.5 613.46 1073.99C512.349 1033.2 468.591 935.915 457.545 907.027C517.447 794.87 475.813 717.125 475.813 717.125C613.885 705.229 734.538 866.667 734.538 866.667L753.231 946.536C754.931 953.334 758.329 959.281 763.427 963.53C772.349 979.249 782.97 1015.36 777.447 1043.4Z" fill="white"/>
<path d="M455.423 908.301C463.495 895.981 468.593 881.536 471.992 867.517C478.364 838.203 480.489 808.465 480.913 778.726V767.68C479.639 756.634 475.815 745.164 471.567 734.968C466.044 721.373 486.011 712.876 492.384 726.471C493.234 728.17 493.234 731.144 493.234 732.844C494.508 790.621 497.057 864.968 460.521 912.974C457.972 915.523 452.874 911.7 455.423 908.301Z" fill="black"/>
<path d="M739.212 865.818C745.585 869.641 747.709 874.739 748.559 879.837C751.108 890.033 750.258 901.079 752.807 911.7C754.931 921.896 761.304 931.667 763.003 942.288C765.128 953.334 771.5 976.7 774.049 988.171C774.899 990.72 773.199 993.693 770.226 994.118C768.526 994.543 767.252 994.118 765.977 993.269C760.454 988.595 757.905 983.922 754.507 977.974C748.984 967.778 745.16 958.432 741.762 946.961C738.788 936.765 740.062 925.72 737.513 915.099C735.389 904.903 729.441 895.131 727.317 884.51C726.043 879.412 725.618 873.89 729.441 867.517C731.99 864.968 736.239 864.118 739.212 865.818Z" fill="black"/>
<path d="M769.802 977.974C688.658 973.726 622.384 948.236 557.809 833.105C612.188 881.112 676.338 899.379 743.887 907.876L752.809 946.961C754.508 953.759 764.704 973.726 769.802 977.974Z" fill="black"/>
<path d="M766.404 962.255C780.849 989.445 789.346 1023.43 780.424 1053.6C773.627 1074.84 754.084 1090.56 732.842 1096.5C683.561 1109.67 626.633 1088.86 582.875 1065.49C528.921 1035.33 488.986 984.772 463.496 929.543C461.797 925.295 467.744 921.896 470.293 926.144C479.215 943.987 489.411 961.406 500.882 977.125C512.352 993.268 525.522 1008.14 540.391 1021.31C583.725 1060.39 642.352 1084.61 700.98 1084.61C761.306 1082.91 784.248 1051.05 770.228 992.419C768.104 983.072 764.705 973.301 760.032 965.229C757.483 961.83 763.855 958.007 766.404 962.255Z" fill="black"/>
<path d="M930.817 452.026C938.464 487.712 932.516 511.503 929.117 610.065C925.719 706.928 897.679 843.725 863.268 878.137C836.928 904.052 752.385 924.444 677.189 905.327C638.954 895.556 606.666 873.464 580.326 857.745C547.189 837.778 518.3 776.176 494.509 736.667C475.817 705.654 477.516 743.039 453.3 716.275C419.738 679.739 379.379 606.242 399.346 476.242C431.634 265.523 598.594 240.882 722.222 264.248C846.699 287.614 910.424 358.137 930.817 452.026Z" fill="white"/>
<path d="M474.543 753.66C464.772 737.517 452.027 723.072 440.556 707.778C423.563 684.412 410.818 657.647 402.321 630.033C365.36 511.928 387.877 357.288 499.609 287.615C601.145 223.039 798.269 246.405 880.687 334.771C911.7 366.634 931.667 408.268 940.164 451.602C940.589 454.151 941.863 458.824 942.288 461.373C942.713 463.497 943.988 466.046 943.563 468.595C942.713 477.941 941.014 487.288 940.164 496.634C933.792 553.137 935.491 610.915 928.269 667.419C921.896 726.896 913.399 786.373 895.556 843.726C890.033 861.144 879.413 876.863 865.393 888.334C833.955 914.673 792.746 923.595 753.236 925.294C674.216 929.118 593.922 901.079 548.04 834.379C546.341 831.83 549.739 828.856 551.863 831.405C590.099 872.615 641.929 898.954 697.158 904.902C758.334 912.124 850.524 906.601 877.288 841.177C908.301 748.562 924.445 650.425 926.145 553.137C926.145 529.347 924.87 505.556 924.87 481.34C924.87 478.366 925.295 471.569 925.295 468.595C925.295 468.595 925.295 468.17 925.295 468.595C925.295 469.02 925.295 469.02 925.295 468.595C921.896 460.098 920.622 450.752 918.073 442.255C908.726 406.994 891.733 373.432 867.517 346.667C787.223 256.601 608.367 234.085 508.105 301.634C428.661 354.314 407.419 455.425 401.896 544.641C397.223 611.34 416.765 676.765 467.321 722.647L487.288 743.464C495.785 752.811 481.341 763.856 474.543 753.66Z" fill="black"/>
<path d="M524.676 618.562C524.676 618.562 511.506 554.836 449.48 562.483C395.95 569.281 377.257 697.581 498.761 733.268" fill="white"/>
<path d="M493.234 677.615C483.463 672.092 476.666 662.746 476.241 651.275C476.666 642.778 477.94 633.007 475.816 624.51C474.541 616.438 466.045 614.314 459.672 614.739C452.875 616.014 448.626 624.51 447.352 631.308C447.352 631.733 446.927 633.007 446.927 633.432C446.502 635.556 443.103 635.556 442.254 633.432C436.731 616.863 449.051 598.595 466.894 600.72C491.96 602.419 495.358 628.759 490.685 648.726C488.136 657.223 491.535 664.87 496.208 672.092L497.058 673.367C499.182 675.916 495.783 679.314 493.234 677.615Z" fill="black"/>
<path d="M833.107 573.529C839.48 603.693 851.375 631.732 866.245 658.072C879.415 690.359 845.428 720.947 815.264 719.673C811.865 719.673 811.441 715 814.415 714.15C833.532 708.202 850.95 695.457 853.924 675.915C855.199 669.967 853.499 664.869 850.526 659.771C836.506 633.431 828.009 603.268 830.133 573.529C830.133 571.405 833.107 571.405 833.107 573.529Z" fill="black"/>
<path d="M522.551 618.987C512.779 593.922 491.538 570.131 463.074 570.556C460.525 570.131 456.276 570.98 453.727 570.98C446.505 571.405 440.557 573.954 435.034 579.052C407.845 606.242 412.518 654.248 434.609 684.412C442.257 695.033 452.028 704.379 463.074 712.026C474.119 719.673 486.44 725.621 499.609 730.719C502.583 731.569 501.309 736.242 498.335 735.817C469.871 729.869 442.681 715.85 423.989 692.484C395.1 657.647 389.152 599.445 423.564 565.458C431.211 558.66 441.832 553.562 452.453 553.562C455.851 553.562 460.949 552.713 464.348 553.562C482.191 554.412 499.185 563.333 510.23 577.353C520.002 589.248 525.525 603.693 527.224 618.137C527.224 620.686 523.4 621.536 522.551 618.987Z" fill="black"/>
<path d="M800.817 762.157C773.627 788.072 722.222 767.255 708.627 735.817C706.928 731.993 711.176 728.595 714.575 730.294C721.797 734.118 728.17 737.941 734.967 740.915C754.509 749.837 774.902 757.059 796.568 754.935C800.817 754.085 803.79 759.183 800.817 762.157Z" fill="#040404"/>
<path d="M737.09 528.497C746.436 529.771 753.658 520 750.26 510.654C748.56 505.556 745.586 500.883 740.913 497.909C726.469 488.987 672.514 488.137 644.05 508.53C618.56 527.222 694.606 522.549 737.09 528.497Z" fill="black"/>
<path d="M854.768 533.17C847.121 533.17 842.448 523.399 846.272 515.327C848.396 511.079 851.37 507.255 855.618 505.131C868.788 498.758 904.049 502.582 919.768 524.249C933.788 543.366 890.03 532.745 854.768 533.17Z" fill="black"/>
<path d="M721.371 583.301C699.704 573.954 675.064 576.503 652.547 581.601C649.998 582.451 648.299 579.052 650.423 577.353C669.966 561.209 706.926 559.085 722.645 581.177C723.92 582.026 723.07 583.726 721.371 583.301Z" fill="black"/>
<path d="M888.332 592.223C878.136 585 863.266 586.275 851.371 587.549C847.123 587.974 842.874 588.824 838.201 590.098C836.927 590.523 835.652 588.399 836.502 587.549L837.351 586.7C847.972 575.654 864.541 573.105 878.985 578.628C884.083 580.752 889.181 583.726 891.73 589.674C893.005 591.798 890.031 593.922 888.332 592.223Z" fill="black"/>
<path d="M919.79 691.208C920.64 716.274 921.914 732.417 921.914 732.417L969.921 719.247C969.921 719.247 955.477 635.979 962.699 564.182C976.718 428.234 962.699 389.999 962.699 389.999C955.477 354.738 932.111 323.3 880.281 313.953C864.562 304.182 847.143 296.535 828.026 290.162C759.627 265.947 609.235 215.391 493.679 291.437C378.124 367.483 373.875 508.953 358.156 603.267C342.437 697.581 239.627 766.404 239.627 766.404L263.418 800.391C276.163 809.738 310.575 767.679 316.098 766.404C321.62 765.13 285.084 809.313 285.084 809.313C294.431 847.123 334.366 869.215 334.366 869.215C334.366 869.215 396.392 829.28 383.647 847.548C370.901 865.816 347.111 880.261 347.111 880.261C347.111 880.261 409.137 935.064 434.627 930.391C460.117 925.718 496.653 867.515 493.679 880.261C491.13 893.006 470.313 939.738 470.313 939.738L503.875 958.855C609.66 924.868 525.542 791.47 585.869 709.476C645.771 627.483 569.3 583.725 617.307 556.535C629.627 549.313 641.522 541.666 652.143 533.169L720.967 545.064C720.967 545.064 765.575 544.215 752.83 454.999C748.156 422.287 759.202 387.45 763.45 375.979C763.875 375.979 763.875 375.979 764.3 375.979C762.601 387.45 759.627 421.437 769.398 465.195C782.993 526.796 740.509 550.587 740.509 550.587L783.418 564.182C827.176 542.515 791.915 473.267 783.418 418.038C780.869 400.195 784.267 389.149 790.215 382.777C819.954 391.698 839.071 401.894 840.771 392.973C910.869 410.391 911.718 502.581 913.843 505.13C912.993 522.123 910.869 551.012 910.444 588.398C910.444 605.816 912.143 639.378 910.869 658.921C909.594 682.711 907.47 704.803 904.071 726.894C897.699 760.881 887.928 796.568 873.908 818.659C845.869 862.417 823.777 899.378 783.418 918.071C743.483 936.339 698.026 940.163 698.026 940.163C698.026 940.163 710.771 948.234 740.934 949.934C771.098 951.633 792.764 939.738 814.856 936.339C836.947 932.515 887.503 946.535 887.503 946.535C893.026 936.764 889.202 900.653 894.725 907.875C900.248 915.097 899.398 946.535 899.398 946.535L944.856 954.607C954.627 931.666 955.901 890.881 955.901 890.881C955.901 884.084 955.477 877.287 955.052 869.64C947.83 797.417 919.365 785.097 919.79 691.208Z" fill="black"/>
<path d="M743.468 669.543C723.925 669.968 663.598 670.392 644.906 670.817C612.618 671.242 588.402 643.203 591.376 611.34C591.801 600.719 591.376 585.85 591.801 575.229C592.651 547.614 617.291 524.248 644.906 525.098L716.703 525.948C722.226 525.948 737.945 526.373 743.468 526.373C766.409 525.948 788.075 542.941 793.173 565.458C794.873 571.83 794.448 578.628 794.448 584.15V620.262C794.023 647.026 770.232 669.968 743.468 669.543ZM743.468 660.196C765.559 661.046 785.951 641.928 786.376 619.837C786.801 608.366 786.376 596.046 786.376 584.15C788.925 558.235 769.383 534.445 743.043 535.294C724.775 535.719 663.598 536.144 644.481 536.569C621.539 536.569 601.997 557.386 603.696 580.327C603.696 583.301 603.696 590.948 603.696 593.922C604.121 603.268 602.847 619.412 604.971 627.909C609.219 645.752 626.213 659.347 644.481 659.347H653.402C665.723 659.347 730.722 660.196 743.468 660.196Z" fill="black"/>
<path d="M914.675 537.419L881.113 537.844C871.767 538.268 860.721 536.569 852.649 542.092C845.002 547.19 841.604 556.536 842.028 565.458C842.028 576.504 842.028 587.974 841.604 599.02L841.179 597.321C847.126 618.138 855.198 638.105 867.519 655.523L863.27 652.974C866.669 653.824 872.617 653.824 876.015 653.824C888.76 654.249 903.63 655.099 916.375 655.099C928.27 655.099 939.741 646.177 942.29 634.282C943.14 630.883 943.14 624.935 943.14 621.536C943.14 603.268 943.564 585.425 942.715 567.157C943.564 551.014 931.244 536.569 914.675 537.419ZM914.675 524.674C937.192 524.674 952.911 546.34 949.087 567.582C948.238 585.85 948.662 603.693 948.662 621.961C950.787 643.203 938.042 662.321 915.95 664.02C906.604 664.445 897.682 664.445 888.76 664.87C884.087 664.87 872.617 665.719 868.368 665.719C866.244 666.144 862.845 665.719 860.721 665.719C859.022 665.719 857.323 664.445 856.473 663.17C843.303 643.628 833.957 621.961 828.434 599.445C828.434 585.001 827.159 570.556 828.434 556.112C830.983 539.118 846.277 524.674 863.695 524.249C875.591 523.824 902.78 524.674 914.675 524.674Z" fill="black"/>
<path d="M789.773 563.759C801.244 558.661 813.989 556.537 826.734 557.386C830.982 557.811 835.231 559.086 839.054 562.484L844.577 567.157C850.1 571.831 843.302 579.903 837.78 575.229C830.982 569.282 822.91 570.131 814.838 570.556C806.767 571.406 799.12 573.105 791.472 576.079C784.25 579.053 779.577 568.432 786.374 565.033C786.374 565.033 789.773 563.759 789.773 563.759Z" fill="black"/>
<path d="M598.596 579.053C595.623 585.85 592.224 586.7 586.701 586.275L574.381 586.7C549.74 586.7 524.675 586.275 500.034 582.451C491.538 582.027 491.113 570.131 499.609 569.706L598.172 566.308C601.145 566.308 603.27 569.281 601.995 571.831L598.596 579.053Z" fill="black"/>
</g>
</svg>
