<svg width="1118" height="1297" viewBox="0 0 1118 1297" fill="none" xmlns="http://www.w3.org/2000/svg">
<path d="M770.772 1250.85C718.023 1177.59 676.751 999.311 671.867 928.49L420.941 820.426L316.541 1250.85H770.772Z" fill="#FC909F" stroke="black" stroke-width="14.6526"/>
<mask id="mask0_262_655" style="mask-type:alpha" maskUnits="userSpaceOnUse" x="316" y="820" width="455" height="431">
<path d="M770.772 1250.85C718.023 1177.59 676.751 999.311 671.867 928.49L420.941 820.426L316.541 1250.85H770.772Z" fill="#FFEDEF"/>
</mask>
<g mask="url(#mask0_262_655)">
<ellipse cx="660.994" cy="813.225" rx="216.126" ry="197.811" fill="black"/>
</g>
<g clip-path="url(#clip0_262_655)">
<path d="M770.877 1214.34C718.127 1141.08 676.856 999.435 671.971 928.614L421.045 820.55L316.645 1214.34H770.877Z" fill="#77311D" stroke="black" stroke-width="14.6526"/>
<mask id="mask1_262_655" style="mask-type:alpha" maskUnits="userSpaceOnUse" x="316" y="820" width="455" height="431">
<path d="M770.877 1250.97C718.127 1177.71 676.856 999.435 671.971 928.614L421.045 820.55L316.645 1250.97H770.877Z" fill="#AC6651"/>
</mask>
<g mask="url(#mask1_262_655)">
<g style="mix-blend-mode:multiply">
<ellipse cx="660.982" cy="813.223" rx="216.126" ry="197.811" fill="black"/>
</g>
</g>
<mask id="path-7-inside-1_262_655" fill="white">
<path fill-rule="evenodd" clip-rule="evenodd" d="M880.357 596.797C880.257 596.372 880.157 595.947 880.055 595.522C879.953 595.097 879.85 594.672 879.747 594.248L819.682 343.552C819.623 343.305 819.565 343.057 819.505 342.81C819.446 342.563 819.387 342.316 819.327 342.07L819.06 340.954L819.054 340.955C781.624 189.136 628.59 95.786 476.297 132.274C324.004 168.762 229.889 321.327 265.322 473.624L265.315 473.626L327.556 733.41L327.607 733.397C366.447 883.237 518.348 974.95 669.519 938.731C820.689 902.511 914.536 751.92 881.256 600.748L881.301 600.737L880.357 596.797Z"/>
</mask>
<path fill-rule="evenodd" clip-rule="evenodd" d="M880.357 596.797C880.257 596.372 880.157 595.947 880.055 595.522C879.953 595.097 879.85 594.672 879.747 594.248L819.682 343.552C819.623 343.305 819.565 343.057 819.505 342.81C819.446 342.563 819.387 342.316 819.327 342.07L819.06 340.954L819.054 340.955C781.624 189.136 628.59 95.786 476.297 132.274C324.004 168.762 229.889 321.327 265.322 473.624L265.315 473.626L327.556 733.41L327.607 733.397C366.447 883.237 518.348 974.95 669.519 938.731C820.689 902.511 914.536 751.92 881.256 600.748L881.301 600.737L880.357 596.797Z" fill="#77311D"/>
<path d="M880.357 596.797L866.093 600.147L866.1 600.179L866.108 600.211L880.357 596.797ZM880.055 595.522L894.304 592.108L894.304 592.107L880.055 595.522ZM879.747 594.248L865.497 597.663L865.505 597.694L865.513 597.726L879.747 594.248ZM819.682 343.552L805.424 346.929L805.428 346.947L805.433 346.966L819.682 343.552ZM819.327 342.07L805.078 345.483L805.082 345.502L805.087 345.521L819.327 342.07ZM819.06 340.954L833.309 337.54L829.9 323.31L815.666 326.7L819.06 340.954ZM819.054 340.955L804.828 344.462L808.307 358.576L822.448 355.209L819.054 340.955ZM476.297 132.274L479.711 146.523L479.711 146.523L476.297 132.274ZM265.322 473.624L268.753 487.87L282.888 484.465L279.593 470.304L265.322 473.624ZM265.315 473.626L261.883 459.381L247.655 462.809L251.065 477.04L265.315 473.626ZM327.556 733.41L313.307 736.824L316.72 751.07L330.967 747.66L327.556 733.41ZM327.607 733.397L341.791 729.721L338.183 715.8L324.197 719.147L327.607 733.397ZM669.519 938.731L666.105 924.481L666.105 924.481L669.519 938.731ZM881.256 600.748L877.843 586.498L863.853 589.849L866.946 603.898L881.256 600.748ZM881.301 600.737L884.715 614.987L898.965 611.573L895.551 597.323L881.301 600.737ZM894.622 593.447C894.517 593.001 894.411 592.555 894.304 592.108L865.806 598.936C865.902 599.339 865.998 599.742 866.093 600.147L894.622 593.447ZM894.304 592.107C894.197 591.661 894.089 591.216 893.981 590.771L865.513 597.726C865.611 598.129 865.709 598.533 865.806 598.936L894.304 592.107ZM805.433 346.966L865.497 597.663L893.996 590.834L833.931 340.138L805.433 346.966ZM833.94 340.174C833.879 339.916 833.817 339.656 833.755 339.396L805.256 346.225C805.312 346.459 805.368 346.693 805.424 346.929L833.94 340.174ZM833.755 339.396C833.693 339.137 833.63 338.877 833.567 338.618L805.087 345.521C805.143 345.755 805.2 345.99 805.256 346.225L833.755 339.396ZM804.81 344.368L805.078 345.483L833.576 338.656L833.309 337.54L804.81 344.368ZM822.448 355.209L822.453 355.208L815.666 326.7L815.661 326.701L822.448 355.209ZM833.281 337.447C793.924 177.813 633.014 79.6587 472.883 118.025L479.711 146.523C624.165 111.913 769.324 200.459 804.828 344.462L833.281 337.447ZM472.883 118.025C312.751 156.391 213.793 316.808 251.05 476.945L279.593 470.304C245.984 325.847 335.256 181.134 479.711 146.523L472.883 118.025ZM268.746 487.871L268.753 487.87L261.89 459.379L261.883 459.381L268.746 487.871ZM341.806 729.996L279.564 470.212L251.065 477.04L313.307 736.824L341.806 729.996ZM324.197 719.147L324.146 719.159L330.967 747.66L331.018 747.648L324.197 719.147ZM313.423 737.074C354.264 894.631 513.981 991.063 672.933 952.98L666.105 924.481C522.716 958.836 378.631 871.844 341.791 729.721L313.423 737.074ZM672.933 952.98C831.885 914.896 930.56 756.556 895.566 597.598L866.946 603.898C898.512 747.285 809.494 890.126 666.105 924.481L672.933 952.98ZM877.888 586.488L877.843 586.498L884.67 614.997L884.715 614.987L877.888 586.488ZM866.108 600.211L867.052 604.151L895.551 597.323L894.607 593.382L866.108 600.211Z" fill="black" mask="url(#path-7-inside-1_262_655)"/>
</g>
<path d="M631.68 691.226C646.943 682.679 708.606 671.811 708.606 696.721C708.606 727.858 666.48 726.026 666.48 726.026C666.48 726.026 714.265 714.447 704.943 748.005C695.785 780.974 670.143 768.152 662.817 764.489" stroke="black" stroke-width="14.6526"/>
<path d="M606.046 205.136C659.772 202.694 754.037 172.901 701.288 73.2627" stroke="black" stroke-width="14.6526"/>
<path d="M510.804 197.81C564.53 195.368 658.795 165.574 606.046 65.9365" stroke="black" stroke-width="14.6526"/>
<path d="M378.93 238.105C432.656 235.663 526.921 205.869 474.172 106.231" stroke="black" stroke-width="14.6526"/>
<path d="M679.309 370.766C700.067 360.998 748.909 352.084 778.214 394.577" stroke="#FC909F" stroke-width="14.6526" stroke-linecap="round"/>
<path d="M403.03 463.468C410.615 441.817 438.497 400.736 489.344 409.625" stroke="#FC909F" stroke-width="14.6526" stroke-linecap="round"/>
<path d="M412.17 441.258L389.647 421.38" stroke="#FC909F" stroke-width="14.6526" stroke-linecap="round"/>
<path d="M767.082 374.219L789.604 354.341" stroke="#FC909F" stroke-width="14.6526" stroke-linecap="round"/>
<path d="M435.794 420.585L420.97 394.457" stroke="#FC909F" stroke-width="14.6526" stroke-linecap="round"/>
<path d="M739.794 360.873L754.618 334.745" stroke="#FC909F" stroke-width="14.6526" stroke-linecap="round"/>
<path d="M465.378 407.347L457.316 378.409" stroke="#FC909F" stroke-width="14.6526" stroke-linecap="round"/>
<path d="M706.547 358.624L714.61 329.687" stroke="#FC909F" stroke-width="14.6526" stroke-linecap="round"/>
<path d="M531.017 484.938C537.822 508.242 512.563 490.35 489.259 497.155C465.956 503.961 453.432 532.888 446.626 509.584C439.82 486.28 453.195 461.872 476.499 455.066C499.802 448.26 524.211 461.635 531.017 484.938Z" fill="#6BD9E9"/>
<path d="M764.694 451.264C770.683 474.791 747.501 456.833 723.974 462.821C700.447 468.809 685.483 496.476 679.495 472.949C673.507 449.422 687.725 425.495 711.252 419.507C734.779 413.519 758.706 427.737 764.694 451.264Z" fill="#6BD9E9"/>
<path fill-rule="evenodd" clip-rule="evenodd" d="M453.409 520.52C453.828 523.498 457.613 524.161 459.717 522.013C468.747 512.797 482.63 506.026 498.746 504.111C508.25 502.982 517.396 503.677 525.544 505.841C528.306 506.574 531.021 504.243 530.056 501.553C523.956 484.536 506.737 473.35 488.022 475.574C466.258 478.16 450.712 497.899 453.298 519.663C453.332 519.95 453.369 520.235 453.409 520.52Z" fill="black"/>
<path fill-rule="evenodd" clip-rule="evenodd" d="M688.211 483.886C688.625 486.865 692.41 487.53 694.517 485.385C703.464 476.279 717.198 469.591 733.135 467.697C742.529 466.581 751.568 467.264 759.625 469.395C762.388 470.126 765.102 467.794 764.134 465.105C758.072 448.279 741.031 437.225 722.511 439.426C700.95 441.988 685.549 461.543 688.111 483.104C688.142 483.366 688.175 483.627 688.211 483.886Z" fill="black"/>
<path d="M623.553 520.058C624.299 534.134 629.773 564.314 645.711 572.432C665.633 582.579 650.015 616.217 612.72 614.06" stroke="black" stroke-width="14.6526"/>
<path d="M42.4952 1145.52C41.9349 1144.09 41.1656 1142.07 40.2316 1139.52C38.1545 1133.83 35.2643 1125.47 32.0472 1114.83C25.6109 1093.54 17.8783 1063.18 12.7236 1027C2.404 954.551 2.47953 859.203 43.4811 766.48C50.1085 751.493 58.3905 736.095 67.3667 719.407C102.049 654.928 147.094 571.183 147.094 417.382C147.094 305.324 201.484 210.951 281.559 144.423C361.706 77.8352 467.271 39.4433 568.657 39.4434C624.085 39.4434 668.647 45.7935 704.464 67.4304C740.06 88.9335 768.087 126.212 788.904 190.443C791.023 196.981 798.022 200.976 804.864 198.756C846.316 185.308 909.163 198.883 962.212 233.516C1015.03 267.996 1056.05 322 1056.05 387.089C1056.05 443.596 1046.37 481.78 1036.93 518.965C1025.51 563.982 1014.48 607.464 1022.26 678.304C1024.86 701.929 1030.14 718.683 1037.52 732.574C1044.78 746.241 1053.93 756.822 1063.58 767.974L1063.8 768.228C1086.78 794.796 1097.24 816.649 1100.62 835.874C1103.98 855.051 1100.46 872.444 1093.9 890.489C1090.61 899.557 1086.6 908.658 1082.35 918.251L1081.99 919.079C1077.88 928.356 1073.58 938.069 1069.71 948.291C1061.72 969.431 1055.48 993.008 1056.1 1020.95C1056.62 1044.67 1060.83 1060.93 1067.12 1073.23C1073.34 1085.39 1081.36 1093.17 1088.36 1099.95L1088.55 1100.13C1094.94 1106.32 1100.25 1111.53 1104.18 1118.83C1107.69 1125.35 1110.3 1133.96 1110.73 1146.89C1022.78 1199.2 935.737 1220.82 870.371 1229.32C837.27 1233.63 809.765 1234.57 790.576 1234.43C780.982 1234.36 773.471 1234.03 768.384 1233.71C766.594 1233.6 765.105 1233.49 763.93 1233.4C741.399 1199.01 720.871 1142.27 704.965 1083.98C689.5 1027.32 678.642 970.093 674.56 932.295C810.364 893.031 895.487 752.867 875.022 608.253C875.001 608.042 874.979 607.883 874.97 607.825L874.967 607.8C874.936 607.582 874.897 607.332 874.854 607.073C874.768 606.548 874.645 605.846 874.49 604.993C874.178 603.28 873.72 600.864 873.126 597.838C871.936 591.781 870.189 583.23 867.955 572.876C863.487 552.173 857.058 524.219 849.213 494.568C841.374 464.935 832.093 433.503 821.91 405.883C811.802 378.464 800.55 354.074 788.545 339.07L787.459 337.713L785.865 337.021C778.785 333.951 771.437 330.529 763.766 326.958C727.387 310.019 683.761 289.707 627.262 287.472C558.486 284.752 471.39 308.63 353.656 394.018L346.247 399.391L353.374 405.135C411.714 452.148 424.327 514.506 421.631 567.442C419.574 607.841 408.628 642.209 402.453 659.388C398.198 653.173 395.489 645.359 393.452 636.184C392.043 629.841 391.016 623.157 389.94 616.158L389.77 615.05C388.646 607.745 387.448 600.124 385.703 592.765C382.217 578.072 376.323 563.386 363.24 552.987C350.127 542.564 331.018 537.401 303.189 538.954L295.03 539.41L296.733 547.402L338.342 742.696L338.411 743.024L338.512 743.343C353.377 790.459 378.867 831.299 411.457 863.54C411.735 864.004 412.14 864.687 412.655 865.569C413.715 867.381 415.241 870.034 417.089 873.367C420.788 880.038 425.764 889.408 430.866 900.194C441.174 921.985 451.6 948.738 453.609 970.584C455.647 992.755 450.073 1021.36 443.691 1044.99C440.533 1056.68 437.238 1066.94 434.734 1074.27C434.213 1075.8 433.726 1077.2 433.282 1078.45C414.847 1069.64 398.383 1070.3 384.273 1078.51C369.021 1087.39 357.851 1104.38 349.535 1123.26C334.339 1157.77 327.031 1202.53 323.659 1230.31C232.554 1209.41 162.208 1188.19 114.345 1172.08C89.7517 1163.79 71.0947 1156.86 58.608 1152C52.3646 1149.57 47.6638 1147.67 44.535 1146.37C43.7579 1146.05 43.0779 1145.76 42.4952 1145.52Z" fill="#FC909F" stroke="black" stroke-width="14"/>
<path d="M333.133 546.455C324.598 543.644 315.384 542.148 305.953 542.148C267.514 542.148 236.353 565.959 240.016 609.917C243.831 655.706 271.177 672.191 309.616 672.191C313.893 672.191 318.08 671.815 322.144 671.096C326.578 670.311 330.866 669.117 334.965 667.556" stroke="black" stroke-width="29.3053"/>
<path d="M336.796 666.828C328.446 670.281 319.26 672.191 309.616 672.191C271.177 672.191 243.831 655.706 240.016 609.917C236.353 565.959 267.514 542.148 305.953 542.148C317.446 542.148 328.615 544.37 338.628 548.484L336.796 666.828Z" fill="#77311D"/>
<path d="M322.144 573.287C307.491 566.572 275.255 563.03 263.533 602.593" stroke="black" stroke-width="14.6526"/>
<path d="M283.681 575.117C291.618 581.833 306.759 602.591 303.828 631.896" stroke="black" stroke-width="14.6526"/>
<path d="M320.312 652.044C368.866 652.044 408.228 691.405 408.228 739.96C408.228 788.514 368.866 827.876 320.312 827.876C271.757 827.876 232.396 788.514 232.396 739.96C232.396 716.548 245.217 697.833 256.468 679.518L259.87 674.023" stroke="#F4D150" stroke-width="14.6526"/>
<path d="M1061.61 1288.93H61.8948C62.0211 1288.68 62.1483 1288.42 62.2764 1288.16C78.9246 1254.25 109.639 1191.7 149.614 1135.73C172.302 1103.97 197.703 1074.73 224.851 1054.16C252.004 1033.59 280.238 1022.17 308.921 1024.68C364.068 1029.51 413.187 1059.7 462.499 1090.01C467.172 1092.89 471.846 1095.76 476.527 1098.61C529.587 1130.95 584.075 1160.97 644.001 1147.83C664.275 1143.39 677.938 1133.88 686.537 1121.59C695.014 1109.47 698.06 1095.39 698.587 1082.53C699.115 1069.64 697.14 1057.46 695.089 1048.61C694.13 1044.46 693.141 1040.99 692.351 1038.45C705.63 1025.08 719.689 1017.3 734.205 1013.79C749.937 1010 766.759 1011.09 784.455 1016.33C820.096 1026.87 858.231 1053.88 895.448 1088.62C963.635 1152.26 1026.2 1239.33 1061.61 1288.93Z" fill="white" stroke="black" stroke-width="15.6575"/>
<defs>
<clipPath id="clip0_262_655">
<rect width="732.632" height="1172.21" fill="white" transform="translate(206.75 43.96)"/>
</clipPath>
</defs>
</svg>
