<svg width="1300" height="1300" viewBox="0 0 1300 1300" fill="none" xmlns="http://www.w3.org/2000/svg">
<mask id="mask0_610_1263" style="mask-type:alpha" maskUnits="userSpaceOnUse" x="0" y="0" width="1296" height="1296">
<circle cx="647.869" cy="647.869" r="647.869" fill="#D9D9D9"/>
</mask>
<g mask="url(#mask0_610_1263)">
<path d="M1003.04 1182.75C1000.07 1184.87 996.669 1186.99 993.695 1189.12C990.296 1191.24 987.322 1193.37 983.923 1195.07C980.95 1196.76 978.401 1198.46 975.427 1200.16C975.002 1200.59 974.577 1200.59 974.152 1201.01C964.381 1206.96 954.185 1212.48 943.989 1217.58C941.015 1219.28 937.616 1220.98 934.642 1222.26C934.642 1222.26 934.218 1222.68 933.793 1222.68C930.394 1224.38 926.995 1226.08 923.597 1227.78C916.799 1231.18 909.577 1234.15 902.78 1237.12C899.381 1238.82 895.557 1240.1 892.159 1241.37C888.76 1242.65 884.937 1244.35 881.538 1245.62C878.139 1246.9 874.316 1248.59 870.917 1249.87C870.917 1249.87 870.917 1249.87 870.492 1249.87C867.093 1251.14 863.27 1252.42 859.871 1253.69C852.224 1256.24 844.152 1258.79 836.505 1261.34C833.956 1262.19 830.982 1263.04 828.433 1263.89C820.361 1266.44 812.29 1268.56 804.218 1270.26C801.244 1271.11 798.27 1271.54 794.871 1272.39C787.224 1274.09 779.152 1275.78 771.505 1277.48C769.806 1277.91 768.531 1277.91 766.832 1278.33C764.283 1278.76 761.309 1279.18 758.76 1279.61C754.937 1280.03 751.538 1280.88 747.714 1281.31C746.015 1281.73 744.316 1281.73 742.616 1282.16C740.492 1282.58 737.943 1283.01 735.394 1283.01C728.597 1283.86 721.374 1284.71 714.577 1285.56C712.453 1285.98 709.904 1285.98 707.78 1286.41H707.355C704.381 1286.83 701.407 1286.83 698.433 1287.25C695.459 1287.68 692.486 1287.68 689.512 1287.68C687.812 1287.68 685.688 1288.1 683.989 1288.1C680.59 1288.1 677.616 1288.53 674.642 1288.53C670.394 1288.53 666.571 1288.95 662.322 1288.95C658.074 1288.95 654.25 1288.95 650.002 1288.95C647.028 1288.95 644.054 1288.95 641.08 1288.95C461.799 1286.41 300.786 1210.36 185.656 1089.71C185.656 1089.71 185.656 1089.28 185.231 1089.28C172.486 1077.81 183.531 1016.63 234.937 977.974C299.512 929.118 454.152 898.53 454.152 898.53C454.152 898.53 514.054 888.758 736.244 935.066C866.244 962.255 965.231 1001.76 1020.46 1108.82C1031.93 1130.92 1043.4 1164.9 1003.04 1182.75Z" fill="white"/>
<path d="M737.518 930.392C819.087 946.961 906.178 964.804 973.302 1018.76C995.819 1037.03 1010.69 1063.79 1023.01 1089.71C1028.96 1102.45 1034.9 1115.62 1039.58 1129.64C1042.13 1138.99 1045.95 1149.61 1043.83 1160.65C1043.4 1163.63 1040.85 1167.45 1038.73 1169.58C1028.96 1179.35 1018.34 1185.29 1007.71 1192.94C945.263 1236.27 873.466 1266.86 799.119 1283.01C633.433 1319.12 454.152 1291.08 308.433 1203.99C260.002 1174.67 215.394 1138.99 177.159 1096.93C172.91 1091.83 172.91 1083.33 172.91 1077.81C173.335 1065.07 176.734 1052.75 180.982 1041.27C191.178 1014.93 204.348 988.595 226.864 970.327C243.008 959.281 260.427 949.935 278.27 942.288C334.348 918.497 393.4 901.928 454.152 895.131C459.25 894.706 460.1 901.928 455.002 902.778C396.799 914.673 339.021 932.516 285.067 956.732C265.525 966.503 244.708 975 228.989 990.294C214.119 1006.44 203.498 1026.41 195.002 1046.8C189.479 1059.12 185.655 1078.66 187.355 1088.43C214.119 1120.29 245.557 1148.33 279.544 1172.55C465.623 1302.55 748.139 1311.05 946.113 1202.71C963.956 1192.94 981.374 1181.9 997.943 1170.42C1006.01 1164.9 1014.51 1160.23 1020.88 1153.86C1021.31 1153.43 1020.88 1153.86 1020.88 1154.28C1020.88 1154.71 1020.46 1155.13 1020.46 1155.13C1020.88 1150.03 1019.18 1143.24 1017.06 1136.44C1009.41 1111.8 997.093 1085.88 983.923 1063.37C963.106 1029.8 927.845 1008.56 892.159 991.569C867.518 980.098 841.603 971.177 815.263 962.68C788.923 954.183 762.159 946.961 735.394 940.588C728.597 938.889 730.721 929.118 737.518 930.392Z" fill="black"/>
<path d="M1144.09 1446.14H69.6738C69.6738 1446.14 82.4189 1260.91 146.994 1120.29C169.935 1070.59 187.778 998.366 229.837 965.653C278.269 928.268 373.857 904.902 407.844 898.104C432.909 893.006 436.308 897.68 453.726 893.006C453.726 895.131 454.151 896.83 454.151 898.954C454.151 898.954 500.033 1035.33 619.412 1083.76C716.7 1123.27 774.478 1096.93 783.399 1053.17C788.922 1025.13 771.504 979.248 762.582 964.379C757.484 960.131 754.086 953.758 752.386 947.385L748.988 933.366C757.059 931.666 764.707 929.542 772.354 926.993C774.903 926.144 777.027 925.294 779.576 924.444C841.177 941.863 915.948 973.3 981.373 1023.01C1017.06 1050.2 1046.8 1120.29 1083.33 1238.82C1126.24 1375.2 1144.09 1446.14 1144.09 1446.14Z" fill="black"/>
<path d="M818.238 1031.08C816.964 1019.18 814.839 1008.56 812.715 999.215C803.794 957.581 777.029 921.046 777.029 921.046C777.029 921.046 709.905 874.738 606.245 862.418C502.584 850.098 452.029 862.418 452.029 862.418C444.382 864.967 435.035 870.065 426.539 874.738C411.245 883.66 398.924 896.405 391.277 912.124C391.277 912.549 390.852 912.549 390.852 912.974C379.807 944.836 436.735 1062.52 583.303 1128.37C734.545 1196.34 828.434 1116.9 818.238 1031.08Z" fill="black"/>
<path d="M280.395 1693.83C274.872 1569.35 272.323 1438.07 270.624 1313.17C269.774 1264.74 267.65 1215.88 279.546 1168.3C297.814 1088.86 353.042 1014.51 432.062 988.596L429.088 991.57C438.01 969.054 447.781 943.988 469.448 930.818C470.297 930.394 470.722 931.668 470.297 932.093C455.428 942.289 447.356 959.707 440.559 976.276C438.01 981.799 436.735 988.596 434.186 993.694C404.448 1004.74 378.108 1023.86 356.441 1046.37C334.774 1069.32 317.356 1096.5 305.886 1125.82C291.016 1162.78 284.644 1202.29 283.369 1241.8C282.519 1390.92 286.768 1548.53 280.395 1693.83Z" fill="white"/>
<path d="M469.446 1693.82C460.949 1616.08 455.851 1536.21 455.001 1458.04C454.152 1386.24 456.276 1312.32 464.773 1240.95C469.446 1199.31 484.315 1104.15 515.328 1076.54L518.727 1073.99C520.851 1073.14 521.276 1072.29 524.25 1071.86L520.001 1076.11C522.126 1059.97 528.073 1044.67 536.57 1031.08C539.544 1026.83 542.518 1022.58 545.916 1018.33C546.341 1017.91 547.616 1018.33 546.766 1019.18C543.792 1023.43 540.818 1027.68 538.694 1032.35C531.472 1045.95 526.374 1060.82 525.099 1076.11C525.099 1076.54 524.675 1076.54 524.675 1076.96C522.126 1077.81 519.152 1079.93 517.027 1082.48C510.655 1089.28 506.407 1099.05 502.583 1107.55C496.635 1122.42 492.387 1138.56 488.988 1154.71C480.492 1195.91 475.818 1239.25 472.42 1281.31C467.746 1351.83 466.047 1426.6 466.047 1497.12L466.472 1536.63C466.472 1588.89 469.021 1641.57 470.295 1693.82C470.72 1694.25 469.446 1694.67 469.446 1693.82Z" fill="white"/>
<path d="M644.052 1693.82C644.477 1564.25 638.954 1434.25 638.529 1304.67C638.105 1246.05 638.105 1185.72 639.379 1127.09C643.203 1111.8 646.176 1095.65 647.451 1079.51C647.876 1074.41 647.876 1068.89 647.451 1063.37C647.451 1062.52 648.726 1062.52 648.726 1063.37C652.124 1084.61 649.575 1106.27 645.327 1127.52C647.026 1173.82 648.726 1221.83 649.575 1268.99C652.549 1375.2 653.399 1481.41 650.85 1587.61C650.425 1608.01 649.15 1638.17 647.876 1658.56C647.026 1670.46 645.752 1681.93 644.902 1693.82C644.902 1694.25 644.477 1694.25 644.052 1694.25C644.052 1694.25 644.052 1693.82 644.052 1693.82Z" fill="white"/>
<path d="M842.876 1693.82C839.052 1595.69 836.503 1492.88 828.006 1395.16C822.908 1333.14 814.836 1271.96 802.941 1211.21C795.719 1174.67 786.372 1137.71 771.503 1103.3C768.954 1083.76 762.581 1062.52 747.287 1048.92C746.863 1048.5 746.863 1048.07 747.287 1048.07C747.712 1047.65 747.712 1047.65 748.137 1048.07C752.385 1051.05 756.209 1054.87 759.608 1059.12C768.954 1071.44 774.902 1088.43 777.026 1102.45C794.444 1136.01 804.215 1172.55 813.137 1209.08C818.66 1232.88 823.758 1258.79 827.582 1282.58C833.104 1316.57 838.202 1359.9 840.751 1394.31C842.876 1415.13 844.15 1447.84 845.425 1469.08C847.124 1519.22 847.549 1568.92 846.699 1619.05L844.575 1693.82C844.575 1694.25 844.15 1694.25 843.725 1694.25C843.301 1694.25 842.876 1693.82 842.876 1693.82Z" fill="white"/>
<path d="M1002.61 1693.4C1013.23 1576.99 1008.99 1458.89 992.418 1343.33C988.169 1313.17 981.797 1281.73 975 1251.99C966.928 1222.68 957.156 1192.94 943.986 1165.75C934.64 1144.93 922.32 1124.97 910 1105.85C893.006 1081.63 871.339 1056.57 847.973 1038.3C836.078 1028.53 823.333 1019.18 809.738 1012.39C802.941 1003.46 798.692 994.542 788.921 986.046C781.274 978.823 771.928 972.876 761.307 972.451C760.882 972.451 760.457 972.026 760.457 971.601C760.457 971.176 760.882 971.176 760.882 971.176C766.405 970.752 771.928 972.451 777.026 974.575C791.895 981.797 802.941 994.967 811.862 1008.56C870.915 1036.18 917.647 1092.25 948.66 1150.03C960.98 1174.67 972.026 1200.16 979.673 1226.5L986.47 1249.02C1006.86 1333.14 1014.93 1419.8 1016.21 1506.05C1016.63 1568.92 1013.23 1631.8 1003.46 1693.82C1003.46 1694.25 1003.04 1694.25 1002.61 1694.25C1002.61 1694.25 1002.61 1693.82 1002.61 1693.4Z" fill="white"/>
<path d="M811.44 1204.84C870.917 1206.96 915.1 1187.84 921.897 1123.69C922.322 1118.59 926.145 1114.77 930.819 1113.92C956.734 1107.55 974.152 1084.61 979.25 1058.69C980.524 1054.44 980.949 1048.92 981.799 1044.67C982.224 1040 982.649 1034.9 983.073 1029.8C983.073 1029.38 983.498 1029.38 983.923 1029.38C984.348 1029.38 984.348 1029.8 984.348 1029.8C985.198 1038.73 986.047 1050.62 985.198 1059.54C983.498 1089.71 963.531 1118.17 933.368 1126.24L934.217 1125.39C930.819 1172.55 901.93 1206.96 853.498 1209.93C839.479 1211.21 825.034 1209.93 811.015 1206.54C810.59 1206.54 810.59 1206.11 810.59 1205.69C810.59 1204.84 811.015 1204.84 811.44 1204.84Z" fill="white"/>
<path d="M217.942 1008.99C222.615 1033.2 236.634 1056.99 257.876 1069.74C259.576 1071.01 263.399 1072.71 265.098 1073.99C268.922 1075.69 273.17 1077.39 276.994 1078.66L285.066 1080.78C287.19 1081.63 291.013 1082.06 293.562 1082.48L302.059 1083.76C310.556 1085.03 323.726 1080.36 327.974 1090.13C356.013 1149.61 410.817 1194.64 479.641 1181.47C483.889 1181.05 488.138 1182.74 489.837 1186.57C493.661 1192.52 498.759 1198.89 503.432 1204.41C527.647 1233.3 564.183 1254.54 602.843 1246.47C618.138 1243.5 633.007 1237.12 646.602 1228.63C647.027 1228.2 647.451 1228.63 647.451 1228.63C587.549 1278.33 520.425 1251.99 479.641 1192.52L480.915 1192.94C463.922 1195.91 446.504 1196.76 429.085 1193.37C378.105 1184.02 339.02 1140.69 318.628 1093.53L319.477 1093.95C310.556 1093.53 300.785 1093.1 291.863 1090.98C289.314 1090.56 285.066 1089.71 282.942 1088.86C277.843 1087.58 270.196 1084.61 265.523 1082.06L261.275 1079.93L257.451 1077.39C255.752 1076.11 251.504 1073.99 249.804 1072.29C230.262 1056.99 218.791 1032.78 216.242 1008.56C216.242 1008.14 216.667 1007.71 216.667 1007.71C217.942 1008.56 217.942 1008.56 217.942 1008.99Z" fill="white"/>
<path d="M796.995 1153.43C847.975 1139.84 873.04 1110.1 865.393 1056.57C864.968 1053.17 865.818 1049.77 867.942 1047.65C881.962 1031.08 885.785 1008.56 883.661 987.32C883.236 980.523 880.687 970.752 879.413 963.954C879.413 963.529 879.413 963.104 879.838 963.104C880.262 963.104 880.262 963.105 880.687 963.529C884.086 970.752 887.485 978.399 889.609 986.046C893.857 1001.76 893.857 1018.76 888.759 1034.05C886.21 1041.7 882.387 1049.35 877.289 1055.72L877.713 1054.87C884.936 1093.1 872.191 1132.61 833.53 1147.48C822.06 1152.16 809.74 1154.71 797.419 1155.13C796.145 1154.71 796.145 1153.43 796.995 1153.43Z" fill="white"/>
<path d="M316.928 944.411C310.131 966.503 317.778 991.143 334.347 1006.86L336.471 1009.41L339.02 1011.54C344.118 1015.78 350.066 1019.61 355.588 1023.43L367.484 1029.8C370.033 1031.08 371.732 1033.63 372.157 1036.6C380.654 1068.46 406.569 1093.53 435.883 1107.12C454.575 1116.89 474.968 1121.57 495.36 1125.39C501.307 1126.67 503.007 1132.19 507.255 1136.01C511.928 1140.69 517.026 1145.36 522.124 1149.61C553.138 1175.95 594.772 1189.97 635.556 1184.44L646.177 1183.17C646.602 1183.17 647.026 1183.17 647.026 1183.59C647.026 1184.02 647.026 1184.02 646.602 1184.44C605.392 1197.19 559.935 1189.12 524.249 1164.48C513.628 1157.25 498.758 1144.93 492.811 1136.86C464.347 1132.19 435.458 1123.69 411.667 1107.12C388.726 1091.83 366.209 1062.94 363.236 1037.88C356.013 1033.63 345.392 1026.83 339.02 1021.73C337.745 1020.88 332.222 1015.36 330.948 1014.08C328.824 1011.54 325.85 1008.56 324.151 1005.59C311.405 987.745 307.157 963.529 316.079 943.137C316.079 942.712 316.504 942.712 316.928 942.712C317.353 943.562 317.353 943.986 316.928 944.411Z" fill="white"/>
<path d="M391.276 912.549C390.426 932.091 397.649 951.634 410.394 966.078C412.943 969.477 417.191 973.301 420.59 976.274C421.864 977.124 426.113 980.523 427.387 981.372C431.636 984.771 439.283 986.47 439.707 992.418C440.982 1001.76 445.655 1011.54 451.178 1019.18C468.596 1044.67 498.76 1058.27 528.073 1066.76C530.622 1067.61 532.322 1068.89 533.596 1071.01C559.511 1103.73 602.42 1120.72 643.629 1116.47C650.851 1116.9 657.224 1120.72 664.871 1121.99C681.015 1126.24 698.858 1128.37 715.426 1127.09C737.518 1126.24 757.91 1116.9 768.956 1097.78C771.08 1094.8 774.054 1094.38 776.603 1092.25C788.498 1084.18 798.27 1073.14 804.217 1059.97C811.864 1044.25 810.165 1026.41 805.917 1010.26C806.766 1003.46 808.041 995.817 807.616 988.17C807.191 966.928 798.694 946.111 785.1 929.542C784.25 929.118 785.524 927.843 785.949 928.693C807.191 949.51 816.962 980.523 812.714 1009.84C826.309 1045.1 810.59 1083.76 777.453 1104.15C767.256 1124.12 740.492 1138.14 716.701 1138.99C693.335 1141.11 665.296 1136.01 645.328 1129.22C599.871 1133.89 552.289 1114.35 524.675 1077.39L525.1 1077.81C515.753 1074.84 503.008 1070.16 494.511 1065.91C492.387 1064.64 485.59 1061.24 483.466 1059.97C480.917 1058.27 475.394 1054.87 473.27 1053.17L466.897 1048.07C449.904 1034.05 436.309 1014.93 433.335 992.843L433.76 993.693C430.361 991.144 426.962 989.019 423.988 986.47L419.315 982.647L417.191 980.523C415.067 978.399 412.943 975.85 410.819 974.15C406.995 969.477 403.171 964.379 400.198 959.281C392.551 945.261 388.727 928.693 390.851 912.549C390.851 912.124 391.276 912.124 391.701 912.124C390.851 912.124 391.276 912.124 391.276 912.549Z" fill="white"/>
<path d="M755.068 1180.47C755.21 1168.27 745.625 1158.27 733.66 1158.13C721.696 1157.99 711.881 1167.77 711.739 1179.96C711.597 1192.16 721.182 1202.17 733.147 1202.31C745.112 1202.45 754.926 1192.67 755.068 1180.47Z" fill="white"/>
<path d="M779.998 1237.97C782.972 1260.49 768.102 1281.31 746.861 1283.85C725.619 1286.4 706.076 1270.68 703.102 1247.74C700.128 1225.23 713.723 1194.21 734.965 1191.24C756.207 1188.69 777.024 1215.03 779.998 1237.97Z" fill="white"/>
<path d="M724.769 1210.78C713.723 1219.7 683.984 1220.55 672.089 1212.06C657.22 1200.59 672.939 1162.78 683.135 1150.88C683.559 1150.46 684.409 1150.46 684.409 1151.31L680.586 1175.95C679.736 1184.02 678.037 1192.51 678.886 1200.16C678.886 1201.86 680.586 1202.71 682.285 1203.14C693.756 1207.38 706.076 1208.66 718.396 1209.93C720.095 1209.93 723.069 1210.36 724.344 1209.51C724.344 1209.93 724.769 1210.36 724.769 1210.78Z" fill="white"/>
<path d="M721.371 1235.85C705.228 1247.32 687.384 1252.42 667.417 1250.29C666.143 1250.29 663.594 1249.44 662.319 1249.02C641.927 1242.22 635.129 1217.16 639.378 1198.04C639.378 1197.19 640.228 1196.76 640.652 1197.61C645.326 1212.48 651.698 1234.15 669.116 1237.12C677.613 1238.4 686.535 1237.97 695.031 1237.12C703.528 1236.27 712.45 1235.42 720.946 1233.72C721.796 1234.15 722.221 1235 721.371 1235.85C721.371 1235.85 721.796 1235.42 721.371 1235.85Z" fill="white"/>
<path d="M715.424 1256.67C706.078 1260.91 697.581 1264.31 690.784 1268.56C685.686 1271.96 682.287 1274.51 680.163 1280.03C677.614 1286.83 678.039 1294.9 678.464 1304.25C679.313 1312.74 680.588 1322.09 681.013 1332.29C681.013 1332.71 680.163 1333.14 679.738 1332.71C666.143 1311.04 653.823 1269.41 686.96 1259.21C695.882 1256.24 705.653 1255.39 715 1255.82C716.274 1255.39 716.274 1256.67 715.424 1256.67Z" fill="white"/>
<path d="M726.045 1270.26C724.346 1281.31 720.097 1288.95 723.496 1297.45C729.444 1309.77 734.542 1322.51 734.542 1337.38C734.542 1337.81 733.692 1338.23 733.692 1337.81C729.869 1332.71 726.045 1327.19 722.222 1321.66C717.548 1313.17 710.326 1304.67 710.326 1294.48C710.751 1284.28 717.548 1275.36 724.771 1268.99C726.045 1268.56 726.47 1269.41 726.045 1270.26Z" fill="white"/>
<path d="M750.259 1206.53C752.383 1204.41 757.057 1200.59 759.606 1198.46C766.403 1192.94 775.749 1186.99 782.547 1181.47C782.972 1181.04 783.397 1180.62 782.972 1181.47C782.547 1181.89 782.122 1182.74 781.697 1183.59C781.272 1184.87 780.847 1185.72 781.272 1186.99C777.449 1171.7 772.776 1156.83 773.625 1140.26V1139.84C773.625 1139.41 774.475 1138.99 774.9 1139.41C780.423 1150.46 785.946 1161.93 790.194 1173.4C791.893 1177.65 794.017 1182.32 794.017 1187.42C793.593 1189.54 791.893 1190.39 790.619 1191.67C785.521 1195.49 779.573 1198.04 774.05 1200.59C771.076 1201.86 748.985 1211.21 749.834 1206.96C749.834 1206.53 750.259 1206.53 750.259 1206.53Z" fill="white"/>
<path d="M759.18 1229.48C774.475 1219.7 792.318 1215.46 807.612 1209.08C811.86 1206.53 813.984 1202.29 816.533 1197.19C820.357 1190.39 823.331 1181.89 827.579 1172.97C827.579 1172.55 828.004 1172.55 828.429 1172.55C829.703 1185.72 828.004 1200.16 821.207 1212.06C813.984 1224.38 797.841 1225.23 785.096 1227.78C776.174 1229.05 767.677 1230.33 758.756 1230.75C758.331 1230.75 758.331 1229.9 759.18 1229.48Z" fill="white"/>
<path d="M769.801 1248.17C802.938 1220.55 843.298 1242.22 836.076 1285.55C834.376 1295.75 830.553 1305.52 823.331 1313.59C822.906 1314.02 822.056 1313.59 822.056 1313.17C823.331 1308.49 824.18 1304.25 824.605 1299.57C828.853 1268.14 820.782 1241.37 783.396 1246.89C778.723 1247.32 774.049 1248.17 769.801 1249.44C769.376 1249.87 768.951 1248.59 769.801 1248.17Z" fill="white"/>
<path d="M763.855 1264.31C778.724 1262.61 794.868 1274.08 795.293 1290.65C794.443 1307.65 786.796 1322.94 772.776 1333.14C772.351 1333.56 771.502 1333.56 771.502 1332.71C775.75 1320.39 779.999 1308.07 782.123 1295.33C783.822 1288.95 782.123 1283 777.874 1277.91C774.051 1273.23 768.953 1268.99 763.43 1265.59C762.58 1264.74 763.005 1263.89 763.855 1264.31Z" fill="white"/>
<path d="M777.447 1043.4C768.525 1087.16 710.748 1113.5 613.46 1073.99C512.349 1033.2 468.591 935.915 457.545 907.027C517.447 794.87 475.813 717.125 475.813 717.125C613.885 705.229 734.538 866.667 734.538 866.667L753.231 946.536C754.931 953.334 758.329 959.281 763.427 963.53C772.349 979.249 782.97 1015.36 777.447 1043.4Z" fill="white"/>
<path d="M455.423 908.301C463.495 895.981 468.593 881.536 471.992 867.517C478.364 838.203 480.489 808.465 480.913 778.726V767.68C479.639 756.634 475.815 745.164 471.567 734.968C466.044 721.373 486.011 712.876 492.384 726.471C493.234 728.17 493.234 731.144 493.234 732.844C494.508 790.621 497.057 864.968 460.521 912.974C457.972 915.523 452.874 911.7 455.423 908.301Z" fill="black"/>
<path d="M739.212 865.818C745.585 869.641 747.709 874.739 748.559 879.837C751.108 890.033 750.258 901.079 752.807 911.7C754.931 921.896 761.304 931.667 763.003 942.288C765.128 953.334 771.5 976.7 774.049 988.171C774.899 990.72 773.199 993.693 770.226 994.118C768.526 994.543 767.252 994.118 765.977 993.269C760.454 988.595 757.905 983.922 754.507 977.974C748.984 967.778 745.16 958.432 741.762 946.961C738.788 936.765 740.062 925.72 737.513 915.099C735.389 904.903 729.441 895.131 727.317 884.51C726.043 879.412 725.618 873.89 729.441 867.517C731.99 864.968 736.239 864.118 739.212 865.818Z" fill="black"/>
<path d="M769.802 977.974C688.658 973.726 622.384 948.236 557.809 833.105C612.188 881.112 676.338 899.379 743.887 907.876L752.809 946.961C754.508 953.759 764.704 973.726 769.802 977.974Z" fill="black"/>
<path d="M766.404 962.255C780.849 989.445 789.346 1023.43 780.424 1053.6C773.627 1074.84 754.084 1090.56 732.842 1096.5C683.561 1109.67 626.633 1088.86 582.875 1065.49C528.921 1035.33 488.986 984.772 463.496 929.543C461.797 925.295 467.744 921.896 470.293 926.144C479.215 943.987 489.411 961.406 500.882 977.125C512.352 993.268 525.522 1008.14 540.391 1021.31C583.725 1060.39 642.352 1084.61 700.98 1084.61C761.306 1082.91 784.248 1051.05 770.228 992.419C768.104 983.072 764.705 973.301 760.032 965.229C757.483 961.83 763.855 958.007 766.404 962.255Z" fill="black"/>
<path d="M930.815 452.027C938.462 487.713 942.285 516.602 921.468 611.765C901.076 706.504 950.782 726.046 833.102 877.713C785.096 939.739 668.691 922.321 574.377 858.17C542.514 836.504 528.919 780.85 505.128 741.34C486.436 710.327 477.939 742.615 453.298 715.85C419.736 679.314 379.377 605.818 399.344 475.818C431.632 265.099 598.592 240.458 722.22 263.824C846.697 287.615 910.423 358.138 930.815 452.027Z" fill="white"/>
<path d="M474.541 753.66C464.77 737.092 452.024 722.647 440.129 707.353C428.658 691.634 419.312 674.216 411.665 656.373C361.109 532.321 380.652 357.713 504.704 284.641C556.109 254.902 618.136 247.68 675.913 252.353C799.541 261.275 912.972 318.203 939.737 449.053C954.181 506.83 934.639 566.308 923.593 622.811C918.495 650.85 922.743 679.739 922.319 708.628C921.894 737.942 913.822 767.255 902.776 794.445C895.979 813.138 884.083 829.706 871.763 845C851.371 869.641 830.979 894.706 805.064 913.824C799.116 918.072 788.495 920.196 781.273 921.046C761.306 924.02 741.763 924.87 721.796 923.595C643.626 920.196 559.933 882.386 528.495 806.765C527.221 803.791 531.469 801.667 533.168 804.216C573.953 868.791 648.724 900.654 723.07 904.902C746.011 906.177 769.377 905.752 791.894 901.079C802.939 895.556 812.711 885.785 822.057 876.863C844.998 853.922 868.364 829.281 884.933 801.242C904.9 763.432 915.946 722.223 912.547 679.314C911.698 660.196 911.273 640.229 915.096 621.111C918.495 601.994 922.743 583.726 925.292 564.183C927.841 545.491 929.116 526.373 929.116 507.68C926.992 452.876 909.149 396.373 874.312 353.889C797.417 258.301 615.587 233.236 513.201 298.661C448.626 338.595 418.462 413.366 408.691 486.013C393.822 573.105 398.07 658.922 467.319 722.223L487.711 743.464C495.783 752.811 481.338 763.857 474.541 753.66Z" fill="black"/>
<path d="M524.67 618.562C524.67 618.562 511.5 554.837 449.474 562.484C395.944 569.281 377.252 697.582 498.755 733.268" fill="white"/>
<path d="M493.234 677.615C483.463 672.092 476.666 662.746 476.241 651.275C476.666 642.778 477.94 633.007 475.816 624.51C474.541 616.438 466.045 614.314 459.672 614.739C452.875 616.014 448.626 624.51 447.352 631.308C447.352 631.733 446.927 633.007 446.927 633.432C446.502 635.556 443.103 635.556 442.254 633.432C436.731 616.863 449.051 598.595 466.894 600.72C491.96 602.419 495.358 628.759 490.685 648.726C488.136 657.223 491.535 664.87 496.208 672.092L497.058 673.367C499.182 675.916 495.783 679.314 493.234 677.615Z" fill="black"/>
<path d="M833.102 573.53C839.474 603.693 851.369 631.732 866.239 658.072C879.409 690.36 845.422 720.948 815.258 719.673C811.86 719.673 811.435 715 814.409 714.151C833.526 708.203 850.945 695.458 853.918 675.915C855.193 669.968 853.494 664.87 850.52 659.772C836.5 633.432 828.003 603.268 830.128 573.53C830.128 571.405 833.102 571.405 833.102 573.53Z" fill="black"/>
<path d="M522.547 618.988C512.776 593.922 491.534 570.131 463.07 570.556C460.521 570.131 456.272 570.981 453.723 570.981C446.501 571.406 440.553 573.955 435.03 579.053C407.841 606.242 412.514 654.249 434.606 684.412C442.253 695.033 452.024 704.38 463.07 712.027C474.115 719.674 486.436 725.622 499.606 730.72C502.579 731.569 501.305 736.242 498.331 735.818C469.867 729.87 442.677 715.85 423.985 692.484C395.096 657.648 389.148 599.445 423.56 565.458C431.207 558.661 441.828 553.563 452.449 553.563C455.847 553.563 460.945 552.713 464.344 553.563C482.187 554.412 499.181 563.334 510.226 577.354C519.998 589.249 525.521 603.693 527.22 618.138C527.22 620.687 523.396 621.537 522.547 618.988Z" fill="black"/>
<path d="M800.817 762.157C773.627 788.072 722.222 767.255 708.627 735.817C706.928 731.993 711.176 728.595 714.575 730.294C721.797 734.118 728.17 737.941 734.967 740.915C754.509 749.837 774.902 757.059 796.568 754.935C800.817 754.085 803.79 759.183 800.817 762.157Z" fill="black"/>
<path d="M674.642 616.863C664.446 616.438 656.799 607.941 657.648 597.745L658.073 585.85C658.498 575.654 666.995 568.007 677.191 568.856C687.387 569.281 695.034 577.778 694.184 587.974L693.76 599.87C693.335 609.641 684.838 617.288 674.642 616.863Z" fill="black"/>
<path d="M853.496 623.236C844.149 622.811 836.927 614.739 837.352 605.393L837.777 594.347C838.201 585.001 846.273 577.779 855.62 578.203C864.966 578.628 872.188 586.7 871.763 596.046L871.339 607.092C870.914 616.439 862.842 623.661 853.496 623.236Z" fill="black"/>
<path d="M712.877 593.922C698.857 584.576 683.563 578.203 666.57 581.602C661.047 582.451 655.524 584.151 652.125 587.974C650.851 589.674 647.877 589.249 647.877 586.7C648.302 578.203 655.524 572.68 662.321 569.281C675.491 562.484 693.759 563.759 705.655 572.68C709.903 575.229 724.348 590.948 716.7 594.347C715.001 595.196 714.151 594.772 712.877 593.922Z" fill="black"/>
<path d="M834.379 596.046C834.379 578.203 856.47 571.83 870.065 578.203C877.712 581.602 883.235 588.399 885.359 596.471C886.209 599.02 882.386 601.144 880.686 599.02C873.464 590.523 861.144 586.275 851.372 591.373C848.399 593.072 847.974 594.347 847.124 596.046C847.124 604.543 834.804 604.118 834.379 596.046Z" fill="black"/>
<path d="M733.269 523.824C742.19 526.798 751.112 518.726 749.412 508.955C748.563 503.857 746.438 498.759 742.19 494.935C729.445 483.464 676.765 473.268 644.902 488.138C616.863 501.732 692.484 510.229 733.269 523.824Z" fill="black"/>
<path d="M860.295 530.621C853.073 533.17 845.426 525.523 846.701 516.602C847.126 511.928 848.825 507.255 852.224 503.857C862.42 493.66 897.256 485.589 919.348 501.308C938.465 514.477 893.433 518.301 860.295 530.621Z" fill="black"/>
<path d="M972.451 362.81C950.359 174.183 763.006 110.457 799.117 236.209C799.117 236.209 749.836 157.189 638.954 152.941C543.791 149.542 601.568 217.091 601.568 217.091C601.568 217.091 527.647 174.608 402.32 238.333C293.137 293.987 394.248 342.843 394.248 342.843C394.248 342.843 311.83 386.601 310.555 480.915C310.13 505.555 330.523 543.366 378.954 531.046C366.634 624.934 423.987 701.83 450.327 733.268C484.314 774.052 487.287 805.065 487.287 805.065C504.706 795.294 484.314 751.536 484.738 728.595C378.529 687.81 397.647 569.281 449.477 562.483C503.856 555.686 520.849 604.117 523.823 616.013C532.745 605.392 535.294 564.183 540.392 520.425C556.111 515.327 570.13 509.804 581.601 502.581C626.634 475.817 647.876 429.51 693.758 402.32C774.052 354.313 794.869 462.647 837.778 422.712C887.483 376.83 923.595 413.366 934.64 469.869C938.889 490.261 964.804 488.562 968.627 468.17C974.575 438.431 977.124 402.745 972.451 362.81Z" fill="black"/>
</g>
</svg>
