<svg width="1028" height="1297" viewBox="0 0 1028 1297" fill="none" xmlns="http://www.w3.org/2000/svg">
<path d="M721.568 1250.85C668.818 1177.59 627.546 999.311 622.662 928.49L371.736 820.426L267.336 1250.85H721.568Z" fill="#FC909F" stroke="black" stroke-width="14.6526"/>
<mask id="mask0_262_612" style="mask-type:alpha" maskUnits="userSpaceOnUse" x="267" y="820" width="455" height="431">
<path d="M721.568 1250.85C668.818 1177.59 627.546 999.311 622.662 928.49L371.736 820.426L267.336 1250.85H721.568Z" fill="#FFEDEF"/>
</mask>
<g mask="url(#mask0_262_612)">
<ellipse cx="611.789" cy="813.225" rx="216.126" ry="197.811" fill="black"/>
</g>
<g clip-path="url(#clip0_262_612)">
<path d="M721.684 1214.34C668.934 1141.08 627.663 999.435 622.778 928.614L371.852 820.55L267.452 1214.34H721.684Z" fill="#F9C9B6" stroke="black" stroke-width="14.6526"/>
<mask id="mask1_262_612" style="mask-type:alpha" maskUnits="userSpaceOnUse" x="267" y="820" width="455" height="431">
<path d="M721.684 1250.97C668.934 1177.71 627.663 999.435 622.778 928.614L371.852 820.55L267.452 1250.97H721.684Z" fill="#F9C9B6"/>
</mask>
<g mask="url(#mask1_262_612)">
<g style="mix-blend-mode:multiply">
<ellipse cx="611.789" cy="813.223" rx="216.126" ry="197.811" fill="black"/>
</g>
</g>
<mask id="path-7-inside-1_262_612" fill="white">
<path fill-rule="evenodd" clip-rule="evenodd" d="M831.164 596.797C831.065 596.372 830.964 595.947 830.862 595.522C830.76 595.097 830.657 594.672 830.554 594.248L770.489 343.552C770.431 343.305 770.372 343.057 770.313 342.81C770.253 342.563 770.194 342.316 770.134 342.07L769.867 340.954L769.862 340.955C732.431 189.136 579.397 95.786 427.104 132.274C274.811 168.762 180.696 321.327 216.129 473.624L216.122 473.626L278.363 733.41L278.414 733.397C317.254 883.237 469.155 974.95 620.326 938.731C771.496 902.511 865.343 751.92 832.063 600.748L832.109 600.737L831.164 596.797Z"/>
</mask>
<path fill-rule="evenodd" clip-rule="evenodd" d="M831.164 596.797C831.065 596.372 830.964 595.947 830.862 595.522C830.76 595.097 830.657 594.672 830.554 594.248L770.489 343.552C770.431 343.305 770.372 343.057 770.313 342.81C770.253 342.563 770.194 342.316 770.134 342.07L769.867 340.954L769.862 340.955C732.431 189.136 579.397 95.786 427.104 132.274C274.811 168.762 180.696 321.327 216.129 473.624L216.122 473.626L278.363 733.41L278.414 733.397C317.254 883.237 469.155 974.95 620.326 938.731C771.496 902.511 865.343 751.92 832.063 600.748L832.109 600.737L831.164 596.797Z" fill="#F9C9B6"/>
<path d="M831.164 596.797L816.9 600.147L816.907 600.179L816.915 600.211L831.164 596.797ZM830.862 595.522L845.111 592.108L845.111 592.107L830.862 595.522ZM830.554 594.248L816.305 597.663L816.312 597.694L816.32 597.726L830.554 594.248ZM770.489 343.552L756.231 346.929L756.235 346.947L756.24 346.966L770.489 343.552ZM770.134 342.07L755.885 345.483L755.889 345.502L755.894 345.521L770.134 342.07ZM769.867 340.954L784.116 337.54L780.707 323.31L766.473 326.7L769.867 340.954ZM769.862 340.955L755.635 344.462L759.115 358.576L773.255 355.209L769.862 340.955ZM427.104 132.274L430.518 146.523L430.518 146.523L427.104 132.274ZM216.129 473.624L219.561 487.87L233.695 484.465L230.4 470.304L216.129 473.624ZM216.122 473.626L212.69 459.381L198.463 462.809L201.872 477.04L216.122 473.626ZM278.363 733.41L264.114 736.824L267.527 751.07L281.774 747.66L278.363 733.41ZM278.414 733.397L292.598 729.721L288.99 715.8L275.004 719.147L278.414 733.397ZM620.326 938.731L616.912 924.481L616.912 924.481L620.326 938.731ZM832.063 600.748L828.65 586.498L814.661 589.849L817.753 603.898L832.063 600.748ZM832.109 600.737L835.522 614.987L849.772 611.573L846.358 597.323L832.109 600.737ZM845.429 593.447C845.324 593.001 845.218 592.555 845.111 592.108L816.613 598.936C816.709 599.339 816.805 599.742 816.9 600.147L845.429 593.447ZM845.111 592.107C845.004 591.661 844.897 591.216 844.788 590.771L816.32 597.726C816.418 598.129 816.516 598.533 816.613 598.936L845.111 592.107ZM756.24 346.966L816.305 597.663L844.803 590.834L784.739 340.138L756.24 346.966ZM784.747 340.174C784.686 339.916 784.624 339.656 784.562 339.396L756.063 346.225C756.119 346.459 756.175 346.693 756.231 346.929L784.747 340.174ZM784.562 339.396C784.5 339.137 784.437 338.877 784.374 338.618L755.894 345.521C755.951 345.755 756.007 345.99 756.063 346.225L784.562 339.396ZM755.617 344.368L755.885 345.483L784.383 338.656L784.116 337.54L755.617 344.368ZM773.255 355.209L773.261 355.208L766.473 326.7L766.468 326.701L773.255 355.209ZM784.088 337.447C744.731 177.813 583.821 79.6587 423.69 118.025L430.518 146.523C574.973 111.913 720.131 200.459 755.635 344.462L784.088 337.447ZM423.69 118.025C263.558 156.391 164.6 316.808 201.857 476.945L230.4 470.304C196.791 325.847 286.063 181.134 430.518 146.523L423.69 118.025ZM219.553 487.871L219.561 487.87L212.697 459.379L212.69 459.381L219.553 487.871ZM292.613 729.996L230.371 470.212L201.872 477.04L264.114 736.824L292.613 729.996ZM275.004 719.147L274.953 719.159L281.774 747.66L281.825 747.648L275.004 719.147ZM264.231 737.074C305.071 894.631 464.788 991.063 623.74 952.98L616.912 924.481C473.523 958.836 329.438 871.844 292.598 729.721L264.231 737.074ZM623.74 952.98C782.692 914.896 881.367 756.556 846.373 597.598L817.753 603.898C849.319 747.285 760.301 890.126 616.912 924.481L623.74 952.98ZM828.695 586.488L828.65 586.498L835.477 614.997L835.522 614.987L828.695 586.488ZM816.915 600.211L817.859 604.151L846.358 597.323L845.414 593.382L816.915 600.211Z" fill="black" mask="url(#path-7-inside-1_262_612)"/>
</g>
<path d="M485.411 694.17C494.569 756.444 598.969 785.749 694.211 714.317" stroke="black" stroke-width="14.6526"/>
<path d="M630.105 370.766C650.863 360.997 699.705 352.083 729.01 394.576" stroke="black" stroke-width="14.6526" stroke-linecap="round"/>
<path d="M353.827 463.468C361.412 441.817 389.293 400.736 440.14 409.625" stroke="black" stroke-width="14.6526" stroke-linecap="round"/>
<path d="M497.455 64.0641L497.735 64.0939L498.016 64.1022C595.71 66.9755 671.654 105.854 725.398 153.301C776.887 198.757 807.633 251.744 817.66 287.857C802.788 296.346 777.312 303.651 744.818 309.641C709.375 316.176 666.819 320.948 623.397 324.349C536.556 331.152 446.87 332.428 404.98 331.518L382.734 331.034L400.341 344.639C409.49 351.709 421.668 356.629 434.549 360.09C447.522 363.575 461.726 365.713 475.325 366.928C489.333 368.179 502.99 368.474 514.304 368.185C475.522 398.083 426.161 421.073 377.49 438.113C321.274 457.795 266.606 469.325 231.59 474.457L223.717 475.61L225.515 483.361C237.777 536.215 260.318 628.608 275.436 690.577C282.144 718.07 287.39 739.575 289.63 748.981C293.602 765.662 306.107 789.441 320.381 811.358C333.542 831.567 348.897 851.246 361.855 863.358L333.143 979.895H224.857C255.399 933.325 261.846 879.515 255.618 822.443C248.877 760.667 227.187 694.215 204.323 627.682C202.072 621.133 199.81 614.582 197.549 608.033C176.728 547.741 155.964 487.615 144.715 429.991C132.256 366.163 131.7 306.428 155.092 253.907C192.965 168.871 260.102 119.492 327.257 92.2791C394.57 65.0028 461.401 60.2223 497.455 64.0641Z" fill="white" stroke="black" stroke-width="14.6526"/>
<ellipse cx="443.88" cy="501.67" rx="32.9684" ry="36.6316" transform="rotate(-6.77646 443.88 501.67)" fill="black"/>
<ellipse cx="678.434" cy="465.025" rx="32.9684" ry="36.6316" transform="rotate(-6.27568 678.434 465.025)" fill="black"/>
<path d="M572.319 505.549C579.456 556.334 610.457 592.668 610.457 592.668C610.457 592.668 600.82 616.217 563.525 614.06" stroke="black" stroke-width="14.6526"/>
<path d="M307.747 554.052V549.952L304.252 547.807C290.575 539.414 273.942 534.822 256.756 534.822C236.094 534.822 216.751 541.223 202.972 554.219C189.039 567.36 181.522 586.573 183.518 610.525C185.463 633.866 193.299 651.044 206.295 662.458C205.228 666.119 204.912 670.065 205.407 674.217C206.833 686.19 212.886 694.816 222.239 700.132C231.154 705.199 242.565 706.99 254.72 706.99C274.791 706.99 292.39 696.195 305.791 681.756L307.747 679.648V676.772V554.052Z" stroke="black" stroke-width="14.6526"/>
<path fill-rule="evenodd" clip-rule="evenodd" d="M329.623 611.691C329.885 609.303 330.019 606.878 330.019 604.423C330.019 566.996 295.195 542.149 256.756 542.149C218.317 542.149 187.156 565.96 190.819 609.918C192.857 634.378 201.61 650.476 215.182 660.166C213.026 663.916 212.083 668.322 212.682 673.352C214.986 692.699 231.503 699.665 254.72 699.665C295.399 699.665 327.586 648.21 329.623 611.691Z" fill="#F9C9B6"/>
<path d="M272.947 573.287C258.294 566.572 226.059 563.03 214.336 602.593" stroke="black" stroke-width="14.6526"/>
<path d="M234.484 575.117C242.421 581.833 257.562 602.591 254.631 631.896" stroke="black" stroke-width="14.6526"/>
<path d="M1013.61 1289.43H12.4023C72.1106 1181.95 157.036 1113.54 294.722 1082.14C353.382 1068.77 421.717 1062.1 501.893 1062.1C536.531 1062.1 563.485 1067.38 589.063 1074.35C598.538 1076.94 608.062 1079.83 617.805 1082.79C633.932 1087.69 650.659 1092.78 668.759 1096.93L669.272 1097.05L669.797 1097.09C838.761 1111.03 940.081 1186.08 1013.61 1289.43Z" fill="#77311D" stroke="black" stroke-width="14.6526"/>
<path d="M252.541 1090.09L286.071 1018.31C286.872 1016.59 288.862 1015.77 290.646 1016.41C429.576 1065.58 555.965 1062.12 673.093 1029.52C674.567 1029.11 676.142 1029.65 677.045 1030.88L728.081 1100.68C729.484 1102.6 728.769 1105.3 726.557 1106.17C603.449 1154.51 372.445 1146.29 254.317 1094.94C252.443 1094.12 251.677 1091.94 252.541 1090.09Z" fill="white" stroke="black" stroke-width="14.6526"/>
<defs>
<clipPath id="clip0_262_612">
<rect width="732.632" height="1172.21" fill="white" transform="translate(157.558 43.96)"/>
</clipPath>
</defs>
</svg>
