<svg width="1028" height="1341" viewBox="0 0 1028 1341" fill="none" xmlns="http://www.w3.org/2000/svg">
<path d="M721.569 1294.85C668.82 1221.58 627.548 1043.31 622.664 972.489L371.738 864.425L267.338 1294.85H721.569Z" fill="#FC909F" stroke="black" stroke-width="14.6526"/>
<mask id="mask0_262_767" style="mask-type:alpha" maskUnits="userSpaceOnUse" x="267" y="864" width="455" height="431">
<path d="M721.569 1294.85C668.82 1221.58 627.548 1043.31 622.664 972.489L371.738 864.425L267.338 1294.85H721.569Z" fill="#FFEDEF"/>
</mask>
<g mask="url(#mask0_262_767)">
<ellipse cx="611.789" cy="857.224" rx="216.126" ry="197.811" fill="black"/>
</g>
<g clip-path="url(#clip0_262_767)">
<path d="M721.684 1294.97C668.934 1221.71 627.663 1043.44 622.778 972.614L371.852 864.55L267.452 1294.97H721.684Z" fill="#77311D" stroke="black" stroke-width="14.6526"/>
<mask id="mask1_262_767" style="mask-type:alpha" maskUnits="userSpaceOnUse" x="267" y="864" width="455" height="431">
<path d="M721.684 1294.97C668.934 1221.71 627.663 1043.43 622.778 972.613L371.852 864.549L267.452 1294.97H721.684Z" fill="#AC6651"/>
</mask>
<g mask="url(#mask1_262_767)">
<ellipse cx="611.789" cy="857.223" rx="216.126" ry="197.811" fill="black"/>
</g>
<mask id="path-7-inside-1_262_767" fill="white">
<path fill-rule="evenodd" clip-rule="evenodd" d="M831.164 640.798C831.064 640.373 830.963 639.947 830.862 639.522C830.76 639.096 830.657 638.671 830.553 638.247L770.489 387.552C770.43 387.305 770.371 387.057 770.312 386.81C770.253 386.563 770.193 386.316 770.134 386.07L769.866 384.954L769.861 384.955C732.431 233.136 579.396 139.786 427.103 176.274C274.81 212.762 180.695 365.327 216.128 517.624L216.121 517.626L282.903 796.357L283.945 796.107C330.112 934.772 475.554 1017.42 620.325 982.731C765.097 948.045 857.295 808.464 835.611 663.933L836.648 663.684L831.164 640.798Z"/>
</mask>
<path fill-rule="evenodd" clip-rule="evenodd" d="M831.164 640.798C831.064 640.373 830.963 639.947 830.862 639.522C830.76 639.096 830.657 638.671 830.553 638.247L770.489 387.552C770.43 387.305 770.371 387.057 770.312 386.81C770.253 386.563 770.193 386.316 770.134 386.07L769.866 384.954L769.861 384.955C732.431 233.136 579.396 139.786 427.103 176.274C274.81 212.762 180.695 365.327 216.128 517.624L216.121 517.626L282.903 796.357L283.945 796.107C330.112 934.772 475.554 1017.42 620.325 982.731C765.097 948.045 857.295 808.464 835.611 663.933L836.648 663.684L831.164 640.798Z" fill="#77311D"/>
<path d="M831.164 640.798L816.9 644.148L816.907 644.18L816.915 644.212L831.164 640.798ZM830.862 639.522L845.111 636.108L845.111 636.108L830.862 639.522ZM830.553 638.247L816.304 641.661L816.311 641.693L816.319 641.726L830.553 638.247ZM770.489 387.552L756.231 390.929L756.235 390.947L756.239 390.966L770.489 387.552ZM770.312 386.81L756.063 390.224L756.063 390.225L770.312 386.81ZM770.134 386.07L755.884 389.484L755.889 389.502L755.893 389.521L770.134 386.07ZM769.866 384.954L784.116 381.54L780.706 367.31L766.472 370.7L769.866 384.954ZM769.861 384.955L755.634 388.462L759.114 402.576L773.255 399.209L769.861 384.955ZM427.103 176.274L430.517 190.523L430.517 190.523L427.103 176.274ZM216.128 517.624L219.56 531.87L233.694 528.465L230.4 514.304L216.128 517.624ZM216.121 517.626L212.689 503.381L198.462 506.809L201.872 521.04L216.121 517.626ZM282.903 796.357L268.653 799.771L272.067 814.021L286.317 810.606L282.903 796.357ZM283.945 796.107L297.848 791.479L293.602 778.726L280.531 781.858L283.945 796.107ZM835.611 663.933L832.197 649.684L819.126 652.815L821.12 666.107L835.611 663.933ZM836.648 663.684L840.062 677.934L854.311 674.52L850.897 660.27L836.648 663.684ZM845.429 637.448C845.324 637.001 845.218 636.554 845.111 636.108L816.612 642.935C816.709 643.34 816.805 643.744 816.9 644.148L845.429 637.448ZM845.111 636.108C845.004 635.662 844.896 635.215 844.787 634.768L816.319 641.726C816.418 642.127 816.515 642.531 816.612 642.936L845.111 636.108ZM756.239 390.966L816.304 641.661L844.802 634.833L784.738 384.138L756.239 390.966ZM784.747 384.174C784.686 383.916 784.624 383.657 784.561 383.396L756.063 390.225C756.119 390.458 756.175 390.693 756.231 390.929L784.747 384.174ZM784.561 383.396C784.499 383.137 784.437 382.877 784.374 382.618L755.893 389.521C755.95 389.755 756.007 389.99 756.063 390.224L784.561 383.396ZM755.617 388.368L755.884 389.484L784.383 382.656L784.116 381.54L755.617 388.368ZM773.255 399.209L773.26 399.208L766.472 370.7L766.467 370.701L773.255 399.209ZM784.088 381.447C744.73 221.813 583.821 123.659 423.689 162.025L430.517 190.523C574.972 155.913 720.131 244.459 755.634 388.462L784.088 381.447ZM423.689 162.025C263.558 200.391 164.6 360.808 201.857 520.945L230.4 514.304C196.791 369.847 286.063 225.134 430.517 190.523L423.689 162.025ZM219.553 531.871L219.56 531.87L212.696 503.379L212.689 503.381L219.553 531.871ZM297.152 792.943L230.371 514.212L201.872 521.04L268.653 799.771L297.152 792.943ZM280.531 781.858L279.488 782.108L286.317 810.606L287.36 810.356L280.531 781.858ZM270.043 800.736C318.591 946.552 471.509 1033.45 623.739 996.98L616.911 968.481C479.598 1001.38 341.634 922.993 297.848 791.479L270.043 800.736ZM623.739 996.98C775.969 960.507 872.904 813.743 850.101 661.759L821.12 666.107C841.686 803.184 754.225 935.582 616.911 968.481L623.739 996.98ZM833.234 649.435L832.197 649.684L839.025 678.182L840.062 677.934L833.234 649.435ZM816.915 644.212L822.398 667.099L850.897 660.27L845.414 637.384L816.915 644.212Z" fill="black" mask="url(#path-7-inside-1_262_767)"/>
</g>
<path d="M523.872 762.587C541.97 786.203 569.395 812.365 611.7 806.399C654.006 800.433 672.829 771.25 667.28 747.616" stroke="black" stroke-width="14.6526"/>
<path d="M630.104 414.766C650.862 404.997 699.704 396.083 729.01 438.576" stroke="black" stroke-width="14.6526" stroke-linecap="round"/>
<path d="M353.826 507.468C361.411 485.817 389.293 444.736 440.139 453.625" stroke="black" stroke-width="14.6526" stroke-linecap="round"/>
<path d="M859.882 413.215C859.882 171.12 726.328 7.36938 563.652 7.36914C355.243 7.36914 142.905 85.5459 142.905 455.207C142.905 546.669 181.951 614.818 236.552 665.053C231.079 658.204 226.669 652.071 223.739 647.025C213.15 548.19 330.578 472.33 445.487 398.098C506.488 358.692 566.778 319.743 606.83 278.06C641.976 297.976 745.275 381.411 764.957 415.151C775.513 433.247 792.464 495.26 804.046 567.648C841.916 522.162 859.882 476.646 859.882 413.215Z" fill="white" stroke="black" stroke-width="14.6526"/>
<path d="M609.092 275.68C657.35 231.925 729.545 132.063 724.912 67.2031" stroke="black" stroke-width="14.6526"/>
<ellipse cx="443.88" cy="545.67" rx="32.9684" ry="36.6316" transform="rotate(-6.77646 443.88 545.67)" fill="black"/>
<ellipse cx="678.433" cy="509.025" rx="32.9684" ry="36.6316" transform="rotate(-6.27568 678.433 509.025)" fill="black"/>
<circle cx="686.883" cy="512.884" r="95.2421" stroke="#F4D150" stroke-width="14.6526"/>
<circle cx="441.451" cy="545.853" r="95.2421" stroke="#F4D150" stroke-width="14.6526"/>
<path d="M595.304 538.526C595.304 530.754 592.216 523.3 586.721 517.804C581.225 512.308 573.771 509.221 565.999 509.221C558.226 509.221 550.772 512.308 545.277 517.804C539.781 523.3 536.693 530.754 536.693 538.526" stroke="#F4D150" stroke-width="14.6526"/>
<path d="M348.04 553.179L238.146 573.326" stroke="#F4D150" stroke-width="14.6526"/>
<path d="M574.36 564.058C575.105 578.134 580.58 608.314 596.517 616.432C616.439 626.579 600.821 660.217 563.527 658.06" stroke="black" stroke-width="14.6526"/>
<path d="M283.936 590.455C275.401 587.644 266.187 586.148 256.755 586.148C218.316 586.148 187.156 609.959 190.818 653.917C194.634 699.706 221.979 716.191 260.418 716.191C264.696 716.191 268.883 715.815 272.946 715.096C277.381 714.311 281.669 713.117 285.767 711.556" stroke="black" stroke-width="29.3053"/>
<path d="M287.599 710.828C279.248 714.281 270.063 716.191 260.418 716.191C221.979 716.191 194.634 699.706 190.818 653.917C187.156 609.959 218.316 586.148 256.755 586.148C268.248 586.148 279.418 588.37 289.431 592.484L287.599 710.828Z" fill="#77311D"/>
<path d="M272.946 617.287C258.294 610.572 226.058 607.03 214.336 646.593" stroke="black" stroke-width="14.6526"/>
<path d="M234.483 619.117C242.42 625.833 257.561 646.591 254.631 675.896" stroke="black" stroke-width="14.6526"/>
<path d="M1013.61 1333.44H12.4025C72.1108 1225.95 157.036 1157.54 294.722 1126.15C353.382 1112.77 421.718 1106.1 501.894 1106.1C536.531 1106.1 563.485 1111.38 589.063 1118.36C598.538 1120.94 608.062 1123.83 617.805 1126.79C633.932 1131.69 650.659 1136.78 668.759 1140.93L669.272 1141.05L669.797 1141.09C838.761 1155.03 940.081 1230.08 1013.61 1333.44Z" fill="#9287FF" stroke="black" stroke-width="14.6526"/>
<path d="M252.54 1134.09L286.07 1062.3C286.871 1060.59 288.861 1059.77 290.645 1060.41C429.575 1109.58 555.964 1106.12 673.092 1073.52C674.566 1073.11 676.141 1073.65 677.044 1074.88L728.08 1144.68C729.483 1146.59 728.768 1149.3 726.556 1150.17C603.448 1198.51 372.445 1190.29 254.316 1138.94C252.442 1138.12 251.676 1135.94 252.54 1134.09Z" fill="#E0DDFF" stroke="black" stroke-width="14.6526"/>
<defs>
<clipPath id="clip0_262_767">
<rect width="732.632" height="1208.84" fill="white" transform="translate(157.558 87.96)"/>
</clipPath>
</defs>
</svg>
