<svg width="1028" height="1297" viewBox="0 0 1028 1297" fill="none" xmlns="http://www.w3.org/2000/svg">
<g clip-path="url(#clip0_262_714)">
<path d="M721.684 1214.34C668.935 1141.08 627.663 999.435 622.779 928.614L371.853 820.55L267.453 1214.34H721.684Z" fill="#F9C9B6" stroke="black" stroke-width="14.6526"/>
<mask id="mask0_262_714" style="mask-type:alpha" maskUnits="userSpaceOnUse" x="267" y="820" width="455" height="431">
<path d="M721.684 1250.97C668.935 1177.71 627.663 999.435 622.779 928.614L371.853 820.55L267.453 1250.97H721.684Z" fill="#AC6651"/>
</mask>
<g mask="url(#mask0_262_714)">
<g style="mix-blend-mode:multiply">
<ellipse cx="611.79" cy="813.224" rx="216.126" ry="197.811" fill="black"/>
</g>
</g>
<mask id="path-4-inside-1_262_714" fill="white">
<path fill-rule="evenodd" clip-rule="evenodd" d="M831.164 596.797C831.065 596.372 830.964 595.947 830.862 595.522C830.76 595.097 830.657 594.672 830.554 594.248L770.489 343.552C770.431 343.305 770.372 343.057 770.313 342.81C770.253 342.563 770.194 342.316 770.134 342.07L769.867 340.954L769.862 340.955C732.431 189.136 579.397 95.786 427.104 132.274C274.811 168.762 180.696 321.327 216.129 473.624L216.122 473.626L278.363 733.41L278.414 733.397C317.254 883.237 469.155 974.95 620.326 938.731C771.496 902.511 865.343 751.92 832.063 600.748L832.109 600.737L831.164 596.797Z"/>
</mask>
<path fill-rule="evenodd" clip-rule="evenodd" d="M831.164 596.797C831.065 596.372 830.964 595.947 830.862 595.522C830.76 595.097 830.657 594.672 830.554 594.248L770.489 343.552C770.431 343.305 770.372 343.057 770.313 342.81C770.253 342.563 770.194 342.316 770.134 342.07L769.867 340.954L769.862 340.955C732.431 189.136 579.397 95.786 427.104 132.274C274.811 168.762 180.696 321.327 216.129 473.624L216.122 473.626L278.363 733.41L278.414 733.397C317.254 883.237 469.155 974.95 620.326 938.731C771.496 902.511 865.343 751.92 832.063 600.748L832.109 600.737L831.164 596.797Z" fill="#F9C9B6"/>
<path d="M831.164 596.797L816.9 600.147L816.907 600.179L816.915 600.211L831.164 596.797ZM830.862 595.522L845.111 592.108L845.111 592.107L830.862 595.522ZM830.554 594.248L816.305 597.663L816.312 597.694L816.32 597.726L830.554 594.248ZM770.489 343.552L756.231 346.929L756.235 346.947L756.24 346.966L770.489 343.552ZM770.134 342.07L755.885 345.483L755.889 345.502L755.894 345.521L770.134 342.07ZM769.867 340.954L784.116 337.54L780.707 323.31L766.473 326.7L769.867 340.954ZM769.862 340.955L755.635 344.462L759.115 358.576L773.255 355.209L769.862 340.955ZM427.104 132.274L430.518 146.523L430.518 146.523L427.104 132.274ZM216.129 473.624L219.561 487.87L233.695 484.465L230.4 470.304L216.129 473.624ZM216.122 473.626L212.69 459.381L198.463 462.809L201.872 477.04L216.122 473.626ZM278.363 733.41L264.114 736.824L267.527 751.07L281.774 747.66L278.363 733.41ZM278.414 733.397L292.598 729.721L288.99 715.8L275.004 719.147L278.414 733.397ZM620.326 938.731L616.912 924.481L616.912 924.481L620.326 938.731ZM832.063 600.748L828.65 586.498L814.661 589.849L817.753 603.898L832.063 600.748ZM832.109 600.737L835.522 614.987L849.772 611.573L846.358 597.323L832.109 600.737ZM845.429 593.447C845.324 593.001 845.218 592.555 845.111 592.108L816.613 598.936C816.709 599.339 816.805 599.742 816.9 600.147L845.429 593.447ZM845.111 592.107C845.004 591.661 844.897 591.216 844.788 590.771L816.32 597.726C816.418 598.129 816.516 598.533 816.613 598.936L845.111 592.107ZM756.24 346.966L816.305 597.663L844.803 590.834L784.739 340.138L756.24 346.966ZM784.747 340.174C784.686 339.916 784.624 339.656 784.562 339.396L756.063 346.225C756.119 346.459 756.175 346.693 756.231 346.929L784.747 340.174ZM784.562 339.396C784.5 339.137 784.437 338.877 784.374 338.618L755.894 345.521C755.951 345.755 756.007 345.99 756.063 346.225L784.562 339.396ZM755.617 344.368L755.885 345.483L784.383 338.656L784.116 337.54L755.617 344.368ZM773.255 355.209L773.261 355.208L766.473 326.7L766.468 326.701L773.255 355.209ZM784.088 337.447C744.731 177.813 583.821 79.6587 423.69 118.025L430.518 146.523C574.973 111.913 720.131 200.459 755.635 344.462L784.088 337.447ZM423.69 118.025C263.558 156.391 164.6 316.808 201.857 476.945L230.4 470.304C196.791 325.847 286.063 181.134 430.518 146.523L423.69 118.025ZM219.553 487.871L219.561 487.87L212.697 459.379L212.69 459.381L219.553 487.871ZM292.613 729.996L230.371 470.212L201.872 477.04L264.114 736.824L292.613 729.996ZM275.004 719.147L274.953 719.159L281.774 747.66L281.825 747.648L275.004 719.147ZM264.231 737.074C305.071 894.631 464.788 991.063 623.74 952.98L616.912 924.481C473.523 958.836 329.438 871.844 292.598 729.721L264.231 737.074ZM623.74 952.98C782.692 914.896 881.367 756.556 846.373 597.598L817.753 603.898C849.319 747.285 760.301 890.126 616.912 924.481L623.74 952.98ZM828.695 586.488L828.65 586.498L835.477 614.997L835.522 614.987L828.695 586.488ZM816.915 600.211L817.859 604.151L846.358 597.323L845.414 593.382L816.915 600.211Z" fill="black" mask="url(#path-4-inside-1_262_714)"/>
<path d="M395.663 817.985C395.663 820.008 394.023 821.648 392 821.648C389.977 821.648 388.337 820.008 388.337 817.985C388.337 815.962 389.977 814.322 392 814.322C394.023 814.322 395.663 815.962 395.663 817.985Z" fill="black"/>
<path d="M586.148 843.627C586.148 845.65 584.508 847.29 582.485 847.29C580.461 847.29 578.821 845.65 578.821 843.627C578.821 841.604 580.461 839.964 582.485 839.964C584.508 839.964 586.148 841.604 586.148 843.627Z" fill="black"/>
<path d="M571.495 869.269C571.495 871.292 569.855 872.932 567.832 872.932C565.809 872.932 564.169 871.292 564.169 869.269C564.169 867.246 565.809 865.606 567.832 865.606C569.855 865.606 571.495 867.246 571.495 869.269Z" fill="black"/>
<path d="M644.758 861.943C644.758 863.966 643.118 865.606 641.095 865.606C639.072 865.606 637.432 863.966 637.432 861.943C637.432 859.92 639.072 858.28 641.095 858.28C643.118 858.28 644.758 859.92 644.758 861.943Z" fill="black"/>
<path d="M648.421 825.311C648.421 827.334 646.781 828.974 644.758 828.974C642.735 828.974 641.095 827.334 641.095 825.311C641.095 823.288 642.735 821.648 644.758 821.648C646.781 821.648 648.421 823.288 648.421 825.311Z" fill="black"/>
<path d="M721.685 843.627C721.685 845.65 720.044 847.29 718.021 847.29C715.998 847.29 714.358 845.65 714.358 843.627C714.358 841.604 715.998 839.964 718.021 839.964C720.044 839.964 721.685 841.604 721.685 843.627Z" fill="black"/>
<path d="M758.316 792.343C758.316 794.366 756.676 796.006 754.653 796.006C752.63 796.006 750.99 794.366 750.99 792.343C750.99 790.32 752.63 788.68 754.653 788.68C756.676 788.68 758.316 790.32 758.316 792.343Z" fill="black"/>
<path d="M359.032 741.059C359.032 743.082 357.392 744.722 355.369 744.722C353.346 744.722 351.706 743.082 351.706 741.059C351.706 739.035 353.346 737.395 355.369 737.395C357.392 737.395 359.032 739.035 359.032 741.059Z" fill="black"/>
<path d="M479.916 799.669C479.916 801.692 478.276 803.332 476.253 803.332C474.23 803.332 472.59 801.692 472.59 799.669C472.59 797.646 474.23 796.006 476.253 796.006C478.276 796.006 479.916 797.646 479.916 799.669Z" fill="black"/>
<path d="M468.927 872.932C468.927 874.955 467.287 876.595 465.263 876.595C463.24 876.595 461.6 874.955 461.6 872.932C461.6 870.909 463.24 869.269 465.263 869.269C467.287 869.269 468.927 870.909 468.927 872.932Z" fill="black"/>
<path d="M534.863 887.585C534.863 889.608 533.223 891.248 531.2 891.248C529.177 891.248 527.537 889.608 527.537 887.585C527.537 885.562 529.177 883.922 531.2 883.922C533.223 883.922 534.863 885.562 534.863 887.585Z" fill="black"/>
<path d="M659.411 792.343C659.411 794.366 657.771 796.006 655.748 796.006C653.725 796.006 652.085 794.366 652.085 792.343C652.085 790.32 653.725 788.68 655.748 788.68C657.771 788.68 659.411 790.32 659.411 792.343Z" fill="black"/>
<path d="M710.695 806.995C710.695 809.019 709.055 810.659 707.032 810.659C705.009 810.659 703.369 809.019 703.369 806.995C703.369 804.972 705.009 803.332 707.032 803.332C709.055 803.332 710.695 804.972 710.695 806.995Z" fill="black"/>
<path d="M681.39 869.269C681.39 871.292 679.75 872.932 677.727 872.932C675.704 872.932 674.063 871.292 674.063 869.269C674.063 867.246 675.704 865.606 677.727 865.606C679.75 865.606 681.39 867.246 681.39 869.269Z" fill="black"/>
<path d="M732.674 755.711C732.674 757.734 731.034 759.374 729.011 759.374C726.988 759.374 725.348 757.734 725.348 755.711C725.348 753.688 726.988 752.048 729.011 752.048C731.034 752.048 732.674 753.688 732.674 755.711Z" fill="black"/>
<path d="M392 763.038C392 765.061 390.36 766.701 388.337 766.701C386.314 766.701 384.674 765.061 384.674 763.038C384.674 761.014 386.314 759.374 388.337 759.374C390.36 759.374 392 761.014 392 763.038Z" fill="black"/>
<path d="M479.916 763.038C479.916 765.061 478.276 766.701 476.253 766.701C474.23 766.701 472.59 765.061 472.59 763.038C472.59 761.014 474.23 759.374 476.253 759.374C478.276 759.374 479.916 761.014 479.916 763.038Z" fill="black"/>
<path d="M479.916 697.101C479.916 699.124 478.276 700.764 476.253 700.764C474.23 700.764 472.59 699.124 472.59 697.101C472.59 695.078 474.23 693.438 476.253 693.438C478.276 693.438 479.916 695.078 479.916 697.101Z" fill="black"/>
<path d="M494.569 894.911C494.569 896.934 492.929 898.574 490.906 898.574C488.882 898.574 487.242 896.934 487.242 894.911C487.242 892.888 488.882 891.248 490.906 891.248C492.929 891.248 494.569 892.888 494.569 894.911Z" fill="black"/>
<path d="M593.474 894.911C593.474 896.934 591.834 898.574 589.811 898.574C587.788 898.574 586.148 896.934 586.148 894.911C586.148 892.888 587.788 891.248 589.811 891.248C591.834 891.248 593.474 892.888 593.474 894.911Z" fill="black"/>
<path d="M633.769 894.911C633.769 896.934 632.129 898.574 630.106 898.574C628.082 898.574 626.442 896.934 626.442 894.911C626.442 892.888 628.082 891.248 630.106 891.248C632.129 891.248 633.769 892.888 633.769 894.911Z" fill="black"/>
<path d="M696.042 763.038C696.042 765.061 694.402 766.701 692.379 766.701C690.356 766.701 688.716 765.061 688.716 763.038C688.716 761.014 690.356 759.374 692.379 759.374C694.402 759.374 696.042 761.014 696.042 763.038Z" fill="black"/>
<path d="M696.042 697.101C696.042 699.124 694.402 700.764 692.379 700.764C690.356 700.764 688.716 699.124 688.716 697.101C688.716 695.078 690.356 693.438 692.379 693.438C694.402 693.438 696.042 695.078 696.042 697.101Z" fill="black"/>
<path d="M769.306 744.722C769.306 746.745 767.666 748.385 765.642 748.385C763.619 748.385 761.979 746.745 761.979 744.722C761.979 742.699 763.619 741.059 765.642 741.059C767.666 741.059 769.306 742.699 769.306 744.722Z" fill="black"/>
<path d="M402.99 715.416C402.99 717.44 401.35 719.08 399.327 719.08C397.304 719.08 395.663 717.44 395.663 715.416C395.663 713.393 397.304 711.753 399.327 711.753C401.35 711.753 402.99 713.393 402.99 715.416Z" fill="black"/>
<path d="M439.621 843.627C439.621 845.65 437.981 847.29 435.958 847.29C433.935 847.29 432.295 845.65 432.295 843.627C432.295 841.604 433.935 839.964 435.958 839.964C437.981 839.964 439.621 841.604 439.621 843.627Z" fill="black"/>
<path d="M424.969 869.269C424.969 871.292 423.329 872.932 421.306 872.932C419.282 872.932 417.642 871.292 417.642 869.269C417.642 867.246 419.282 865.606 421.306 865.606C423.329 865.606 424.969 867.246 424.969 869.269Z" fill="black"/>
<path d="M571.495 796.006C571.495 798.029 569.855 799.669 567.832 799.669C565.809 799.669 564.169 798.029 564.169 796.006C564.169 793.983 565.809 792.343 567.832 792.343C569.855 792.343 571.495 793.983 571.495 796.006Z" fill="black"/>
<path d="M615.453 803.332C615.453 805.355 613.813 806.995 611.79 806.995C609.767 806.995 608.127 805.355 608.127 803.332C608.127 801.309 609.767 799.669 611.79 799.669C613.813 799.669 615.453 801.309 615.453 803.332Z" fill="black"/>
<path d="M564.169 913.227C564.169 915.25 562.529 916.89 560.506 916.89C558.482 916.89 556.842 915.25 556.842 913.227C556.842 911.204 558.482 909.564 560.506 909.564C562.529 909.564 564.169 911.204 564.169 913.227Z" fill="black"/>
<path d="M648.421 726.406C648.421 728.429 646.781 730.069 644.758 730.069C642.735 730.069 641.095 728.429 641.095 726.406C641.095 724.383 642.735 722.743 644.758 722.743C646.781 722.743 648.421 724.383 648.421 726.406Z" fill="black"/>
<path d="M648.421 660.469C648.421 662.492 646.781 664.132 644.758 664.132C642.735 664.132 641.095 662.492 641.095 660.469C641.095 658.446 642.735 656.806 644.758 656.806C646.781 656.806 648.421 658.446 648.421 660.469Z" fill="black"/>
<path d="M736.337 715.416C736.337 717.44 734.697 719.08 732.674 719.08C730.651 719.08 729.011 717.44 729.011 715.416C729.011 713.393 730.651 711.753 732.674 711.753C734.697 711.753 736.337 713.393 736.337 715.416Z" fill="black"/>
<path d="M761.979 678.785C761.979 680.808 760.339 682.448 758.316 682.448C756.293 682.448 754.653 680.808 754.653 678.785C754.653 676.762 756.293 675.122 758.316 675.122C760.339 675.122 761.979 676.762 761.979 678.785Z" fill="black"/>
<path d="M435.958 748.385C435.958 750.408 434.318 752.048 432.295 752.048C430.272 752.048 428.632 750.408 428.632 748.385C428.632 746.362 430.272 744.722 432.295 744.722C434.318 744.722 435.958 746.362 435.958 748.385Z" fill="black"/>
<path d="M435.958 788.68C435.958 790.703 434.318 792.343 432.295 792.343C430.272 792.343 428.632 790.703 428.632 788.68C428.632 786.657 430.272 785.016 432.295 785.016C434.318 785.016 435.958 786.657 435.958 788.68Z" fill="black"/>
<path d="M512.885 733.732C512.885 735.755 511.244 737.395 509.221 737.395C507.198 737.395 505.558 735.755 505.558 733.732C505.558 731.709 507.198 730.069 509.221 730.069C511.244 730.069 512.885 731.709 512.885 733.732Z" fill="black"/>
<path d="M512.885 667.795C512.885 669.819 511.244 671.459 509.221 671.459C507.198 671.459 505.558 669.819 505.558 667.795C505.558 665.772 507.198 664.132 509.221 664.132C511.244 664.132 512.885 665.772 512.885 667.795Z" fill="black"/>
<path d="M556.842 719.08C556.842 721.103 555.202 722.743 553.179 722.743C551.156 722.743 549.516 721.103 549.516 719.08C549.516 717.057 551.156 715.416 553.179 715.416C555.202 715.416 556.842 717.057 556.842 719.08Z" fill="black"/>
<path d="M600.8 697.101C600.8 699.124 599.16 700.764 597.137 700.764C595.114 700.764 593.474 699.124 593.474 697.101C593.474 695.078 595.114 693.438 597.137 693.438C599.16 693.438 600.8 695.078 600.8 697.101Z" fill="black"/>
<path d="M648.421 697.101C648.421 699.124 646.781 700.764 644.758 700.764C642.735 700.764 641.095 699.124 641.095 697.101C641.095 695.078 642.735 693.438 644.758 693.438C646.781 693.438 648.421 695.078 648.421 697.101Z" fill="black"/>
<path d="M696.042 697.101C696.042 699.124 694.402 700.764 692.379 700.764C690.356 700.764 688.716 699.124 688.716 697.101C688.716 695.078 690.356 693.438 692.379 693.438C694.402 693.438 696.042 695.078 696.042 697.101Z" fill="black"/>
<path d="M791.285 697.101C791.285 699.124 789.644 700.764 787.621 700.764C785.598 700.764 783.958 699.124 783.958 697.101C783.958 695.078 785.598 693.438 787.621 693.438C789.644 693.438 791.285 695.078 791.285 697.101Z" fill="black"/>
<path d="M505.558 843.627C505.558 845.65 503.918 847.29 501.895 847.29C499.872 847.29 498.232 845.65 498.232 843.627C498.232 841.604 499.872 839.964 501.895 839.964C503.918 839.964 505.558 841.604 505.558 843.627Z" fill="black"/>
<path d="M545.853 821.648C545.853 823.671 544.213 825.311 542.19 825.311C540.167 825.311 538.527 823.671 538.527 821.648C538.527 819.625 540.167 817.985 542.19 817.985C544.213 817.985 545.853 819.625 545.853 821.648Z" fill="black"/>
<path d="M531.2 792.343C531.2 794.366 529.56 796.006 527.537 796.006C525.514 796.006 523.874 794.366 523.874 792.343C523.874 790.32 525.514 788.68 527.537 788.68C529.56 788.68 531.2 790.32 531.2 792.343Z" fill="black"/>
<path d="M619.116 759.374C619.116 761.397 617.476 763.038 615.453 763.038C613.43 763.038 611.79 761.397 611.79 759.374C611.79 757.351 613.43 755.711 615.453 755.711C617.476 755.711 619.116 757.351 619.116 759.374Z" fill="black"/>
<path d="M439.621 693.438C439.621 695.461 437.981 697.101 435.958 697.101C433.935 697.101 432.295 695.461 432.295 693.438C432.295 691.414 433.935 689.774 435.958 689.774C437.981 689.774 439.621 691.414 439.621 693.438Z" fill="black"/>
<path d="M575.158 752.048C575.158 754.071 573.518 755.711 571.495 755.711C569.472 755.711 567.832 754.071 567.832 752.048C567.832 750.025 569.472 748.385 571.495 748.385C573.518 748.385 575.158 750.025 575.158 752.048Z" fill="black"/>
<path d="M575.158 686.111C575.158 688.134 573.518 689.774 571.495 689.774C569.472 689.774 567.832 688.134 567.832 686.111C567.832 684.088 569.472 682.448 571.495 682.448C573.518 682.448 575.158 684.088 575.158 686.111Z" fill="black"/>
<path d="M703.369 737.395C703.369 739.419 701.729 741.059 699.706 741.059C697.682 741.059 696.042 739.419 696.042 737.395C696.042 735.372 697.682 733.732 699.706 733.732C701.729 733.732 703.369 735.372 703.369 737.395Z" fill="black"/>
<path d="M703.369 671.459C703.369 673.482 701.729 675.122 699.706 675.122C697.682 675.122 696.042 673.482 696.042 671.459C696.042 669.435 697.682 667.795 699.706 667.795C701.729 667.795 703.369 669.435 703.369 671.459Z" fill="black"/>
<path d="M729.011 678.785C729.011 680.808 727.371 682.448 725.348 682.448C723.325 682.448 721.685 680.808 721.685 678.785C721.685 676.762 723.325 675.122 725.348 675.122C727.371 675.122 729.011 676.762 729.011 678.785Z" fill="black"/>
<path d="M783.958 645.816C783.958 647.84 782.318 649.48 780.295 649.48C778.272 649.48 776.632 647.84 776.632 645.816C776.632 643.793 778.272 642.153 780.295 642.153C782.318 642.153 783.958 643.793 783.958 645.816Z" fill="black"/>
<path d="M395.663 817.985C395.663 820.008 394.023 821.648 392 821.648C389.977 821.648 388.337 820.008 388.337 817.985C388.337 815.962 389.977 814.322 392 814.322C394.023 814.322 395.663 815.962 395.663 817.985Z" stroke="black" stroke-width="3.66316"/>
<path d="M586.148 843.627C586.148 845.65 584.508 847.29 582.485 847.29C580.461 847.29 578.821 845.65 578.821 843.627C578.821 841.604 580.461 839.964 582.485 839.964C584.508 839.964 586.148 841.604 586.148 843.627Z" stroke="black" stroke-width="3.66316"/>
<path d="M571.495 869.269C571.495 871.292 569.855 872.932 567.832 872.932C565.809 872.932 564.169 871.292 564.169 869.269C564.169 867.246 565.809 865.606 567.832 865.606C569.855 865.606 571.495 867.246 571.495 869.269Z" stroke="black" stroke-width="3.66316"/>
<path d="M644.758 861.943C644.758 863.966 643.118 865.606 641.095 865.606C639.072 865.606 637.432 863.966 637.432 861.943C637.432 859.92 639.072 858.28 641.095 858.28C643.118 858.28 644.758 859.92 644.758 861.943Z" stroke="black" stroke-width="3.66316"/>
<path d="M648.421 825.311C648.421 827.334 646.781 828.974 644.758 828.974C642.735 828.974 641.095 827.334 641.095 825.311C641.095 823.288 642.735 821.648 644.758 821.648C646.781 821.648 648.421 823.288 648.421 825.311Z" stroke="black" stroke-width="3.66316"/>
<path d="M721.685 843.627C721.685 845.65 720.044 847.29 718.021 847.29C715.998 847.29 714.358 845.65 714.358 843.627C714.358 841.604 715.998 839.964 718.021 839.964C720.044 839.964 721.685 841.604 721.685 843.627Z" stroke="black" stroke-width="3.66316"/>
<path d="M758.316 792.343C758.316 794.366 756.676 796.006 754.653 796.006C752.63 796.006 750.99 794.366 750.99 792.343C750.99 790.32 752.63 788.68 754.653 788.68C756.676 788.68 758.316 790.32 758.316 792.343Z" stroke="black" stroke-width="3.66316"/>
<path d="M359.032 741.059C359.032 743.082 357.392 744.722 355.369 744.722C353.346 744.722 351.706 743.082 351.706 741.059C351.706 739.035 353.346 737.395 355.369 737.395C357.392 737.395 359.032 739.035 359.032 741.059Z" stroke="black" stroke-width="3.66316"/>
<path d="M479.916 799.669C479.916 801.692 478.276 803.332 476.253 803.332C474.23 803.332 472.59 801.692 472.59 799.669C472.59 797.646 474.23 796.006 476.253 796.006C478.276 796.006 479.916 797.646 479.916 799.669Z" stroke="black" stroke-width="3.66316"/>
<path d="M468.927 872.932C468.927 874.955 467.287 876.595 465.263 876.595C463.24 876.595 461.6 874.955 461.6 872.932C461.6 870.909 463.24 869.269 465.263 869.269C467.287 869.269 468.927 870.909 468.927 872.932Z" stroke="black" stroke-width="3.66316"/>
<path d="M534.863 887.585C534.863 889.608 533.223 891.248 531.2 891.248C529.177 891.248 527.537 889.608 527.537 887.585C527.537 885.562 529.177 883.922 531.2 883.922C533.223 883.922 534.863 885.562 534.863 887.585Z" stroke="black" stroke-width="3.66316"/>
<path d="M659.411 792.343C659.411 794.366 657.771 796.006 655.748 796.006C653.725 796.006 652.085 794.366 652.085 792.343C652.085 790.32 653.725 788.68 655.748 788.68C657.771 788.68 659.411 790.32 659.411 792.343Z" stroke="black" stroke-width="3.66316"/>
<path d="M710.695 806.995C710.695 809.019 709.055 810.659 707.032 810.659C705.009 810.659 703.369 809.019 703.369 806.995C703.369 804.972 705.009 803.332 707.032 803.332C709.055 803.332 710.695 804.972 710.695 806.995Z" stroke="black" stroke-width="3.66316"/>
<path d="M681.39 869.269C681.39 871.292 679.75 872.932 677.727 872.932C675.704 872.932 674.063 871.292 674.063 869.269C674.063 867.246 675.704 865.606 677.727 865.606C679.75 865.606 681.39 867.246 681.39 869.269Z" stroke="black" stroke-width="3.66316"/>
<path d="M732.674 755.711C732.674 757.734 731.034 759.374 729.011 759.374C726.988 759.374 725.348 757.734 725.348 755.711C725.348 753.688 726.988 752.048 729.011 752.048C731.034 752.048 732.674 753.688 732.674 755.711Z" stroke="black" stroke-width="3.66316"/>
<path d="M392 763.038C392 765.061 390.36 766.701 388.337 766.701C386.314 766.701 384.674 765.061 384.674 763.038C384.674 761.014 386.314 759.374 388.337 759.374C390.36 759.374 392 761.014 392 763.038Z" stroke="black" stroke-width="3.66316"/>
<path d="M479.916 763.038C479.916 765.061 478.276 766.701 476.253 766.701C474.23 766.701 472.59 765.061 472.59 763.038C472.59 761.014 474.23 759.374 476.253 759.374C478.276 759.374 479.916 761.014 479.916 763.038Z" stroke="black" stroke-width="3.66316"/>
<path d="M479.916 697.101C479.916 699.124 478.276 700.764 476.253 700.764C474.23 700.764 472.59 699.124 472.59 697.101C472.59 695.078 474.23 693.438 476.253 693.438C478.276 693.438 479.916 695.078 479.916 697.101Z" stroke="black" stroke-width="3.66316"/>
<path d="M494.569 894.911C494.569 896.934 492.929 898.574 490.906 898.574C488.882 898.574 487.242 896.934 487.242 894.911C487.242 892.888 488.882 891.248 490.906 891.248C492.929 891.248 494.569 892.888 494.569 894.911Z" stroke="black" stroke-width="3.66316"/>
<path d="M593.474 894.911C593.474 896.934 591.834 898.574 589.811 898.574C587.788 898.574 586.148 896.934 586.148 894.911C586.148 892.888 587.788 891.248 589.811 891.248C591.834 891.248 593.474 892.888 593.474 894.911Z" stroke="black" stroke-width="3.66316"/>
<path d="M633.769 894.911C633.769 896.934 632.129 898.574 630.106 898.574C628.082 898.574 626.442 896.934 626.442 894.911C626.442 892.888 628.082 891.248 630.106 891.248C632.129 891.248 633.769 892.888 633.769 894.911Z" stroke="black" stroke-width="3.66316"/>
<path d="M696.042 763.038C696.042 765.061 694.402 766.701 692.379 766.701C690.356 766.701 688.716 765.061 688.716 763.038C688.716 761.014 690.356 759.374 692.379 759.374C694.402 759.374 696.042 761.014 696.042 763.038Z" stroke="black" stroke-width="3.66316"/>
<path d="M696.042 697.101C696.042 699.124 694.402 700.764 692.379 700.764C690.356 700.764 688.716 699.124 688.716 697.101C688.716 695.078 690.356 693.438 692.379 693.438C694.402 693.438 696.042 695.078 696.042 697.101Z" stroke="black" stroke-width="3.66316"/>
<path d="M769.306 744.722C769.306 746.745 767.666 748.385 765.642 748.385C763.619 748.385 761.979 746.745 761.979 744.722C761.979 742.699 763.619 741.059 765.642 741.059C767.666 741.059 769.306 742.699 769.306 744.722Z" stroke="black" stroke-width="3.66316"/>
<path d="M402.99 715.416C402.99 717.44 401.35 719.08 399.327 719.08C397.304 719.08 395.663 717.44 395.663 715.416C395.663 713.393 397.304 711.753 399.327 711.753C401.35 711.753 402.99 713.393 402.99 715.416Z" stroke="black" stroke-width="3.66316"/>
<path d="M439.621 843.627C439.621 845.65 437.981 847.29 435.958 847.29C433.935 847.29 432.295 845.65 432.295 843.627C432.295 841.604 433.935 839.964 435.958 839.964C437.981 839.964 439.621 841.604 439.621 843.627Z" stroke="black" stroke-width="3.66316"/>
<path d="M424.969 869.269C424.969 871.292 423.329 872.932 421.306 872.932C419.282 872.932 417.642 871.292 417.642 869.269C417.642 867.246 419.282 865.606 421.306 865.606C423.329 865.606 424.969 867.246 424.969 869.269Z" stroke="black" stroke-width="3.66316"/>
<path d="M571.495 796.006C571.495 798.029 569.855 799.669 567.832 799.669C565.809 799.669 564.169 798.029 564.169 796.006C564.169 793.983 565.809 792.343 567.832 792.343C569.855 792.343 571.495 793.983 571.495 796.006Z" stroke="black" stroke-width="3.66316"/>
<path d="M615.453 803.332C615.453 805.355 613.813 806.995 611.79 806.995C609.767 806.995 608.127 805.355 608.127 803.332C608.127 801.309 609.767 799.669 611.79 799.669C613.813 799.669 615.453 801.309 615.453 803.332Z" stroke="black" stroke-width="3.66316"/>
<path d="M564.169 913.227C564.169 915.25 562.529 916.89 560.506 916.89C558.482 916.89 556.842 915.25 556.842 913.227C556.842 911.204 558.482 909.564 560.506 909.564C562.529 909.564 564.169 911.204 564.169 913.227Z" stroke="black" stroke-width="3.66316"/>
<path d="M648.421 726.406C648.421 728.429 646.781 730.069 644.758 730.069C642.735 730.069 641.095 728.429 641.095 726.406C641.095 724.383 642.735 722.743 644.758 722.743C646.781 722.743 648.421 724.383 648.421 726.406Z" stroke="black" stroke-width="3.66316"/>
<path d="M648.421 660.469C648.421 662.492 646.781 664.132 644.758 664.132C642.735 664.132 641.095 662.492 641.095 660.469C641.095 658.446 642.735 656.806 644.758 656.806C646.781 656.806 648.421 658.446 648.421 660.469Z" stroke="black" stroke-width="3.66316"/>
<path d="M736.337 715.416C736.337 717.44 734.697 719.08 732.674 719.08C730.651 719.08 729.011 717.44 729.011 715.416C729.011 713.393 730.651 711.753 732.674 711.753C734.697 711.753 736.337 713.393 736.337 715.416Z" stroke="black" stroke-width="3.66316"/>
<path d="M761.979 678.785C761.979 680.808 760.339 682.448 758.316 682.448C756.293 682.448 754.653 680.808 754.653 678.785C754.653 676.762 756.293 675.122 758.316 675.122C760.339 675.122 761.979 676.762 761.979 678.785Z" stroke="black" stroke-width="3.66316"/>
<path d="M435.958 748.385C435.958 750.408 434.318 752.048 432.295 752.048C430.272 752.048 428.632 750.408 428.632 748.385C428.632 746.362 430.272 744.722 432.295 744.722C434.318 744.722 435.958 746.362 435.958 748.385Z" stroke="black" stroke-width="3.66316"/>
<path d="M435.958 788.68C435.958 790.703 434.318 792.343 432.295 792.343C430.272 792.343 428.632 790.703 428.632 788.68C428.632 786.657 430.272 785.016 432.295 785.016C434.318 785.016 435.958 786.657 435.958 788.68Z" stroke="black" stroke-width="3.66316"/>
<path d="M512.885 733.732C512.885 735.755 511.244 737.395 509.221 737.395C507.198 737.395 505.558 735.755 505.558 733.732C505.558 731.709 507.198 730.069 509.221 730.069C511.244 730.069 512.885 731.709 512.885 733.732Z" stroke="black" stroke-width="3.66316"/>
<path d="M512.885 667.795C512.885 669.819 511.244 671.459 509.221 671.459C507.198 671.459 505.558 669.819 505.558 667.795C505.558 665.772 507.198 664.132 509.221 664.132C511.244 664.132 512.885 665.772 512.885 667.795Z" stroke="black" stroke-width="3.66316"/>
<path d="M556.842 719.08C556.842 721.103 555.202 722.743 553.179 722.743C551.156 722.743 549.516 721.103 549.516 719.08C549.516 717.057 551.156 715.416 553.179 715.416C555.202 715.416 556.842 717.057 556.842 719.08Z" stroke="black" stroke-width="3.66316"/>
<path d="M600.8 697.101C600.8 699.124 599.16 700.764 597.137 700.764C595.114 700.764 593.474 699.124 593.474 697.101C593.474 695.078 595.114 693.438 597.137 693.438C599.16 693.438 600.8 695.078 600.8 697.101Z" stroke="black" stroke-width="3.66316"/>
<path d="M648.421 697.101C648.421 699.124 646.781 700.764 644.758 700.764C642.735 700.764 641.095 699.124 641.095 697.101C641.095 695.078 642.735 693.438 644.758 693.438C646.781 693.438 648.421 695.078 648.421 697.101Z" stroke="black" stroke-width="3.66316"/>
<path d="M696.042 697.101C696.042 699.124 694.402 700.764 692.379 700.764C690.356 700.764 688.716 699.124 688.716 697.101C688.716 695.078 690.356 693.438 692.379 693.438C694.402 693.438 696.042 695.078 696.042 697.101Z" stroke="black" stroke-width="3.66316"/>
<path d="M791.285 697.101C791.285 699.124 789.644 700.764 787.621 700.764C785.598 700.764 783.958 699.124 783.958 697.101C783.958 695.078 785.598 693.438 787.621 693.438C789.644 693.438 791.285 695.078 791.285 697.101Z" stroke="black" stroke-width="3.66316"/>
<path d="M505.558 843.627C505.558 845.65 503.918 847.29 501.895 847.29C499.872 847.29 498.232 845.65 498.232 843.627C498.232 841.604 499.872 839.964 501.895 839.964C503.918 839.964 505.558 841.604 505.558 843.627Z" stroke="black" stroke-width="3.66316"/>
<path d="M545.853 821.648C545.853 823.671 544.213 825.311 542.19 825.311C540.167 825.311 538.527 823.671 538.527 821.648C538.527 819.625 540.167 817.985 542.19 817.985C544.213 817.985 545.853 819.625 545.853 821.648Z" stroke="black" stroke-width="3.66316"/>
<path d="M531.2 792.343C531.2 794.366 529.56 796.006 527.537 796.006C525.514 796.006 523.874 794.366 523.874 792.343C523.874 790.32 525.514 788.68 527.537 788.68C529.56 788.68 531.2 790.32 531.2 792.343Z" stroke="black" stroke-width="3.66316"/>
<path d="M619.116 759.374C619.116 761.397 617.476 763.038 615.453 763.038C613.43 763.038 611.79 761.397 611.79 759.374C611.79 757.351 613.43 755.711 615.453 755.711C617.476 755.711 619.116 757.351 619.116 759.374Z" stroke="black" stroke-width="3.66316"/>
<path d="M439.621 693.438C439.621 695.461 437.981 697.101 435.958 697.101C433.935 697.101 432.295 695.461 432.295 693.438C432.295 691.414 433.935 689.774 435.958 689.774C437.981 689.774 439.621 691.414 439.621 693.438Z" stroke="black" stroke-width="3.66316"/>
<path d="M575.158 752.048C575.158 754.071 573.518 755.711 571.495 755.711C569.472 755.711 567.832 754.071 567.832 752.048C567.832 750.025 569.472 748.385 571.495 748.385C573.518 748.385 575.158 750.025 575.158 752.048Z" stroke="black" stroke-width="3.66316"/>
<path d="M575.158 686.111C575.158 688.134 573.518 689.774 571.495 689.774C569.472 689.774 567.832 688.134 567.832 686.111C567.832 684.088 569.472 682.448 571.495 682.448C573.518 682.448 575.158 684.088 575.158 686.111Z" stroke="black" stroke-width="3.66316"/>
<path d="M703.369 737.395C703.369 739.419 701.729 741.059 699.706 741.059C697.682 741.059 696.042 739.419 696.042 737.395C696.042 735.372 697.682 733.732 699.706 733.732C701.729 733.732 703.369 735.372 703.369 737.395Z" stroke="black" stroke-width="3.66316"/>
<path d="M703.369 671.459C703.369 673.482 701.729 675.122 699.706 675.122C697.682 675.122 696.042 673.482 696.042 671.459C696.042 669.435 697.682 667.795 699.706 667.795C701.729 667.795 703.369 669.435 703.369 671.459Z" stroke="black" stroke-width="3.66316"/>
<path d="M729.011 678.785C729.011 680.808 727.371 682.448 725.348 682.448C723.325 682.448 721.685 680.808 721.685 678.785C721.685 676.762 723.325 675.122 725.348 675.122C727.371 675.122 729.011 676.762 729.011 678.785Z" stroke="black" stroke-width="3.66316"/>
<path d="M783.958 645.816C783.958 647.84 782.318 649.48 780.295 649.48C778.272 649.48 776.632 647.84 776.632 645.816C776.632 643.793 778.272 642.153 780.295 642.153C782.318 642.153 783.958 643.793 783.958 645.816Z" stroke="black" stroke-width="3.66316"/>
</g>
<rect x="462.509" y="694.062" width="256.421" height="87.9158" rx="14.6526" transform="rotate(-4 462.509 694.062)" fill="black"/>
<path fill-rule="evenodd" clip-rule="evenodd" d="M695.388 677.778L485.427 692.46L492.167 718.118C494.844 728.31 504.376 735.164 514.883 734.465C504.381 735.234 495.896 743.348 494.663 753.813L491.559 780.162L701.521 765.48L694.781 739.82C692.103 729.627 682.57 722.773 672.062 723.474C682.565 722.705 691.052 714.591 692.285 704.125L695.388 677.778Z" fill="white"/>
<path d="M730.547 746.201L726.814 692.83C725.87 679.328 713.125 669.918 699.996 672.737C674.559 678.197 625.922 687.881 590.773 690.339C555.623 692.797 506.112 689.976 480.162 688.109C466.769 687.145 455.457 698.237 456.401 711.739L460.133 765.11C461.077 778.612 473.822 788.021 486.952 785.203C512.389 779.742 561.026 770.058 596.175 767.6C631.324 765.142 680.836 767.963 706.785 769.831C720.179 770.794 731.491 759.703 730.547 746.201Z" stroke="black" stroke-width="14.6526"/>
<path d="M366.357 430.423C388.947 439.581 443.65 441.412 481.747 375.476" stroke="black" stroke-width="14.6526" stroke-linecap="round"/>
<path d="M611.789 348.002C630.715 367.539 678.092 394.89 716.189 348.002" stroke="black" stroke-width="14.6526" stroke-linecap="round"/>
<path d="M556.842 205.136C610.568 202.694 704.834 172.901 652.084 73.2627" stroke="black" stroke-width="14.6526"/>
<path d="M461.6 197.81C515.326 195.368 609.592 165.574 556.842 65.9365" stroke="black" stroke-width="14.6526"/>
<path d="M329.726 238.105C383.453 235.663 477.718 205.869 424.968 106.231" stroke="black" stroke-width="14.6526"/>
<ellipse cx="445.224" cy="503.33" rx="32.9684" ry="49.4526" transform="rotate(-6.77646 445.224 503.33)" fill="black"/>
<ellipse cx="679.667" cy="466.698" rx="32.9684" ry="49.4526" transform="rotate(-6.27568 679.667 466.698)" fill="black"/>
<path d="M355.436 504.468L234.483 526.003" stroke="black" stroke-width="14.6526" stroke-linecap="round"/>
<path d="M360.656 427.153L493.416 409.853C505.453 408.285 516.685 416.742 518.504 428.744L537.045 551.059C538.864 563.06 530.581 574.061 518.544 575.63L399.918 591.088C388.846 592.53 378.279 585.467 375.35 574.665L342.675 454.192C339.229 441.485 347.631 428.85 360.656 427.153Z" stroke="black" stroke-width="14.6526"/>
<path d="M744.491 377.807L611.731 395.107C599.694 396.675 591.411 407.676 593.23 419.677L611.77 541.993C613.59 553.994 624.822 562.452 636.859 560.883L755.485 545.425C766.557 543.983 774.614 534.492 774.219 523.361L769.813 399.204C769.349 386.108 757.516 376.11 744.491 377.807Z" stroke="black" stroke-width="14.6526"/>
<path d="M527.225 486.994L604.355 475.617" stroke="black" stroke-width="14.6526"/>
<path d="M572.319 505.549C579.456 556.334 610.457 592.668 610.457 592.668C610.457 592.668 600.82 616.217 563.525 614.06" stroke="black" stroke-width="14.6526"/>
<path d="M283.936 546.455C275.401 543.644 266.187 542.148 256.756 542.148C218.317 542.148 187.156 565.959 190.819 609.917C194.635 655.706 221.98 672.191 260.419 672.191C264.696 672.191 268.883 671.815 272.947 671.096C277.381 670.311 281.669 669.117 285.768 667.556" stroke="black" stroke-width="29.3053"/>
<path d="M287.6 666.828C279.249 670.281 270.063 672.191 260.419 672.191C221.98 672.191 194.635 655.706 190.819 609.917C187.156 565.959 218.317 542.148 256.756 542.148C268.249 542.148 279.419 544.37 289.431 548.484L287.6 666.828Z" fill="#F9C9B6"/>
<path d="M272.947 573.287C258.294 566.572 226.059 563.03 214.336 602.593" stroke="black" stroke-width="14.6526"/>
<path d="M234.484 575.117C242.421 581.833 257.562 602.591 254.631 631.896" stroke="black" stroke-width="14.6526"/>
<path d="M1013.61 1289.44H12.402C72.1103 1181.95 157.036 1113.54 294.722 1082.15C353.381 1068.77 421.717 1062.1 501.893 1062.1C536.531 1062.1 563.484 1067.38 589.062 1074.36C598.538 1076.94 608.062 1079.83 617.805 1082.79C633.931 1087.69 650.658 1092.78 668.759 1096.93L669.272 1097.05L669.796 1097.09C838.761 1111.03 940.08 1186.08 1013.61 1289.44Z" fill="#F4D150" stroke="black" stroke-width="14.6526"/>
<path d="M252.541 1090.09L286.07 1018.3C286.871 1016.59 288.861 1015.77 290.645 1016.41C429.576 1065.58 555.964 1062.12 673.092 1029.52C674.566 1029.11 676.141 1029.65 677.044 1030.88L728.081 1100.68C729.483 1102.59 728.768 1105.3 726.556 1106.17C603.448 1154.51 372.445 1146.29 254.316 1094.94C252.442 1094.12 251.676 1091.94 252.541 1090.09Z" fill="white" stroke="black" stroke-width="14.6526"/>
<defs>
<clipPath id="clip0_262_714">
<rect width="732.632" height="1172.21" fill="white" transform="translate(157.558 43.96)"/>
</clipPath>
</defs>
</svg>
