<svg width="1300" height="1300" viewBox="0 0 1300 1300" fill="none" xmlns="http://www.w3.org/2000/svg">
<mask id="mask0_610_1293" style="mask-type:alpha" maskUnits="userSpaceOnUse" x="0" y="0" width="1296" height="1296">
<circle cx="647.869" cy="647.869" r="647.869" fill="#D9D9D9"/>
</mask>
<g mask="url(#mask0_610_1293)">
<path d="M1003.04 1182.75C1000.07 1184.87 996.669 1186.99 993.695 1189.12C990.296 1191.24 987.322 1193.37 983.923 1195.07C980.95 1196.76 978.401 1198.46 975.427 1200.16C975.002 1200.59 974.577 1200.59 974.152 1201.01C964.381 1206.96 954.185 1212.48 943.989 1217.58C941.015 1219.28 937.616 1220.98 934.642 1222.26C934.642 1222.26 934.218 1222.68 933.793 1222.68C930.394 1224.38 926.995 1226.08 923.597 1227.78C916.799 1231.18 909.577 1234.15 902.78 1237.12C899.381 1238.82 895.557 1240.1 892.159 1241.37C888.76 1242.65 884.937 1244.35 881.538 1245.62C878.139 1246.9 874.316 1248.59 870.917 1249.87C870.917 1249.87 870.917 1249.87 870.492 1249.87C867.093 1251.14 863.27 1252.42 859.871 1253.69C852.224 1256.24 844.152 1258.79 836.505 1261.34C833.956 1262.19 830.982 1263.04 828.433 1263.89C820.361 1266.44 812.29 1268.56 804.218 1270.26C801.244 1271.11 798.27 1271.54 794.871 1272.39C787.224 1274.09 779.152 1275.78 771.505 1277.48C769.806 1277.91 768.531 1277.91 766.832 1278.33C764.283 1278.76 761.309 1279.18 758.76 1279.61C754.937 1280.03 751.538 1280.88 747.714 1281.31C746.015 1281.73 744.316 1281.73 742.616 1282.16C740.492 1282.58 737.943 1283.01 735.394 1283.01C728.597 1283.86 721.374 1284.71 714.577 1285.56C712.453 1285.98 709.904 1285.98 707.78 1286.41H707.355C704.381 1286.83 701.407 1286.83 698.433 1287.25C695.459 1287.68 692.486 1287.68 689.512 1287.68C687.812 1287.68 685.688 1288.1 683.989 1288.1C680.59 1288.1 677.616 1288.53 674.642 1288.53C670.394 1288.53 666.571 1288.95 662.322 1288.95C658.074 1288.95 654.25 1288.95 650.002 1288.95C647.028 1288.95 644.054 1288.95 641.08 1288.95C461.799 1286.41 300.786 1210.36 185.656 1089.71C185.656 1089.71 185.656 1089.28 185.231 1089.28C172.486 1077.81 183.531 1016.63 234.937 977.974C299.512 929.118 454.152 898.53 454.152 898.53C454.152 898.53 514.054 888.758 736.244 935.066C866.244 962.255 965.231 1001.76 1020.46 1108.82C1031.93 1130.92 1043.4 1164.9 1003.04 1182.75Z" fill="white"/>
<path d="M737.518 930.392C819.087 946.961 906.178 964.804 973.302 1018.76C995.819 1037.03 1010.69 1063.79 1023.01 1089.71C1028.96 1102.45 1034.9 1115.62 1039.58 1129.64C1042.13 1138.99 1045.95 1149.61 1043.83 1160.65C1043.4 1163.63 1040.85 1167.45 1038.73 1169.58C1028.96 1179.35 1018.34 1185.29 1007.71 1192.94C945.263 1236.27 873.466 1266.86 799.119 1283.01C633.433 1319.12 454.152 1291.08 308.433 1203.99C260.002 1174.67 215.394 1138.99 177.159 1096.93C172.91 1091.83 172.91 1083.33 172.91 1077.81C173.335 1065.07 176.734 1052.75 180.982 1041.27C191.178 1014.93 204.348 988.595 226.864 970.327C243.008 959.281 260.427 949.935 278.27 942.288C334.348 918.497 393.4 901.928 454.152 895.131C459.25 894.706 460.1 901.928 455.002 902.778C396.799 914.673 339.021 932.516 285.067 956.732C265.525 966.503 244.708 975 228.989 990.294C214.119 1006.44 203.498 1026.41 195.002 1046.8C189.479 1059.12 185.655 1078.66 187.355 1088.43C214.119 1120.29 245.557 1148.33 279.544 1172.55C465.623 1302.55 748.139 1311.05 946.113 1202.71C963.956 1192.94 981.374 1181.9 997.943 1170.42C1006.01 1164.9 1014.51 1160.23 1020.88 1153.86C1021.31 1153.43 1020.88 1153.86 1020.88 1154.28C1020.88 1154.71 1020.46 1155.13 1020.46 1155.13C1020.88 1150.03 1019.18 1143.24 1017.06 1136.44C1009.41 1111.8 997.093 1085.88 983.923 1063.37C963.106 1029.8 927.845 1008.56 892.159 991.569C867.518 980.098 841.603 971.177 815.263 962.68C788.923 954.183 762.159 946.961 735.394 940.588C728.597 938.889 730.721 929.118 737.518 930.392Z" fill="black"/>
<path d="M386.177 911.698C401.046 938.038 457.549 1043.82 466.471 1137.29L519.15 1155.13C519.15 1155.13 479.216 978.398 407.843 896.404C407.843 896.404 399.346 892.581 388.726 899.803C385.327 902.777 383.628 907.45 386.177 911.698Z" fill="black"/>
<path d="M838.201 1138.56C838.201 1138.56 840.75 1020.88 789.769 943.562C788.495 941.438 790.194 938.464 792.743 938.889C796.142 939.738 801.24 941.013 809.312 944.836C822.907 951.209 867.09 1018.76 870.913 1129.64C870.913 1129.22 842.449 1138.56 838.201 1138.56Z" fill="black"/>
<path d="M983.496 1028.1C961.405 1004.74 894.705 969.901 883.235 970.751C883.659 971.601 883.66 972.875 884.084 974.15C901.927 1038.3 887.483 1125.39 822.483 1139.84C754.934 1154.71 698.431 1156.83 562.908 1143.23C463.496 1133.46 370.032 1044.25 322.45 955.882C317.777 946.96 312.254 938.038 306.307 929.967C302.908 927.417 296.535 927.842 291.862 931.666C279.967 941.437 264.248 940.587 264.248 949.934C264.248 949.934 174.182 977.973 142.744 1175.52C124.901 1287.25 99.836 1432.12 98.9863 1481.4H1066.34C1059.54 1415.13 1066.34 1119.87 983.496 1028.1Z" fill="black"/>
<path d="M975.425 1035.75C962.68 1023.01 946.111 1013.23 930.392 1003.89C915.948 995.391 898.105 986.045 883.236 981.796L893.007 968.202L893.432 970.751C905.327 1020.46 902.778 1079.51 868.366 1120.29C856.471 1133.89 839.053 1143.66 821.209 1146.63C788.072 1153.43 753.66 1157.25 719.673 1157.25C660.196 1156.83 601.569 1152.16 542.941 1144.08C501.307 1135.16 462.647 1114.35 429.085 1088.43C381.928 1051.89 345.817 1003.89 312.255 955.032C307.582 948.234 302.059 941.862 296.111 936.339L298.236 938.888C299.085 939.738 299.51 939.313 299.085 939.313C299.085 939.313 298.236 939.313 297.811 939.737C297.386 939.737 297.386 939.737 296.961 940.587C290.164 946.535 279.118 949.509 272.32 953.332C272.745 953.332 273.595 950.783 273.595 950.358L265.948 960.555L264.673 960.979L262.974 961.829C204.771 993.267 176.732 1068.04 161.438 1129.21C146.569 1198.89 137.647 1270.69 125.752 1340.78C118.954 1387.52 110.458 1435.52 108.334 1481.83L97.2878 1470.78H1066.34L1055.72 1482.68C1046.8 1365 1051.47 1126.24 975.425 1035.75ZM991.569 1020.88C1073.56 1116.47 1068.46 1356.5 1077.39 1480.55C1077.81 1486.5 1073.56 1492.02 1067.61 1492.45C1067.19 1493.3 99.412 1492.02 98.9872 1492.45C93.0394 1492.45 87.9414 1487.78 87.9414 1481.83C88.7911 1456.76 92.1898 1432.55 95.1636 1408.76C104.935 1337.38 116.83 1266.44 128.301 1195.49C135.523 1147.91 145.294 1099.05 164.412 1054.02C183.53 1009.41 211.994 962.679 257.876 941.012C258.726 940.587 259.575 940.162 260.85 939.737L253.203 949.934C252.778 935.064 268.922 931.241 279.118 926.992C285.915 923.169 291.438 917.646 299.935 917.646C304.183 917.221 311.83 918.921 315.229 924.019C321.177 935.914 326.275 947.809 331.373 959.705C339.87 978.822 350.915 996.666 363.66 1013.23C409.543 1071.44 471.569 1122.42 545.49 1137.29C570.131 1141.53 595.621 1142.38 620.262 1144.51C686.961 1149.18 754.085 1150.03 819.085 1133.89C834.379 1130.49 847.549 1122.42 857.321 1110.52C886.209 1073.99 886.209 1020.46 873.464 977.123L872.615 973.724C870.49 967.352 875.589 960.13 882.386 960.13C894.706 960.554 904.053 966.502 915.098 971.175C942.288 984.77 969.053 999.215 991.569 1020.88Z" fill="black"/>
<path d="M848.399 1185.72C778.726 1215.46 549.739 1222.25 433.334 1159.38C359.837 1119.87 312.256 1032.78 289.314 999.215C272.321 973.725 263.824 949.934 263.824 949.934C263.824 940.588 279.968 941.438 291.439 931.666C296.112 927.843 302.484 927.418 305.883 929.967C311.831 938.464 317.354 946.96 322.027 955.882C369.609 1043.82 444.805 1132.19 562.484 1143.24C698.007 1155.98 754.511 1154.71 822.06 1139.84C887.06 1125.39 901.504 1038.3 883.661 974.15C883.236 973.3 883.236 972.026 882.811 970.751C894.282 969.902 916.373 972.026 924.445 992.418C924.87 992.418 957.582 1139.41 848.399 1185.72Z" fill="white"/>
<path d="M850.948 1191.67C822.908 1203.14 793.595 1207.38 764.281 1210.78C734.967 1214.18 705.653 1215.46 676.34 1215.46C602.843 1214.61 528.072 1207.81 458.823 1181.47C379.804 1153.01 328.823 1081.21 286.34 1013.23C273.595 994.542 261.699 975.424 254.477 953.757C252.353 948.234 255.751 940.587 260.425 937.189C266.797 932.091 274.019 932.091 280.392 929.542C284.64 928.267 287.189 925.718 291.013 923.594C297.81 920.62 305.457 918.071 313.954 921.895C362.81 1028.53 443.104 1130.49 568.856 1139.41C652.124 1147.06 737.091 1155.55 819.51 1136.44C852.647 1130.91 874.314 1101.18 881.961 1069.74C890.457 1037.88 887.908 1003.46 878.987 972.025C878.137 969.051 880.261 966.078 883.235 966.078C901.503 964.378 924.019 972.45 930.392 991.568C937.614 1029.8 937.614 1068.89 926.568 1105.85C915.523 1143.66 887.484 1176.8 850.948 1191.67ZM845.85 1179.77C879.836 1166.18 904.902 1137.29 916.372 1102.88C927.843 1068.04 929.117 1029.38 921.895 993.267C916.797 979.248 898.954 973.3 883.66 975.424L887.908 969.476C902.353 1023.86 899.379 1102.03 845.425 1134.74C837.778 1138.99 829.281 1141.96 820.784 1143.66C804.216 1147.06 787.222 1150.03 770.653 1152.16C703.104 1159.38 635.131 1153.86 568.006 1148.33C452.876 1142.38 364.085 1051.89 314.804 954.182C311.405 946.535 307.582 939.313 303.758 931.666L304.608 932.516C298.235 928.692 291.438 937.614 285.49 939.738C279.967 942.712 274.019 943.986 269.346 946.96C268.497 947.81 268.072 948.659 268.072 949.934V948.659C277.843 975.424 295.686 999.64 310.98 1023.43C349.64 1082.91 396.372 1142.81 465.196 1167.45C561.209 1205.69 747.287 1215.03 845.85 1179.77Z" fill="black"/>
<path d="M777.447 1043.4C768.525 1087.16 710.748 1113.5 613.46 1073.99C512.349 1033.2 468.591 935.915 457.545 907.026C517.447 794.869 475.813 717.124 475.813 717.124C613.885 705.229 734.538 866.667 734.538 866.667L753.231 946.536C754.931 953.333 758.329 959.281 763.427 963.529C772.349 979.248 782.97 1015.36 777.447 1043.4Z" fill="white"/>
<path d="M455.423 908.301C463.495 895.98 468.593 881.536 471.992 867.516C478.364 838.203 480.489 808.464 480.913 778.725V767.68C479.639 756.634 475.815 745.163 471.567 734.967C466.044 721.373 486.011 712.876 492.384 726.471C493.234 728.17 493.234 731.144 493.234 732.843C494.508 790.621 497.057 864.967 460.521 912.974C457.972 915.523 452.874 911.699 455.423 908.301Z" fill="black"/>
<path d="M739.212 865.817C745.585 869.641 747.709 874.739 748.559 879.837C751.108 890.033 750.258 901.079 752.807 911.7C754.931 921.896 761.304 931.667 763.003 942.288C765.128 953.334 771.5 976.7 774.049 988.17C774.899 990.719 773.199 993.693 770.226 994.118C768.526 994.543 767.252 994.118 765.977 993.268C760.454 988.595 757.905 983.922 754.507 977.974C748.984 967.778 745.16 958.432 741.762 946.961C738.788 936.765 740.062 925.719 737.513 915.098C735.389 904.902 729.441 895.131 727.317 884.51C726.043 879.412 725.618 873.889 729.441 867.517C731.99 864.968 736.239 864.118 739.212 865.817Z" fill="black"/>
<path d="M769.802 977.974C688.658 973.725 622.384 948.235 557.809 833.104C612.188 881.111 676.338 899.379 743.887 907.876L752.809 946.961C754.508 953.758 764.704 973.725 769.802 977.974Z" fill="black"/>
<path d="M766.404 962.255C780.849 989.444 789.346 1023.43 780.424 1053.59C773.627 1074.84 754.084 1090.56 732.842 1096.5C683.561 1109.67 626.633 1088.86 582.875 1065.49C528.921 1035.33 488.986 984.771 463.496 929.542C461.797 925.294 467.744 921.895 470.293 926.144C479.215 943.987 489.411 961.405 500.882 977.124C512.352 993.268 525.522 1008.14 540.391 1021.31C583.725 1060.39 642.352 1084.61 700.98 1084.61C761.306 1082.91 784.248 1051.05 770.228 992.418C768.104 983.072 764.705 973.301 760.032 965.229C757.483 961.83 763.855 958.006 766.404 962.255Z" fill="black"/>
<path d="M930.815 452.026C938.462 487.712 912.972 525.948 912.972 621.111C912.972 718.399 895.128 824.183 821.632 897.68C758.331 960.98 685.684 958.431 600.292 891.732C588.396 882.386 546.762 850.948 536.142 840.327C523.821 828.007 517.024 819.085 511.076 809.739C505.978 801.242 507.253 751.961 500.03 740.49C481.338 709.477 477.514 743.039 453.298 715.85C419.736 679.314 379.377 605.817 399.344 475.817C431.632 265.098 598.592 240.458 722.22 263.824C846.697 287.614 910.423 358.137 930.815 452.026Z" fill="white"/>
<path d="M474.541 753.66C464.77 737.516 452.449 723.072 440.979 708.202C429.508 692.484 420.162 675.915 412.515 658.072C369.181 553.137 375.554 415.915 452.449 327.549C505.129 267.222 588.397 247.255 664.868 251.503C741.338 256.176 820.783 275.719 877.286 330.948C909.998 362.81 930.815 405.294 940.162 449.477C943.136 463.497 941.011 478.791 937.613 491.961C927.842 528.921 918.495 564.183 917.645 602.418C918.07 659.346 916.371 717.549 899.802 772.353C887.907 808.889 873.887 845.425 851.796 877.287C828.855 909.575 794.443 935.49 754.933 943.137C675.489 959.281 601.142 909.15 548.462 854.771C546.338 852.222 549.312 849.248 551.861 850.948C582.024 873.889 613.038 895.131 646.6 909.575C743.462 954.183 823.757 912.974 866.24 819.51C901.926 751.536 912.123 678.039 909.149 601.993C909.149 582.876 909.998 563.758 912.547 544.64C915.096 517.026 924.443 489.412 924.018 462.222C916.796 418.039 896.404 375.555 865.815 342.843C793.168 265.948 653.822 243.431 556.109 278.268C440.979 319.052 409.966 435.033 403.593 545.915C399.345 612.189 418.887 677.189 469.018 722.647L488.985 743.464C495.783 752.81 481.338 763.856 474.541 753.66Z" fill="black"/>
<path d="M524.672 618.562C524.672 618.562 511.502 554.837 449.476 562.484C395.946 569.281 377.254 697.582 498.757 733.268" fill="white"/>
<path d="M493.234 677.614C483.463 672.092 476.666 662.745 476.241 651.275C476.666 642.778 477.94 633.007 475.816 624.51C474.541 616.438 466.045 614.314 459.672 614.739C452.875 616.013 448.626 624.51 447.352 631.307C447.352 631.732 446.927 633.007 446.927 633.431C446.502 635.556 443.103 635.556 442.254 633.431C436.731 616.863 449.051 598.595 466.894 600.719C491.96 602.418 495.358 628.758 490.685 648.726C488.136 657.222 491.535 664.869 496.208 672.092L497.058 673.366C499.182 675.915 495.783 679.314 493.234 677.614Z" fill="black"/>
<path d="M833.103 573.529C839.476 603.693 851.371 631.732 866.241 658.072C879.411 690.359 845.424 720.947 815.26 719.673C811.862 719.673 811.437 715 814.411 714.15C833.528 708.202 850.947 695.457 853.92 675.915C855.195 669.967 853.496 664.869 850.522 659.771C836.502 633.431 828.005 603.268 830.13 573.529C830.13 571.405 833.103 571.405 833.103 573.529Z" fill="black"/>
<path d="M522.549 618.987C512.777 593.921 491.536 570.13 463.072 570.555C460.523 570.13 456.274 570.98 453.725 570.98C446.503 571.405 440.555 573.954 435.032 579.052C407.843 606.241 412.516 654.248 434.608 684.411C442.255 695.032 452.026 704.379 463.072 712.026C474.117 719.673 486.438 725.621 499.608 730.719C502.581 731.568 501.307 736.241 498.333 735.817C469.869 729.869 442.679 715.849 423.987 692.483C395.098 657.647 389.15 599.444 423.562 565.457C431.209 558.66 441.83 553.562 452.451 553.562C455.849 553.562 460.947 552.712 464.346 553.562C482.189 554.411 499.183 563.333 510.228 577.353C520 589.248 525.523 603.692 527.222 618.137C527.222 620.686 523.398 621.536 522.549 618.987Z" fill="black"/>
<path d="M791.043 760.457C791.468 767.255 786.37 779.15 777.023 787.647C729.017 758.333 707.35 773.627 707.35 773.627C690.357 747.712 694.18 712.451 735.389 739.215C763.853 757.908 781.697 760.882 791.043 760.457Z" fill="black"/>
<path d="M776.599 788.072C766.403 796.993 751.109 802.516 730.292 794.019C720.521 790.196 712.873 782.549 706.926 774.052C707.351 774.052 728.592 758.758 776.599 788.072Z" fill="white"/>
<path d="M799.115 759.183C799.115 759.183 781.272 768.954 735.389 739.64C680.585 704.379 691.631 778.3 730.291 794.019C770.651 810.588 791.468 774.477 791.043 760.882" stroke="black" stroke-width="3" stroke-miterlimit="10" stroke-linecap="round" stroke-linejoin="round"/>
<path d="M707.352 774.052C707.352 774.052 729.018 758.758 777.025 788.072" stroke="black" stroke-width="3" stroke-miterlimit="10" stroke-linecap="round" stroke-linejoin="round"/>
<path d="M740.065 518.3C749.411 517.451 754.084 506.405 748.986 497.908C746.012 493.66 742.189 489.836 736.666 487.712C720.522 482.614 667.842 494.085 644.901 520.424C624.509 544.64 697.581 522.124 740.065 518.3Z" fill="black"/>
<path d="M852.223 525.097C845.001 522.973 842.877 512.352 848.824 505.555C851.798 502.156 856.047 499.182 860.72 498.333C875.164 495.784 908.301 508.953 917.648 534.019C926.145 555.686 886.635 533.594 852.223 525.097Z" fill="black"/>
<path d="M674.642 616.863C664.446 616.438 656.799 607.941 657.648 597.745L658.073 585.849C658.498 575.653 666.995 568.006 677.191 568.856C687.387 569.281 695.034 577.778 694.184 587.974L693.76 599.869C693.335 609.64 684.838 617.287 674.642 616.863Z" fill="black"/>
<path d="M853.496 623.235C844.149 622.81 836.927 614.738 837.352 605.392L837.777 594.346C838.201 585 846.273 577.778 855.62 578.202C864.966 578.627 872.188 586.699 871.764 596.046L871.339 607.091C870.914 616.438 862.842 623.66 853.496 623.235Z" fill="black"/>
<path d="M712.875 593.921C698.855 584.575 683.561 578.202 666.568 581.601C661.045 582.45 655.522 584.15 652.123 587.973C650.849 589.673 647.875 589.248 647.875 586.699C648.3 578.202 655.522 572.679 662.319 569.28C675.489 562.483 693.757 563.758 705.653 572.679C709.901 575.228 724.346 590.947 716.699 594.346C714.999 595.195 714.15 594.771 712.875 593.921Z" fill="black"/>
<path d="M834.377 596.046C834.377 578.203 856.469 571.83 870.063 578.203C877.71 581.602 883.233 588.399 885.357 596.471C886.207 599.02 882.384 601.144 880.684 599.02C873.462 590.523 861.142 586.275 851.37 591.373C848.397 593.072 847.972 594.347 847.122 596.046C847.122 604.543 834.802 604.118 834.377 596.046Z" fill="black"/>
<path d="M932 573.952C932.425 571.828 932.85 569.704 932.85 567.58C937.098 540.815 940.072 516.174 941.771 492.808C945.17 445.227 936.249 359.41 867.85 308.005C861.902 303.331 855.53 299.083 848.307 295.259C842.36 291.861 835.987 288.887 829.615 285.913C773.961 262.122 684.32 233.658 595.53 248.952C561.543 254.475 527.556 266.795 495.693 287.612C495.268 287.612 495.268 288.037 495.268 288.037C417.948 339.018 390.758 419.737 376.314 495.782C371.641 519.998 368.242 544.214 365.268 566.305C363.569 577.776 361.869 588.822 360.17 599.018C353.797 637.678 332.556 672.089 310.039 699.279C308.765 700.554 307.49 702.253 306.216 703.527C287.948 724.344 269.68 740.913 256.935 750.684C256.085 751.109 255.235 751.959 254.811 752.384C282.85 840.75 389.909 907.024 488.896 926.991C503.34 863.691 513.111 799.54 500.791 733.691C497.392 732.416 495.693 731.142 495.693 730.292C378.438 693.331 397.131 567.58 450.235 560.782C469.353 558.233 483.373 562.906 494.418 569.704C509.288 580.75 525.431 608.364 525.431 616.436C526.281 597.743 534.353 571.828 544.124 570.978C554.32 570.129 564.516 568.005 574.288 564.181C623.144 547.188 667.752 501.305 707.262 460.521C761.641 404.442 805.824 356.861 837.262 404.018C838.961 406.567 840.66 409.116 841.935 411.665C879.32 410.815 896.739 432.482 905.66 454.998C905.66 454.998 905.66 454.998 905.66 455.423C912.883 474.54 913.732 494.083 914.582 499.181C914.582 500.031 914.582 500.456 915.007 500.456C914.157 517.449 912.033 546.338 911.608 583.723C911.608 600.717 913.307 634.704 912.033 654.246C911.608 660.194 911.183 666.142 910.758 671.665C910.334 674.639 910.334 677.612 909.909 680.161C909.484 682.71 909.484 685.684 909.059 688.658C908.634 692.906 908.209 697.155 907.785 701.828C907.36 705.652 906.935 709.475 906.51 713.299V713.723C906.085 716.697 905.66 719.246 905.235 721.795C898.863 755.782 889.092 791.893 875.072 813.56C847.033 857.318 824.941 894.279 784.582 912.972C744.647 931.24 699.19 935.063 699.19 935.063C699.19 935.063 711.935 943.135 742.098 944.835C771.837 946.534 793.928 937.612 816.02 941.436C863.177 949.508 946.02 949.508 946.02 949.508C1008.05 786.371 903.111 778.723 932 573.952Z" fill="black"/>
<path d="M601.143 700.98C613.038 694.608 624.509 687.811 637.679 684.412C638.953 684.412 639.803 683.987 642.352 684.837C651.273 691.634 625.358 708.628 620.685 712.876C621.96 711.177 621.535 708.203 619.411 707.353C618.986 707.353 618.986 706.928 618.561 706.928C617.711 706.928 617.711 706.928 617.711 706.928C628.332 703.105 638.953 698.856 649.149 693.758C655.097 691.209 663.169 685.686 669.541 685.262C672.09 685.262 675.064 687.811 674.639 690.36C674.215 693.758 673.365 695.033 672.515 697.157C671.666 698.856 669.966 701.405 669.541 703.105C669.541 703.529 669.117 702.68 669.117 702.68C669.117 703.105 671.666 703.105 672.09 702.68C678.888 701.83 686.11 699.281 692.907 696.732C694.182 696.307 695.032 698.007 693.757 698.856C686.535 703.529 678.888 708.628 669.541 709.477C663.594 709.902 660.62 704.379 662.744 699.281C663.594 696.307 665.718 692.909 666.568 690.36C666.568 691.209 667.417 692.484 668.267 692.909C669.117 693.333 669.541 692.909 669.117 693.333C664.868 694.608 656.371 699.281 652.548 700.98C641.502 706.079 630.881 710.752 618.986 714.15C618.136 714.15 618.136 714.575 616.862 714.15C613.463 713.726 612.613 709.477 615.162 707.353C620.26 703.105 626.208 699.706 630.881 695.458C633.43 693.333 636.404 690.36 638.103 687.811C638.103 688.235 638.528 689.085 638.953 689.51C635.13 689.935 627.483 692.059 622.809 694.183C616.012 696.732 608.79 699.706 601.992 702.68C601.143 703.529 599.868 701.405 601.143 700.98Z" fill="black"/>
<path d="M876.436 700.98C880.26 696.732 896.404 676.34 900.652 686.961C900.652 687.81 900.652 688.66 900.652 689.085C898.953 697.582 893.43 704.804 889.182 712.026C890.031 709.902 888.332 706.928 886.208 706.503C885.358 706.503 884.933 706.503 884.508 706.503C884.084 706.503 884.508 706.503 884.933 706.078C893.43 700.556 899.802 693.758 908.299 687.81C909.999 686.961 912.123 685.686 914.247 686.961C916.371 688.66 915.946 691.209 915.097 692.908C914.247 695.033 913.397 696.732 912.548 698.856C912.123 699.281 911.698 699.706 910.848 699.281C910.423 699.281 910.423 698.856 910.423 698.431C910.423 697.582 910.423 692.059 910.423 691.209C910.423 690.784 909.999 690.359 910.423 691.209C910.423 691.634 911.273 692.484 912.123 692.484C912.548 692.484 913.397 692.484 913.397 692.484C906.175 700.98 897.678 709.052 887.907 714.575C884.933 715.85 881.535 713.301 881.959 709.902C881.959 709.477 882.384 708.627 882.809 708.203C885.783 703.954 889.182 699.706 891.731 695.457C893.005 693.333 894.704 690.359 895.129 688.235C895.129 689.085 896.829 690.359 897.253 689.935C890.456 692.484 884.508 698.007 878.561 702.255C876.861 703.529 875.587 701.83 876.436 700.98Z" fill="black"/>
</g>
</svg>
