<svg width="1300" height="1300" viewBox="0 0 1300 1300" fill="none" xmlns="http://www.w3.org/2000/svg">
<mask id="mask0_610_1323" style="mask-type:alpha" maskUnits="userSpaceOnUse" x="0" y="0" width="1296" height="1296">
<circle cx="647.869" cy="647.869" r="647.869" fill="#D9D9D9"/>
</mask>
<g mask="url(#mask0_610_1323)">
<path d="M1003.04 1182.75C1000.07 1184.87 996.669 1186.99 993.695 1189.12C990.296 1191.24 987.322 1193.37 983.923 1195.07C980.95 1196.76 978.401 1198.46 975.427 1200.16C975.002 1200.59 974.577 1200.59 974.152 1201.01C964.381 1206.96 954.185 1212.48 943.989 1217.58C941.015 1219.28 937.616 1220.98 934.642 1222.26C934.642 1222.26 934.218 1222.68 933.793 1222.68C930.394 1224.38 926.995 1226.08 923.597 1227.78C916.799 1231.18 909.577 1234.15 902.78 1237.12C899.381 1238.82 895.557 1240.1 892.159 1241.37C888.76 1242.65 884.937 1244.35 881.538 1245.62C878.139 1246.9 874.316 1248.59 870.917 1249.87C870.917 1249.87 870.917 1249.87 870.492 1249.87C867.093 1251.14 863.27 1252.42 859.871 1253.69C852.224 1256.24 844.152 1258.79 836.505 1261.34C833.956 1262.19 830.982 1263.04 828.433 1263.89C820.361 1266.44 812.29 1268.56 804.218 1270.26C801.244 1271.11 798.27 1271.54 794.871 1272.39C787.224 1274.09 779.152 1275.78 771.505 1277.48C769.806 1277.91 768.531 1277.91 766.832 1278.33C764.283 1278.76 761.309 1279.18 758.76 1279.61C754.937 1280.03 751.538 1280.88 747.714 1281.31C746.015 1281.73 744.316 1281.73 742.616 1282.16C740.492 1282.58 737.943 1283.01 735.394 1283.01C728.597 1283.86 721.374 1284.71 714.577 1285.56C712.453 1285.98 709.904 1285.98 707.78 1286.41H707.355C704.381 1286.83 701.407 1286.83 698.433 1287.25C695.459 1287.68 692.486 1287.68 689.512 1287.68C687.812 1287.68 685.688 1288.1 683.989 1288.1C680.59 1288.1 677.616 1288.53 674.642 1288.53C670.394 1288.53 666.571 1288.95 662.322 1288.95C658.074 1288.95 654.25 1288.95 650.002 1288.95C647.028 1288.95 644.054 1288.95 641.08 1288.95C461.799 1286.41 300.786 1210.36 185.656 1089.71C185.656 1089.71 185.656 1089.28 185.231 1089.28C172.486 1077.81 183.531 1016.63 234.937 977.974C299.512 929.118 454.152 898.53 454.152 898.53C454.152 898.53 514.054 888.758 736.244 935.066C866.244 962.255 965.231 1001.76 1020.46 1108.82C1031.93 1130.92 1043.4 1164.9 1003.04 1182.75Z" fill="white"/>
<path d="M737.518 930.392C819.087 946.961 906.178 964.804 973.302 1018.76C995.819 1037.03 1010.69 1063.79 1023.01 1089.71C1028.96 1102.45 1034.9 1115.62 1039.58 1129.64C1042.13 1138.99 1045.95 1149.61 1043.83 1160.65C1043.4 1163.63 1040.85 1167.45 1038.73 1169.58C1028.96 1179.35 1018.34 1185.29 1007.71 1192.94C945.263 1236.27 873.466 1266.86 799.119 1283.01C633.433 1319.12 454.152 1291.08 308.433 1203.99C260.002 1174.67 215.394 1138.99 177.159 1096.93C172.91 1091.83 172.91 1083.33 172.91 1077.81C173.335 1065.07 176.734 1052.75 180.982 1041.27C191.178 1014.93 204.348 988.595 226.864 970.327C243.008 959.281 260.427 949.935 278.27 942.288C334.348 918.497 393.4 901.928 454.152 895.131C459.25 894.706 460.1 901.928 455.002 902.778C396.799 914.673 339.021 932.516 285.067 956.732C265.525 966.503 244.708 975 228.989 990.294C214.119 1006.44 203.498 1026.41 195.002 1046.8C189.479 1059.12 185.655 1078.66 187.355 1088.43C214.119 1120.29 245.557 1148.33 279.544 1172.55C465.623 1302.55 748.139 1311.05 946.113 1202.71C963.956 1192.94 981.374 1181.9 997.943 1170.42C1006.01 1164.9 1014.51 1160.23 1020.88 1153.86C1021.31 1153.43 1020.88 1153.86 1020.88 1154.28C1020.88 1154.71 1020.46 1155.13 1020.46 1155.13C1020.88 1150.03 1019.18 1143.24 1017.06 1136.44C1009.41 1111.8 997.093 1085.88 983.923 1063.37C963.106 1029.8 927.845 1008.56 892.159 991.569C867.518 980.098 841.603 971.177 815.263 962.68C788.923 954.183 762.159 946.961 735.394 940.588C728.597 938.889 730.721 929.118 737.518 930.392Z" fill="black"/>
<path d="M1151.31 1447.84L75.1973 1424.05C141.472 1202.71 178.433 1007.71 228.138 977.974C322.452 921.47 407.42 912.549 457.975 907.875C470.72 939.313 519.151 1042.55 619.838 1083.33C717.125 1122.84 774.903 1096.5 783.825 1052.74C789.348 1024.71 771.929 978.823 763.008 963.954C757.91 959.706 754.511 953.333 752.812 946.96L749.413 932.941C756.635 931.242 763.857 929.542 771.08 926.993C848.4 940.588 965.655 1004.31 990.72 1040C1020.88 1082.91 1062.52 1190.39 1060.82 1249.44C1058.27 1345.46 1151.31 1447.84 1151.31 1447.84Z" fill="white"/>
<path d="M1161.5 1452.52C841.177 1447.84 390.851 1443.17 75.1971 1435.1C69.2494 1435.1 64.5762 1430 64.5762 1424.05C98.9879 1308.07 126.602 1191.24 163.563 1075.69C168.236 1061.24 173.334 1047.22 179.282 1032.78C189.478 1010.26 199.674 985.196 220.916 969.902C233.236 962.68 246.406 955.457 259.151 949.085C320.753 918.497 389.151 902.778 457.125 897.255C462.223 896.83 466.472 899.804 468.171 904.052C500.459 981.372 559.086 1053.17 641.079 1079.93C681.439 1093.95 753.236 1105.85 772.354 1055.72C778.727 1031.5 769.38 1006.01 760.883 983.072C758.759 978.398 756.635 973.725 754.511 969.902L756.635 972.451C748.563 965.653 743.465 954.183 741.766 943.987L739.642 935.49C738.367 929.542 742.191 923.595 748.138 922.32C755.361 920.621 762.158 918.921 768.955 916.797C828.432 921.046 950.36 981.372 992.419 1023.86C1017.06 1052.32 1031.08 1089.28 1045.1 1123.69C1055.3 1151.31 1064.22 1179.77 1069.31 1209.08C1071.44 1220.13 1072.71 1231.6 1072.71 1243.07C1072.29 1260.07 1073.56 1277.48 1078.24 1294.48C1092.26 1347.58 1123.27 1396.44 1158.53 1438.5L1159.38 1439.35L1159.8 1439.77C1159.8 1439.77 1159.38 1439.35 1161.08 1441.05C1162.35 1444.44 1162.78 1449.54 1161.5 1452.52ZM1141.54 1443.59C1141.11 1444.87 1140.26 1446.57 1140.69 1448.69C1140.69 1450.82 1141.54 1452.52 1142.39 1453.79C1143.66 1455.49 1143.24 1454.64 1143.24 1455.07L1142.81 1454.64C1139.84 1450.39 1133.89 1441.9 1130.92 1437.22C1096.08 1382.42 1061.67 1321.67 1060.39 1254.97C1061.24 1211.21 1047.65 1169.15 1033.2 1128.79C1023.01 1101.6 1011.11 1075.26 995.818 1050.62C991.994 1044.67 988.171 1038.73 983.073 1033.63C967.779 1018.76 949.086 1006.86 930.393 996.242C880.687 968.627 826.733 945.686 770.23 938.464L775.328 938.039C767.681 940.588 760.034 942.287 752.387 943.987L760.883 930.817C763.432 939.738 763.857 950.359 771.079 956.307C775.753 961.83 778.302 969.052 781.275 975C788.073 991.144 792.746 1007.71 795.72 1025.13C803.367 1066.76 778.726 1101.18 737.942 1110.52C703.53 1118.59 667.419 1111.37 634.707 1100.75C546.766 1072.71 483.04 995.817 448.628 912.549L459.674 919.346C392.55 918.497 325.851 931.667 265.099 960.555C251.929 966.928 238.334 974.15 226.014 981.797C208.596 995.817 200.099 1017.91 191.177 1037.88C163.563 1107.55 147.419 1180.62 129.151 1252.84C116.406 1303.82 99.4128 1376.05 86.6677 1427.45L76.4716 1413.43C384.053 1419.8 828.857 1433.4 1141.54 1443.59Z" fill="black"/>
<path d="M263.825 1446.14C263.825 1446.14 258.302 1308.5 252.779 1283.01" stroke="black" stroke-width="5.1512" stroke-miterlimit="10" stroke-linecap="round" stroke-linejoin="round"/>
<path d="M1016.63 1446.14C1016.63 1446.14 1003.89 1360.75 1003.89 1345.88C1003.89 1331.44 1014.93 1283.86 1016.63 1242.22" stroke="black" stroke-width="5.1512" stroke-miterlimit="10" stroke-linecap="round" stroke-linejoin="round"/>
<path d="M389.152 1339.08V1288.53L511.08 1338.24C510.656 1338.24 412.518 1340.78 389.152 1339.08Z" fill="white"/>
<path d="M679.739 1174.67L664.445 1491.6C664.445 1491.6 799.119 1583.37 799.119 1580.82C799.119 1578.27 862.844 1466.96 862.844 1466.96L763.432 1161.93C763.432 1161.93 750.687 1175.1 679.739 1174.67Z" fill="black"/>
<path d="M710.329 1072.71C710.329 1072.71 652.127 1127.52 644.48 1141.96C636.833 1156.41 677.192 1179.35 677.192 1179.35C677.192 1179.35 742.192 1192.94 771.506 1166.6C771.506 1166.6 788.074 1148.33 784.676 1130.92C781.702 1113.92 710.329 1072.71 710.329 1072.71Z" fill="black"/>
<path d="M440.556 867.091C440.981 866.667 441.405 866.242 441.83 865.817C446.504 860.294 453.301 856.895 460.948 856.046C496.634 851.797 500.458 855.621 508.105 867.516C545.066 925.294 593.072 1035.75 710.752 1073.14L597.321 1188.69C591.373 1196.34 580.752 1197.61 573.105 1192.09C536.569 1164.9 463.497 1081.63 423.138 980.098C414.641 958.856 412.941 935.49 417.19 913.399C416.34 912.549 433.334 877.287 440.556 867.091Z" fill="white"/>
<path d="M437.582 864.967C443.954 859.02 451.176 853.921 460.098 852.647C471.993 851.372 484.314 848.823 496.634 851.372C509.379 855.196 514.052 869.216 521.274 878.987C553.137 931.242 586.274 984.346 635.131 1021.31C652.549 1035.33 672.516 1045.95 692.908 1054.44C700.556 1057.42 708.627 1059.97 716.275 1063.37C722.647 1066.34 723.922 1075.69 718.399 1079.93C686.961 1105.42 657.222 1133.04 627.908 1161.5C621.111 1168.3 605.392 1184.02 599.444 1189.97C592.647 1198.89 579.052 1200.16 570.556 1193.37L566.307 1189.97C551.863 1178.07 538.693 1164.48 525.948 1150.88C480.49 1100.75 442.255 1043.82 416.765 980.948C407.843 958.431 405.719 932.941 411.242 909.575C417.614 893.856 426.111 878.137 437.582 864.967ZM446.078 870.915C436.732 884.085 428.66 900.229 421.863 915.098L422.288 913.823C419.739 927.843 419.739 942.287 422.712 955.882C425.261 970.327 431.634 983.072 437.157 996.242C448.627 1023.43 463.072 1049.35 478.366 1074.41C493.66 1099.48 511.078 1123.69 530.621 1146.21C543.791 1161.5 557.81 1176.37 573.954 1188.69C575.229 1189.97 576.503 1190.39 578.203 1191.24C584.15 1193.79 591.373 1191.67 595.196 1186.57L609.216 1172.12L623.235 1157.25C651.274 1127.94 678.039 1097.35 703.105 1065.49L707.353 1082.91C676.765 1073.56 647.876 1056.99 622.81 1036.18C573.105 995.817 540.817 939.738 510.229 885.359C506.405 879.412 502.582 871.765 498.758 866.242C497.059 863.693 495.784 862.843 493.235 861.993C483.464 859.444 471.993 861.144 461.797 862.418C455 863.268 449.477 866.242 446.078 870.915Z" fill="black"/>
<path d="M829.279 1146.63C826.73 1160.65 816.534 1173.82 799.541 1156.41L709.9 1072.71C709.9 1072.71 762.155 1023.01 749.41 932.942C766.828 929.119 783.397 923.596 798.691 916.374C799.116 917.223 805.064 928.694 811.861 947.811C826.306 987.321 844.574 1059.97 829.279 1146.63Z" fill="white"/>
<path d="M831.831 1147.06C829.282 1167.45 813.988 1175.95 798.269 1160.23L768.105 1132.19L737.942 1104.15L707.779 1076.11C706.079 1074.41 706.079 1071.86 707.354 1070.16C730.72 1042.97 742.615 1006.01 742.615 970.327C742.615 957.581 740.916 945.261 738.792 932.516C737.942 927.418 742.19 922.745 747.713 922.32C764.707 921.895 781.7 919.771 798.694 915.523C799.119 915.098 799.968 915.523 799.968 915.948C833.955 987.32 844.576 1069.31 831.831 1147.06ZM827.158 1146.21C837.354 1070.59 826.308 991.993 791.047 924.444L790.197 923.17C789.772 922.745 789.347 921.895 789.347 921.895L803.792 926.144C787.223 934.215 769.805 939.738 751.962 943.562L760.458 931.242C763.007 957.581 760.883 984.346 753.236 1009.41C745.164 1034.48 732.419 1057.42 713.301 1076.11V1069.74C728.596 1083.76 758.759 1112.22 773.628 1126.24L803.367 1154.71C813.988 1165.75 824.184 1161.5 827.158 1146.21Z" fill="black"/>
<path d="M777.447 1043.4C768.525 1087.16 710.748 1113.5 613.46 1073.99C512.349 1033.2 468.591 935.915 457.545 907.026C517.447 794.869 475.813 717.124 475.813 717.124C613.885 705.229 734.538 866.667 734.538 866.667L753.231 946.536C754.931 953.333 758.329 959.281 763.427 963.529C772.349 979.248 782.97 1015.36 777.447 1043.4Z" fill="white"/>
<path d="M455.423 908.301C463.495 895.98 468.593 881.536 471.992 867.516C478.364 838.203 480.489 808.464 480.913 778.725V767.68C479.639 756.634 475.815 745.163 471.567 734.967C466.044 721.373 486.011 712.876 492.384 726.471C493.234 728.17 493.234 731.144 493.234 732.843C494.508 790.621 497.057 864.967 460.521 912.974C457.972 915.523 452.874 911.699 455.423 908.301Z" fill="black"/>
<path d="M739.212 865.817C745.585 869.641 747.709 874.739 748.559 879.837C751.108 890.033 750.258 901.079 752.807 911.7C754.931 921.896 761.304 931.667 763.003 942.288C765.128 953.334 771.5 976.7 774.049 988.17C774.899 990.719 773.199 993.693 770.226 994.118C768.526 994.543 767.252 994.118 765.977 993.268C760.454 988.595 757.905 983.922 754.507 977.974C748.984 967.778 745.16 958.432 741.762 946.961C738.788 936.765 740.062 925.719 737.513 915.098C735.389 904.902 729.441 895.131 727.317 884.51C726.043 879.412 725.618 873.889 729.441 867.517C731.99 864.968 736.239 864.118 739.212 865.817Z" fill="black"/>
<path d="M769.802 977.974C688.658 973.725 622.384 948.235 557.809 833.104C612.188 881.111 676.338 899.379 743.887 907.876L752.809 946.961C754.508 953.758 764.704 973.725 769.802 977.974Z" fill="black"/>
<path d="M766.404 962.255C780.849 989.444 789.346 1023.43 780.424 1053.59C773.627 1074.84 754.084 1090.56 732.842 1096.5C683.561 1109.67 626.633 1088.86 582.875 1065.49C528.921 1035.33 488.986 984.771 463.496 929.542C461.797 925.294 467.744 921.895 470.293 926.144C479.215 943.987 489.411 961.405 500.882 977.124C512.352 993.268 525.522 1008.14 540.391 1021.31C583.725 1060.39 642.352 1084.61 700.98 1084.61C761.306 1082.91 784.248 1051.05 770.228 992.418C768.104 983.072 764.705 973.301 760.032 965.229C757.483 961.83 763.855 958.006 766.404 962.255Z" fill="black"/>
<path d="M930.815 452.026C938.462 487.712 912.972 525.948 912.972 621.111C912.972 718.399 895.128 824.183 821.632 897.68C758.331 960.98 685.684 958.431 600.292 891.732C588.396 882.386 546.762 850.948 536.142 840.327C523.821 828.007 517.024 819.085 511.076 809.739C505.978 801.242 507.253 751.961 500.03 740.49C481.338 709.477 477.514 743.039 453.298 715.85C419.736 679.314 379.377 605.817 399.344 475.817C431.632 265.098 598.592 240.458 722.22 263.824C846.697 287.614 910.423 358.137 930.815 452.026Z" fill="white"/>
<path d="M474.541 753.66C464.77 737.516 452.449 723.072 440.979 708.202C429.508 692.484 420.162 675.915 412.515 658.072C369.181 553.137 375.554 415.915 452.449 327.549C505.129 267.222 588.397 247.255 664.868 251.503C741.338 256.176 820.783 275.719 877.286 330.948C909.998 362.81 930.815 405.294 940.162 449.477C943.136 463.497 941.011 478.791 937.613 491.961C927.842 528.921 918.495 564.183 917.645 602.418C918.07 659.346 916.371 717.549 899.802 772.353C887.907 808.889 873.887 845.425 851.796 877.287C828.855 909.575 794.443 935.49 754.933 943.137C675.489 959.281 601.142 909.15 548.462 854.771C546.338 852.222 549.312 849.248 551.861 850.948C582.024 873.889 613.038 895.131 646.6 909.575C743.462 954.183 823.757 912.974 866.24 819.51C901.926 751.536 912.123 678.039 909.149 601.993C909.149 582.876 909.998 563.758 912.547 544.64C915.096 517.026 924.443 489.412 924.018 462.222C916.796 418.039 896.404 375.555 865.815 342.843C793.168 265.948 653.822 243.431 556.109 278.268C440.979 319.052 409.966 435.033 403.593 545.915C399.345 612.189 418.887 677.189 469.018 722.647L488.985 743.464C495.783 752.81 481.338 763.856 474.541 753.66Z" fill="black"/>
<path d="M524.672 618.562C524.672 618.562 511.502 554.837 449.476 562.484C395.946 569.281 377.254 697.582 498.757 733.268" fill="white"/>
<path d="M493.234 677.614C483.463 672.092 476.666 662.745 476.241 651.275C476.666 642.778 477.94 633.007 475.816 624.51C474.541 616.438 466.045 614.314 459.672 614.739C452.875 616.013 448.626 624.51 447.352 631.307C447.352 631.732 446.927 633.007 446.927 633.431C446.502 635.556 443.103 635.556 442.254 633.431C436.731 616.863 449.051 598.595 466.894 600.719C491.96 602.418 495.358 628.758 490.685 648.726C488.136 657.222 491.535 664.869 496.208 672.092L497.058 673.366C499.182 675.915 495.783 679.314 493.234 677.614Z" fill="black"/>
<path d="M833.103 573.529C839.476 603.693 851.371 631.732 866.241 658.072C879.411 690.359 845.424 720.947 815.26 719.673C811.862 719.673 811.437 715 814.411 714.15C833.528 708.202 850.947 695.457 853.92 675.915C855.195 669.967 853.496 664.869 850.522 659.771C836.502 633.431 828.005 603.268 830.13 573.529C830.13 571.405 833.103 571.405 833.103 573.529Z" fill="black"/>
<path d="M522.549 618.987C512.777 593.921 491.536 570.13 463.072 570.555C460.523 570.13 456.274 570.98 453.725 570.98C446.503 571.405 440.555 573.954 435.032 579.052C407.843 606.241 412.516 654.248 434.608 684.411C442.255 695.032 452.026 704.379 463.072 712.026C474.117 719.673 486.438 725.621 499.608 730.719C502.581 731.568 501.307 736.241 498.333 735.817C469.869 729.869 442.679 715.849 423.987 692.483C395.098 657.647 389.15 599.444 423.562 565.457C431.209 558.66 441.83 553.562 452.451 553.562C455.849 553.562 460.947 552.712 464.346 553.562C482.189 554.411 499.183 563.333 510.228 577.353C520 589.248 525.523 603.692 527.222 618.137C527.222 620.686 523.398 621.536 522.549 618.987Z" fill="black"/>
<path d="M804.638 760.033C797.416 765.131 786.795 760.882 779.148 764.281C773.625 765.98 764.704 773.628 751.959 772.778C741.762 771.928 736.664 766.83 728.168 763.007C719.246 760.033 709.9 754.51 703.952 747.288C702.677 746.013 702.677 744.314 703.952 743.039C705.651 741.34 707.351 742.614 709.05 743.464C712.874 745.588 715.847 747.288 718.821 748.137C721.795 748.987 724.769 748.137 729.442 748.137C734.115 747.713 740.913 749.837 745.161 753.235C748.135 755.36 751.534 756.634 754.083 757.059C760.88 758.333 769.377 752.811 776.599 751.961C781.697 751.111 787.22 751.536 791.468 752.811C795.717 754.085 798.691 754.935 802.089 754.085C805.913 753.235 808.037 758.333 804.638 760.033Z" fill="black"/>
<path d="M737.09 528.497C746.436 529.771 753.658 520 750.26 510.654C748.56 505.556 745.586 500.883 740.913 497.909C726.469 488.987 672.514 488.137 644.05 508.53C618.56 527.222 694.606 522.549 737.09 528.497Z" fill="black"/>
<path d="M854.768 533.17C847.121 533.17 842.448 523.399 846.272 515.327C848.396 511.079 851.37 507.255 855.618 505.131C868.788 498.758 904.049 502.582 919.768 524.249C933.788 543.366 890.03 532.745 854.768 533.17Z" fill="black"/>
<path d="M723.072 584.575C708.203 597.745 685.261 597.745 667.418 590.948C664.444 589.673 647.451 582.026 650.85 577.778C651.274 577.353 652.124 576.928 652.549 576.928C664.444 577.353 675.49 578.628 686.961 579.477C698.431 580.327 708.627 579.902 720.523 579.477C723.497 579.477 725.196 582.876 723.072 584.575Z" fill="black"/>
<path d="M890.88 591.798C877.285 607.517 849.671 605.392 836.926 590.098C835.651 588.824 836.926 586.275 838.625 586.7C843.298 587.124 847.547 587.974 851.795 588.399C864.54 590.523 875.161 590.098 888.756 589.673C890.88 588.824 891.73 590.948 890.88 591.798Z" fill="black"/>
<path d="M729.02 232.811C538.694 214.543 475.393 278.268 450.328 300.785C415.066 331.798 361.537 454.575 363.661 524.673C366.21 622.386 444.38 725.621 447.779 730.719C465.197 756.634 483.04 772.353 487.713 777.876C485.164 768.53 480.916 734.968 484.739 729.02C378.53 688.236 397.648 569.706 449.478 562.909C503.857 556.111 520.85 604.543 523.824 616.438C523.824 616.438 523.824 617.713 524.249 619.837C524.674 619.837 525.099 620.262 525.524 620.262C544.216 626.634 561.635 607.941 555.262 589.673C545.491 562.909 534.445 531.896 532.746 511.928C530.197 454.151 553.563 388.301 725.622 397.647C747.713 398.922 766.831 402.321 785.524 406.144C794.87 408.693 819.935 418.464 811.439 442.68C803.367 466.046 786.798 446.928 782.125 449.053C779.576 450.327 795.72 471.994 819.511 467.745C839.053 464.347 854.772 444.379 847.975 418.039C854.772 418.889 861.994 419.739 869.217 420.588C915.099 423.987 956.308 388.301 955.034 342.419C953.759 295.687 910.001 250.229 729.02 232.811Z" fill="black"/>
<path d="M488.989 779.575C488.989 779.15 488.565 778.725 487.715 777.451C488.565 780 488.989 780.849 488.989 779.575Z" fill="black"/>
</g>
</svg>
