<svg width="1043" height="1297" viewBox="0 0 1043 1297" fill="none" xmlns="http://www.w3.org/2000/svg">
<g clip-path="url(#clip0_262_813)">
<path d="M736.684 1214.34C683.934 1141.08 642.663 999.435 637.778 928.614L386.852 820.55L282.452 1214.34H736.684Z" fill="#F9C9B6" stroke="black" stroke-width="14.6526"/>
<mask id="mask0_262_813" style="mask-type:alpha" maskUnits="userSpaceOnUse" x="282" y="820" width="455" height="431">
<path d="M736.684 1250.97C683.934 1177.71 642.663 999.435 637.778 928.614L386.852 820.55L282.452 1250.97H736.684Z" fill="#F9C9B6"/>
</mask>
<g mask="url(#mask0_262_813)">
<g style="mix-blend-mode:multiply">
<ellipse cx="626.789" cy="813.224" rx="216.126" ry="197.811" fill="black"/>
</g>
</g>
<mask id="path-4-inside-1_262_813" fill="white">
<path fill-rule="evenodd" clip-rule="evenodd" d="M846.165 596.797C846.065 596.372 845.964 595.947 845.863 595.522C845.761 595.097 845.658 594.672 845.554 594.248L785.49 343.552C785.431 343.305 785.372 343.057 785.313 342.81C785.254 342.563 785.194 342.316 785.135 342.07L784.867 340.954L784.862 340.955C747.432 189.136 594.397 95.786 442.104 132.274C289.811 168.762 195.696 321.327 231.129 473.624L231.122 473.626L293.364 733.41L293.415 733.397C332.255 883.237 484.156 974.95 635.326 938.731C786.497 902.511 880.344 751.92 847.064 600.748L847.109 600.737L846.165 596.797Z"/>
</mask>
<path fill-rule="evenodd" clip-rule="evenodd" d="M846.165 596.797C846.065 596.372 845.964 595.947 845.863 595.522C845.761 595.097 845.658 594.672 845.554 594.248L785.49 343.552C785.431 343.305 785.372 343.057 785.313 342.81C785.254 342.563 785.194 342.316 785.135 342.07L784.867 340.954L784.862 340.955C747.432 189.136 594.397 95.786 442.104 132.274C289.811 168.762 195.696 321.327 231.129 473.624L231.122 473.626L293.364 733.41L293.415 733.397C332.255 883.237 484.156 974.95 635.326 938.731C786.497 902.511 880.344 751.92 847.064 600.748L847.109 600.737L846.165 596.797Z" fill="#F9C9B6"/>
<path d="M846.165 596.797L831.9 600.147L831.908 600.179L831.916 600.211L846.165 596.797ZM845.863 595.522L860.112 592.108L860.112 592.107L845.863 595.522ZM845.554 594.248L831.305 597.663L831.313 597.694L831.32 597.726L845.554 594.248ZM785.49 343.552L771.232 346.929L771.236 346.947L771.24 346.966L785.49 343.552ZM785.135 342.07L770.885 345.483L770.89 345.502L770.894 345.521L785.135 342.07ZM784.867 340.954L799.117 337.54L795.707 323.31L781.473 326.7L784.867 340.954ZM784.862 340.955L770.635 344.462L774.115 358.576L788.256 355.209L784.862 340.955ZM442.104 132.274L445.518 146.523L445.518 146.523L442.104 132.274ZM231.129 473.624L234.561 487.87L248.695 484.465L245.401 470.304L231.129 473.624ZM231.122 473.626L227.69 459.381L213.463 462.809L216.873 477.04L231.122 473.626ZM293.364 733.41L279.115 736.824L282.528 751.07L296.775 747.66L293.364 733.41ZM293.415 733.397L307.599 729.721L303.99 715.8L290.004 719.147L293.415 733.397ZM635.326 938.731L631.912 924.481L631.912 924.481L635.326 938.731ZM847.064 600.748L843.65 586.498L829.661 589.849L832.754 603.898L847.064 600.748ZM847.109 600.737L850.522 614.987L864.773 611.573L861.358 597.323L847.109 600.737ZM860.429 593.447C860.325 593.001 860.219 592.555 860.112 592.108L831.613 598.936C831.71 599.339 831.805 599.742 831.9 600.147L860.429 593.447ZM860.112 592.107C860.005 591.661 859.897 591.216 859.788 590.771L831.32 597.726C831.419 598.129 831.517 598.533 831.613 598.936L860.112 592.107ZM771.24 346.966L831.305 597.663L859.804 590.834L799.739 340.138L771.24 346.966ZM799.748 340.174C799.686 339.916 799.625 339.656 799.562 339.396L771.064 346.225C771.12 346.459 771.176 346.693 771.232 346.929L799.748 340.174ZM799.562 339.396C799.5 339.137 799.438 338.877 799.375 338.618L770.894 345.521C770.951 345.755 771.008 345.99 771.064 346.225L799.562 339.396ZM770.618 344.368L770.885 345.483L799.384 338.656L799.117 337.54L770.618 344.368ZM788.256 355.209L788.261 355.208L781.473 326.7L781.468 326.701L788.256 355.209ZM799.089 337.447C759.731 177.813 598.822 79.6587 438.69 118.025L445.518 146.523C589.973 111.913 735.132 200.459 770.635 344.462L799.089 337.447ZM438.69 118.025C278.559 156.391 179.601 316.808 216.858 476.945L245.401 470.304C211.792 325.847 301.064 181.134 445.518 146.523L438.69 118.025ZM234.554 487.871L234.561 487.87L227.697 459.379L227.69 459.381L234.554 487.871ZM307.613 729.996L245.371 470.212L216.873 477.04L279.115 736.824L307.613 729.996ZM290.004 719.147L289.953 719.159L296.775 747.66L296.826 747.648L290.004 719.147ZM279.231 737.074C320.071 894.631 479.788 991.063 638.74 952.98L631.912 924.481C488.523 958.836 344.438 871.844 307.599 729.721L279.231 737.074ZM638.74 952.98C797.692 914.896 896.368 756.556 861.374 597.598L832.754 603.898C864.32 747.285 775.301 890.126 631.912 924.481L638.74 952.98ZM843.696 586.488L843.65 586.498L850.477 614.997L850.522 614.987L843.696 586.488ZM831.916 600.211L832.86 604.151L861.358 597.323L860.414 593.382L831.916 600.211Z" fill="black" mask="url(#path-4-inside-1_262_813)"/>
</g>
<path d="M634.068 830.921C673.766 823.736 697.023 779.868 688.934 735.174C680.846 690.48 643.689 657.545 603.991 664.73C564.294 671.914 541.037 715.782 549.125 760.476C557.214 805.17 594.37 838.105 634.068 830.921Z" fill="black" stroke="black" stroke-width="13.1549"/>
<mask id="mask1_262_813" style="mask-type:alpha" maskUnits="userSpaceOnUse" x="554" y="670" width="130" height="156">
<ellipse cx="619.03" cy="747.825" rx="64.4627" ry="77.8679" transform="rotate(-10.2582 619.03 747.825)" fill="#171921"/>
</mask>
<g mask="url(#mask1_262_813)">
<ellipse cx="630.973" cy="813.805" rx="74.0127" ry="67.0529" transform="rotate(-10.2582 630.973 813.805)" fill="#FC909F"/>
</g>
<circle cx="455.666" cy="469.847" r="43.9579" transform="rotate(-6.27568 455.666 469.847)" fill="#D2EFF3"/>
<ellipse cx="460.392" cy="503.414" rx="32.9684" ry="49.4526" transform="rotate(-6.77646 460.392 503.414)" fill="black"/>
<circle cx="689.299" cy="438.242" r="43.9579" transform="rotate(-6.27568 689.299 438.242)" fill="#D2EFF3"/>
<ellipse cx="694.835" cy="466.782" rx="32.9684" ry="49.4526" transform="rotate(-6.27568 694.835 466.782)" fill="black"/>
<path d="M645.104 370.766C665.862 360.998 714.704 352.084 744.01 394.577" stroke="black" stroke-width="14.6526" stroke-linecap="round"/>
<path d="M368.827 463.468C376.412 441.817 404.293 400.736 455.14 409.625" stroke="black" stroke-width="14.6526" stroke-linecap="round"/>
<path d="M377.966 441.258L355.443 421.38" stroke="black" stroke-width="14.6526" stroke-linecap="round"/>
<path d="M732.878 374.219L755.4 354.341" stroke="black" stroke-width="14.6526" stroke-linecap="round"/>
<path d="M401.59 420.585L386.767 394.457" stroke="black" stroke-width="14.6526" stroke-linecap="round"/>
<path d="M705.59 360.873L720.414 334.745" stroke="black" stroke-width="14.6526" stroke-linecap="round"/>
<path d="M431.174 407.347L423.111 378.409" stroke="black" stroke-width="14.6526" stroke-linecap="round"/>
<path d="M672.343 358.624L680.405 329.687" stroke="black" stroke-width="14.6526" stroke-linecap="round"/>
<path d="M447.117 325.043C454.031 326.133 454.03 326.139 454.029 326.144L454.027 326.156L454.023 326.184L454.012 326.251C454.003 326.301 453.992 326.363 453.979 326.436C453.952 326.582 453.916 326.773 453.867 327.007C453.769 327.477 453.623 328.123 453.411 328.942C452.986 330.579 452.299 332.904 451.21 335.879C449.032 341.832 445.254 350.379 438.781 361.239C427.17 380.718 406.907 407.608 371.687 440.323C481.474 443.061 573.176 407.693 638.444 370.603C672.733 351.117 699.661 331.192 717.995 316.159C727.16 308.645 734.169 302.359 738.868 297.971C741.218 295.777 742.99 294.059 744.164 292.898C744.751 292.318 745.189 291.878 745.475 291.588C745.618 291.443 745.723 291.336 745.79 291.267L745.861 291.193L745.875 291.179L745.877 291.177L754.234 282.483L757.637 294.055L750.922 296.03C757.637 294.055 757.638 294.056 757.638 294.058L757.64 294.066L757.65 294.097L757.686 294.221L757.829 294.708C757.955 295.138 758.142 295.776 758.387 296.613C758.876 298.285 759.595 300.748 760.515 303.914C762.356 310.245 765.001 319.385 768.223 330.629C774.667 353.115 783.417 384.019 792.643 417.687C811.059 484.893 831.487 563.531 839.141 608.06C851.935 682.488 832.152 738.998 820.45 772.424C818.175 778.922 816.206 784.548 814.841 789.263C815.036 789.428 815.293 789.628 815.627 789.865C817.814 791.416 821.693 793.204 827.299 794.985C838.346 798.496 854.109 801.376 870.97 802.999C887.799 804.619 905.319 804.948 919.827 803.532C927.087 802.824 933.402 801.696 938.419 800.163C943.239 798.691 946.257 797.024 947.886 795.519C947.937 795.205 948.001 794.451 947.818 792.999C947.46 790.158 946.334 786.156 944.387 780.862C941.479 772.96 937.173 763.287 932.137 751.976C930.43 748.141 928.639 744.117 926.79 739.911C912.397 707.165 895.08 664.581 891.308 621.195C887.116 572.987 896.642 531.756 905.205 494.695L905.613 492.929C914.36 455.053 921.636 422.161 914.164 388.828C902.824 338.238 887.355 296.12 863.597 265.856C840.092 235.913 808.212 217.225 762.876 213.789L758.194 213.434L756.746 208.967C735.886 144.604 707.724 102.548 671.813 76.4687C635.914 50.3988 591.387 39.6514 536.499 39.6514C435.075 39.6513 325.857 78.1847 243.895 144.85C162.018 211.447 107.833 305.647 114.923 417.146C122.747 540.196 113.829 633.498 93.7192 701.819C75.3814 764.118 47.5886 806.093 14.2744 830.577C18.6454 832.81 24.4725 835.644 31.7515 838.889C50.1657 847.097 77.873 857.932 114.808 868.295C185.634 888.167 290.44 906.317 428.783 900.847C398.288 874.655 367.521 842.869 343.159 809.271C315.199 770.709 295.044 728.891 294.453 689.941C293.753 643.688 296.886 522.655 297.855 497.602C300.107 439.37 337.494 394.485 373.088 364.629C390.988 349.613 408.721 338.153 421.969 330.447C428.6 326.59 434.126 323.662 438.012 321.691C439.956 320.705 441.491 319.958 442.55 319.452C443.08 319.199 443.491 319.006 443.775 318.875C443.851 318.84 443.917 318.809 443.975 318.782C444.025 318.759 444.069 318.739 444.105 318.723L444.196 318.681L444.224 318.669L444.232 318.665C444.235 318.663 444.238 318.662 447.117 325.043ZM447.117 325.043L454.031 326.133L456.05 313.333L444.238 318.662L447.117 325.043ZM814.278 788.684C814.287 788.684 814.33 788.733 814.382 788.83C814.295 788.733 814.269 788.685 814.278 788.684Z" fill="#D2EFF3" stroke="black" stroke-width="14"/>
<path d="M758.663 212.463C760.494 228.947 757.564 261.916 753.168 283.894" stroke="black" stroke-width="14.6526"/>
<path d="M589.358 520.058C590.103 534.134 595.578 564.314 611.515 572.432C631.437 582.579 615.819 616.217 578.525 614.06" stroke="black" stroke-width="14.6526"/>
<path d="M322.746 554.052V549.952L319.252 547.807C305.574 539.414 288.942 534.822 271.755 534.822C251.094 534.822 231.75 541.223 217.972 554.219C204.039 567.36 196.522 586.573 198.517 610.525C200.462 633.866 208.298 651.044 221.294 662.458C220.227 666.119 219.912 670.065 220.406 674.217C221.833 686.19 227.885 694.816 237.238 700.132C246.154 705.199 257.565 706.99 269.719 706.99C289.79 706.99 307.39 696.195 320.79 681.756L322.746 679.648V676.772V554.052Z" stroke="black" stroke-width="14.6526"/>
<path fill-rule="evenodd" clip-rule="evenodd" d="M344.623 611.692C344.884 609.304 345.018 606.878 345.018 604.422C345.018 566.995 310.194 542.148 271.755 542.148C233.316 542.148 202.156 565.959 205.818 609.917C207.857 634.377 216.609 650.475 230.181 660.165C228.025 663.915 227.082 668.321 227.681 673.351C229.986 692.698 246.502 699.663 269.719 699.663C310.398 699.663 342.584 648.211 344.623 611.692Z" fill="#F9C9B6"/>
<path d="M287.946 573.287C273.294 566.572 241.058 563.03 229.336 602.593" stroke="black" stroke-width="14.6526"/>
<path d="M249.483 575.117C257.42 581.833 272.561 602.591 269.631 631.896" stroke="black" stroke-width="14.6526"/>
<circle cx="264.137" cy="677.686" r="14.6526" fill="white"/>
<circle cx="267.8" cy="674.023" r="3.66316" fill="#FFEDEF"/>
<path d="M538.034 1203.63C538.035 1203.63 538.035 1203.63 542.537 1197.85L538.035 1203.63L544.342 1208.55L548.686 1201.84L548.687 1201.84L548.694 1201.82L548.728 1201.77C548.76 1201.72 548.81 1201.65 548.878 1201.54C548.938 1201.45 549.011 1201.34 549.098 1201.21C549.209 1201.04 549.342 1200.84 549.496 1200.61C550.047 1199.79 550.872 1198.57 551.95 1197.01C554.106 1193.89 557.273 1189.43 561.285 1184.1C569.32 1173.43 580.692 1159.32 594.083 1145.54C607.509 1131.71 622.752 1118.43 638.503 1109.18C654.315 1099.9 669.93 1095.1 684.421 1097.05C839.881 1118.01 954.282 1186.87 1028.54 1289.43H27.4035C87.1118 1181.95 172.037 1113.54 309.723 1082.14C315.591 1080.81 323.569 1081.21 333.543 1083.53C343.415 1085.83 354.67 1089.86 366.809 1095.2C391.083 1105.87 418.182 1121.43 443.647 1137.55C469.073 1153.64 492.683 1170.17 509.948 1182.69C518.577 1188.94 525.61 1194.19 530.482 1197.87C532.918 1199.71 534.812 1201.15 536.095 1202.14C536.35 1202.33 536.582 1202.51 536.788 1202.67C537.1 1202.91 537.354 1203.11 537.551 1203.26C537.714 1203.38 537.837 1203.48 537.918 1203.54L538.008 1203.61L538.03 1203.63L538.034 1203.63Z" fill="#9287FF" stroke="black" stroke-width="14.6526"/>
<path d="M266.381 1091.94L285.307 1021.49C286.074 1018.63 289.765 1017.83 291.758 1020.01C346.204 1079.59 414.911 1077.25 437.716 1074.52C440.812 1074.14 443.236 1077.53 441.782 1080.29L393.585 1171.7C392.847 1173.1 391.335 1173.87 389.784 1173.55C375.32 1170.53 303.25 1152.92 266.806 1094.8C266.272 1093.95 266.12 1092.9 266.381 1091.94Z" fill="#E0DDFF" stroke="black" stroke-width="14.6526"/>
<path d="M744.724 1091.56L702.303 1020.19C700.862 1017.77 697.314 1017.8 695.779 1020.17C674.764 1052.54 638.518 1067.45 625.843 1071.85C623.563 1072.64 622.52 1075.35 623.749 1077.43L673.212 1161C673.95 1162.25 675.344 1162.93 676.738 1162.53C684.558 1160.3 711.392 1149.08 744.676 1095.36C745.392 1094.21 745.418 1092.72 744.724 1091.56Z" fill="#E0DDFF" stroke="black" stroke-width="14.6526"/>
<path d="M474.768 1155.73L441.799 1076.97L416.157 1131.92L474.768 1155.73Z" fill="black" stroke="black" stroke-width="14.6526" stroke-linejoin="round"/>
<path d="M590.158 1152.07L623.126 1073.31L648.769 1128.25L590.158 1152.07Z" fill="black" stroke="black" stroke-width="14.6526" stroke-linejoin="round"/>
<path d="M331.905 1007.37L287.947 1018.36L324.579 1042.17L331.905 1007.37Z" fill="black" stroke="black" stroke-width="14.6526" stroke-linejoin="round"/>
<path d="M659.758 1007.37L700.053 1018.36L674.411 1042.17L659.758 1007.37Z" fill="black" stroke="black" stroke-width="14.6526" stroke-linejoin="round"/>
<defs>
<clipPath id="clip0_262_813">
<rect width="732.632" height="1172.21" fill="white" transform="translate(172.558 43.96)"/>
</clipPath>
</defs>
</svg>
