<svg width="1300" height="1300" viewBox="0 0 1300 1300" fill="none" xmlns="http://www.w3.org/2000/svg">
<mask id="mask0_610_1333" style="mask-type:alpha" maskUnits="userSpaceOnUse" x="0" y="0" width="1296" height="1296">
<circle cx="647.869" cy="647.869" r="647.869" fill="#D9D9D9"/>
</mask>
<g mask="url(#mask0_610_1333)">
<path d="M1003.04 1182.75C1000.07 1184.87 996.669 1186.99 993.695 1189.12C990.296 1191.24 987.322 1193.37 983.923 1195.07C980.95 1196.76 978.401 1198.46 975.427 1200.16C975.002 1200.59 974.577 1200.59 974.152 1201.01C964.381 1206.96 954.185 1212.48 943.989 1217.58C941.015 1219.28 937.616 1220.98 934.642 1222.26C934.642 1222.26 934.218 1222.68 933.793 1222.68C930.394 1224.38 926.995 1226.08 923.597 1227.78C916.799 1231.18 909.577 1234.15 902.78 1237.12C899.381 1238.82 895.557 1240.1 892.159 1241.37C888.76 1242.65 884.937 1244.35 881.538 1245.62C878.139 1246.9 874.316 1248.59 870.917 1249.87C870.917 1249.87 870.917 1249.87 870.492 1249.87C867.093 1251.14 863.27 1252.42 859.871 1253.69C852.224 1256.24 844.152 1258.79 836.505 1261.34C833.956 1262.19 830.982 1263.04 828.433 1263.89C820.361 1266.44 812.29 1268.56 804.218 1270.26C801.244 1271.11 798.27 1271.54 794.871 1272.39C787.224 1274.09 779.152 1275.78 771.505 1277.48C769.806 1277.91 768.531 1277.91 766.832 1278.33C764.283 1278.76 761.309 1279.18 758.76 1279.61C754.937 1280.03 751.538 1280.88 747.714 1281.31C746.015 1281.73 744.316 1281.73 742.616 1282.16C740.492 1282.58 737.943 1283.01 735.394 1283.01C728.597 1283.86 721.374 1284.71 714.577 1285.56C712.453 1285.98 709.904 1285.98 707.78 1286.41H707.355C704.381 1286.83 701.407 1286.83 698.433 1287.25C695.459 1287.68 692.486 1287.68 689.512 1287.68C687.812 1287.68 685.688 1288.1 683.989 1288.1C680.59 1288.1 677.616 1288.53 674.642 1288.53C670.394 1288.53 666.571 1288.95 662.322 1288.95C658.074 1288.95 654.25 1288.95 650.002 1288.95C647.028 1288.95 644.054 1288.95 641.08 1288.95C461.799 1286.41 300.786 1210.36 185.656 1089.71C185.656 1089.71 185.656 1089.28 185.231 1089.28C172.486 1077.81 183.531 1016.63 234.937 977.974C299.512 929.118 454.152 898.53 454.152 898.53C454.152 898.53 514.054 888.758 736.244 935.066C866.244 962.255 965.231 1001.76 1020.46 1108.82C1031.93 1130.92 1043.4 1164.9 1003.04 1182.75Z" fill="white"/>
<path d="M737.518 930.392C819.087 946.961 906.178 964.804 973.302 1018.76C995.819 1037.03 1010.69 1063.79 1023.01 1089.71C1028.96 1102.45 1034.9 1115.62 1039.58 1129.64C1042.13 1138.99 1045.95 1149.61 1043.83 1160.65C1043.4 1163.63 1040.85 1167.45 1038.73 1169.58C1028.96 1179.35 1018.34 1185.29 1007.71 1192.94C945.263 1236.27 873.466 1266.86 799.119 1283.01C633.433 1319.12 454.152 1291.08 308.433 1203.99C260.002 1174.67 215.394 1138.99 177.159 1096.93C172.91 1091.83 172.91 1083.33 172.91 1077.81C173.335 1065.07 176.734 1052.75 180.982 1041.27C191.178 1014.93 204.348 988.595 226.864 970.327C243.008 959.281 260.427 949.935 278.27 942.288C334.348 918.497 393.4 901.928 454.152 895.131C459.25 894.706 460.1 901.928 455.002 902.778C396.799 914.673 339.021 932.516 285.067 956.732C265.525 966.503 244.708 975 228.989 990.294C214.119 1006.44 203.498 1026.41 195.002 1046.8C189.479 1059.12 185.655 1078.66 187.355 1088.43C214.119 1120.29 245.557 1148.33 279.544 1172.55C465.623 1302.55 748.139 1311.05 946.113 1202.71C963.956 1192.94 981.374 1181.9 997.943 1170.42C1006.01 1164.9 1014.51 1160.23 1020.88 1153.86C1021.31 1153.43 1020.88 1153.86 1020.88 1154.28C1020.88 1154.71 1020.46 1155.13 1020.46 1155.13C1020.88 1150.03 1019.18 1143.24 1017.06 1136.44C1009.41 1111.8 997.093 1085.88 983.923 1063.37C963.106 1029.8 927.845 1008.56 892.159 991.569C867.518 980.098 841.603 971.177 815.263 962.68C788.923 954.183 762.159 946.961 735.394 940.588C728.597 938.889 730.721 929.118 737.518 930.392Z" fill="black"/>
<path d="M1144.09 1446.14H38.6617C38.6617 1446.14 35.263 1178.5 130.002 1054.02C199.25 962.68 325.426 938.464 402.747 915.948C422.714 910.425 440.132 904.053 454.577 900.229C459.25 912.974 506.407 1037.88 619.413 1083.76C716.701 1123.27 774.479 1096.93 783.4 1053.17C788.923 1025.13 771.505 979.249 762.583 964.379C757.485 960.131 754.087 953.758 752.387 947.386L748.988 933.366C756.636 931.667 763.858 929.543 771.505 927.419C775.328 928.268 779.152 929.118 782.975 929.968C837.779 943.137 951.635 945.687 1046.8 1025.98C1157.26 1117.75 1144.09 1446.14 1144.09 1446.14Z" fill="black"/>
<path d="M881.539 1033.2C879.414 1003.04 845.428 999.215 845.428 999.215C845.428 999.215 874.741 997.091 876.016 973.3C876.865 959.706 864.12 946.536 843.303 938.464C848.826 935.49 853.075 931.666 850.101 926.143C843.303 913.823 818.238 911.699 812.715 909.575C791.048 901.503 744.316 855.196 597.748 839.477C559.937 835.653 481.343 833.529 450.33 852.647V852.222C446.506 852.222 439.709 857.745 432.062 865.817C423.565 866.241 400.199 868.79 379.807 881.536C363.663 891.307 361.114 906.601 368.761 917.222C358.99 921.47 348.794 928.268 341.571 938.889C320.754 970.751 367.911 981.797 390.003 973.3C390.003 973.3 354.316 992.418 367.062 1022.58C379.807 1052.74 420.591 1035.33 420.591 1035.33C420.591 1035.33 384.905 1074.41 415.068 1103.73C445.231 1133.04 480.493 1103.73 480.493 1103.73C480.493 1103.73 461.375 1148.33 493.238 1164.9C525.101 1181.47 549.741 1137.71 549.741 1137.71C549.741 1137.71 539.545 1183.17 570.558 1199.74C601.571 1216.31 623.238 1177.65 627.911 1163.2C627.911 1163.2 627.911 1211.63 671.669 1213.33C698.434 1214.61 707.356 1183.59 709.905 1159.38C720.526 1159.8 728.597 1159.38 732.846 1158.53C735.82 1157.68 740.068 1155.56 745.166 1153.01C749.839 1161.5 763.009 1180.62 784.251 1179.35C811.865 1178.07 818.663 1147.06 806.343 1120.72C806.343 1120.72 829.709 1136.44 853.924 1120.72C878.565 1105 856.473 1067.19 842.879 1062.09C844.153 1060.82 883.663 1062.94 881.539 1033.2Z" fill="white"/>
<path d="M880.688 1033.2C879.839 1014.51 862.42 1002.61 845.427 1000.07C844.152 1000.07 844.152 997.941 845.427 997.941C860.296 997.091 876.865 986.046 874.316 969.902C871.767 954.608 855.623 946.536 842.028 941.863C839.054 941.013 838.63 936.765 841.179 935.065C842.878 933.791 845.002 932.092 845.427 930.817C846.277 929.543 845.852 929.118 845.427 929.118C837.78 921.046 825.035 921.046 814.414 919.771C809.316 919.346 803.368 916.373 798.695 914.248C786.8 908.726 774.054 901.503 762.159 896.83C713.728 874.739 661.473 865.817 610.068 853.922C565.885 843.301 494.937 830.98 455.002 856.471L454.577 856.895C457.126 859.02 443.532 856.471 445.656 853.072C445.231 851.797 445.656 851.797 445.656 851.373V850.948C445.656 850.948 445.656 850.523 445.656 851.797L451.179 856.895C451.603 856.895 451.179 856.895 450.754 856.895C445.231 859.444 440.983 863.693 436.734 867.941C435.885 868.791 434.61 869.216 433.335 869.641C418.041 871.34 402.322 875.588 389.152 882.811C383.205 885.784 377.257 890.458 374.283 896.405C371.734 901.928 372.159 907.451 375.558 912.124C377.682 915.098 377.257 919.771 373.858 921.895C373.434 922.32 373.009 922.745 372.159 922.745C356.015 923.17 336.473 941.863 341.571 957.582C345.394 965.229 354.741 968.627 362.813 969.902C371.734 971.601 381.081 971.176 389.152 968.203C391.277 967.353 393.826 968.627 394.675 970.752C395.525 972.876 394.675 975 392.551 975.85C377.257 984.346 363.662 1002.61 373.009 1020.03C376.407 1028.1 383.63 1032.35 392.551 1032.78C401.048 1033.63 410.819 1031.08 418.891 1028.1C422.29 1026.83 426.113 1028.53 427.813 1031.93C428.662 1034.48 428.237 1037.03 426.538 1039.15C413.793 1054.87 404.022 1079.93 420.59 1095.65C435.46 1112.22 459.675 1108.4 475.394 1095.65C483.041 1089.28 494.087 1097.78 490.264 1106.7C486.865 1115.2 484.741 1126.67 486.015 1135.59C487.29 1153.43 506.832 1163.63 521.701 1152.58C529.349 1147.48 536.571 1138.99 541.244 1130.92C547.192 1120.29 563.76 1126.67 561.636 1138.14C561.211 1140.26 560.786 1143.24 560.786 1146.21C560.362 1153.86 560.786 1162.35 562.911 1169.58C567.584 1186.99 587.976 1198.04 601.571 1183.59C608.793 1177.22 615.166 1167.03 618.139 1158.1C622.388 1145.78 640.656 1148.76 640.656 1161.5C641.081 1170.85 643.63 1181.47 649.577 1189.12C656.375 1198.46 672.943 1204.41 683.564 1198.04C695.46 1188.69 698.433 1171.7 700.983 1156.41C703.107 1143.66 718.401 1149.18 727.322 1147.91C732.42 1147.48 730.721 1147.91 735.819 1145.78C737.943 1144.93 739.643 1144.08 741.767 1142.81C746.44 1140.26 751.963 1142.39 754.087 1146.63C758.335 1154.71 764.283 1161.93 771.081 1165.75C802.943 1181.05 813.564 1146.21 802.094 1121.14C799.969 1116.05 805.917 1111.37 810.166 1114.35C821.211 1121.57 836.505 1123.69 848.826 1117.75C874.316 1108.4 861.146 1072.29 843.303 1062.09C842.028 1061.67 841.603 1060.39 842.028 1059.12C842.453 1058.27 843.303 1057.84 844.152 1057.84C860.721 1059.97 882.388 1053.17 880.688 1033.2ZM882.813 1032.78C885.362 1054.44 862.42 1063.79 844.152 1062.94L845.002 1058.69C850.525 1060.82 853.924 1065.07 857.322 1068.89C867.094 1081.21 873.891 1099.48 864.969 1114.35C853.499 1130.49 829.708 1134.74 811.865 1127.52C809.316 1126.67 806.767 1125.39 804.218 1123.69L812.29 1116.9C819.937 1132.19 822.911 1151.73 814.414 1167.88C805.067 1186.14 780.002 1190.39 763.009 1181.47C751.963 1175.95 743.891 1166.18 737.943 1155.98L750.688 1159.8C746.015 1162.35 741.342 1164.9 735.819 1166.6C727.322 1168.3 719.25 1168.3 710.329 1167.88L720.95 1158.95C718.826 1178.92 714.577 1202.71 695.884 1216.31C675.492 1229.9 645.754 1221.83 631.309 1203.14C621.963 1190.82 617.715 1176.8 617.29 1161.93L639.806 1165.75C609.218 1248.17 523.401 1215.88 539.969 1134.31L559.937 1141.96C556.113 1147.91 552.715 1152.58 548.041 1157.68C538.695 1167.88 526.8 1176.37 511.93 1177.65C488.989 1179.77 467.322 1160.23 466.048 1137.71C464.773 1124.12 467.322 1111.8 472.42 1099.05L487.29 1110.1C483.891 1112.65 481.342 1114.35 477.943 1116.05C447.355 1133.89 408.27 1122.84 397.224 1087.58C392.126 1066.34 402.322 1045.52 415.917 1029.8L423.564 1040.42C394.675 1051.9 359.414 1044.25 359.414 1007.71C360.264 990.294 373.434 977.124 387.878 968.627L391.277 976.275C369.185 984.346 323.728 975 334.773 943.562C341.146 928.693 353.041 918.922 365.786 909.15L362.388 920.196C340.296 878.987 401.048 860.719 431.636 859.869L428.237 861.569C434.185 855.196 440.558 846.275 450.329 845.425C453.303 845.425 455.852 847.974 455.852 850.523C455.852 851.797 455.852 851.797 455.852 851.797C455.852 851.373 455.852 851.373 455.852 850.098C457.976 847.124 444.806 844.15 447.355 846.275L448.205 845.85C464.773 837.778 483.466 835.229 501.309 833.954C537.845 831.405 574.381 833.105 610.917 838.203C678.891 847.124 746.015 864.967 804.218 901.928C816.538 909.575 830.133 907.026 842.878 914.673C848.826 918.072 855.623 924.444 853.074 932.092C851.8 936.34 847.551 939.314 844.152 941.013L843.728 933.791C851.375 937.19 858.597 941.438 864.545 946.961C888.76 968.627 875.166 996.667 844.577 999.216V997.092C863.695 1000.07 881.963 1013.24 882.813 1032.78Z" fill="black"/>
<path d="M716.276 1142.39C716.276 1142.39 679.74 1240.52 706.929 1257.94C734.119 1275.36 726.897 1137.71 726.897 1137.71C726.897 1137.71 754.086 1254.97 788.923 1245.2C823.76 1235.42 739.642 1137.71 733.269 1136.01" fill="white"/>
<path d="M726.471 1146.21C713.726 1168.73 688.236 1231.6 706.929 1253.69C722.223 1267.29 722.648 1207.81 722.223 1200.16C721.798 1179.35 720.099 1158.1 715.85 1137.71L716.275 1134.31C717.975 1121.99 736.243 1122.42 737.092 1134.74C737.517 1157.25 757.06 1250.29 788.497 1241.8C798.693 1237.55 792.321 1223.53 788.922 1216.31C775.327 1189.97 754.935 1166.6 731.994 1147.91C730.295 1147.06 729.02 1145.36 727.321 1144.93C727.321 1144.93 727.321 1144.93 727.746 1145.36C728.171 1145.78 729.02 1146.21 729.87 1146.21C723.922 1144.51 720.948 1138.56 722.223 1132.61C723.922 1125.82 731.994 1122.42 737.942 1126.24C739.216 1126.67 740.066 1127.94 740.916 1128.79C748.563 1137.29 754.086 1146.63 760.458 1155.56C770.229 1171.7 818.661 1235.85 790.197 1246.9C757.059 1259.64 727.321 1163.63 715.85 1139.84L737.517 1136.86C735.393 1158.53 734.118 1179.35 731.994 1200.59C729.445 1219.28 729.445 1238.82 720.524 1256.24C716.275 1263.46 708.628 1263.89 702.68 1258.37C695.883 1252.42 694.184 1242.65 693.334 1234.58C691.635 1201.86 700.131 1170.85 705.654 1138.56C706.929 1132.61 712.452 1128.79 718.399 1129.64C726.471 1130.91 730.295 1139.84 726.471 1146.21Z" fill="black"/>
<path d="M274.021 954.608C274.021 954.608 302.06 1212.06 59.9029 1231.6C59.9029 1231.6 20.8179 1102.45 94.7395 1004.74C163.138 913.824 274.021 954.608 274.021 954.608Z" fill="white"/>
<path d="M275.72 953.333C276.57 954.608 276.145 956.307 276.57 957.581C277.844 972.876 278.269 988.595 277.419 1004.31C274.021 1088.86 237.485 1174.67 158.89 1214.61C128.302 1230.33 94.7395 1238.82 60.7525 1242.65C55.6545 1243.07 50.9813 1240.1 49.7068 1235.42C44.6087 1216.31 42.4846 1198.04 41.2101 1178.92C32.2885 1067.19 92.6153 935.49 220.916 942.712C238.759 943.562 256.602 946.536 273.596 952.483C274.021 952.483 274.87 952.908 275.72 953.333ZM266.373 960.555C267.223 961.83 269.347 963.529 270.197 963.529C268.922 963.104 265.949 962.255 264.674 961.83C110.034 921.046 40.3604 1071.01 64.5761 1203.14C65.8506 1211.63 67.9748 1220.56 70.0989 1228.63L58.6284 1220.98C205.622 1210.78 270.197 1099.48 264.674 961.405C264.674 960.555 264.249 957.157 264.249 956.307C264.674 957.582 265.099 959.706 266.373 960.555Z" fill="black"/>
<path d="M936.77 963.53C936.77 963.53 986.051 1000.92 1035.33 1093.53C1060.82 1141.54 1082.91 1197.62 1133.89 1222.26C1133.89 1222.26 1158.96 1102.88 1109.68 1031.08C1040.85 930.818 936.77 963.53 936.77 963.53Z" fill="white"/>
<path d="M941.016 963.955C941.441 963.105 941.016 960.981 940.166 960.556L940.591 960.981C961.833 978.399 980.101 999.216 997.094 1020.88C1014.09 1042.97 1028.96 1066.34 1042.55 1090.56C1068.04 1135.59 1090.13 1189.97 1138.99 1212.48L1123.7 1220.13C1134.74 1159.38 1137.29 1089.28 1103.73 1034.9C1068.89 980.098 1005.17 952.909 941.441 966.929L940.166 967.353H939.317H938.892C939.317 967.353 941.016 965.229 941.016 963.955ZM935.068 963.105C935.493 961.406 937.617 961.406 939.317 960.981C987.323 948.236 1040.85 958.432 1079.51 989.87C1143.66 1039.58 1154.71 1122.84 1147.49 1198.89C1146.64 1207.39 1145.79 1215.88 1144.09 1224.8C1142.81 1231.6 1134.74 1235 1128.79 1232.03C1115.62 1225.23 1103.3 1215.88 1093.53 1205.26C1064.22 1174.25 1048.07 1133.46 1029.81 1096.93C1005.59 1049.35 976.702 1003.04 937.193 966.504C936.343 965.654 935.068 964.379 935.068 963.105Z" fill="black"/>
<path d="M435.46 866.667C426.963 882.386 419.316 901.079 419.316 919.347C419.741 928.268 423.564 936.765 427.388 944.837C457.551 1003.46 509.381 1050.62 568.434 1078.66C602.421 1094.8 638.532 1107.12 675.493 1113.07C693.336 1115.62 712.029 1117.32 729.872 1115.62L726.473 1116.47C806.767 1076.54 844.153 1005.16 803.793 920.197C801.669 915.948 808.042 912.125 810.591 916.373C821.212 935.066 828.434 955.458 830.983 977.125C840.754 1047.65 794.447 1103.3 736.244 1136.01C735.395 1136.44 734.12 1136.86 732.846 1136.86C721.8 1137.71 712.453 1137.29 701.832 1136.44C652.551 1132.19 604.97 1115.62 561.212 1092.68C500.46 1061.24 447.78 1010.69 418.466 948.236C414.643 938.889 410.819 929.118 410.395 918.497C411.669 898.105 419.741 879.837 429.512 862.419C432.061 859.02 438.009 862.844 435.46 866.667Z" fill="black"/>
<path d="M720.524 1126.24C726.047 1064.22 728.171 1000.49 715.851 939.314C715.002 935.49 717.551 931.242 721.374 930.392C725.622 929.543 729.871 932.517 730.296 936.765C732.42 952.484 734.119 968.628 735.394 984.347C739.217 1030.23 740.917 1080.78 742.616 1127.09C742.191 1142.39 719.25 1141.54 720.524 1126.24Z" fill="black"/>
<path d="M729.02 1012.81C740.517 1012.81 749.837 1003.49 749.837 991.994C749.837 980.497 740.517 971.177 729.02 971.177C717.523 971.177 708.203 980.497 708.203 991.994C708.203 1003.49 717.523 1012.81 729.02 1012.81Z" fill="black"/>
<path d="M731.995 1076.96C743.492 1076.96 752.812 1067.64 752.812 1056.14C752.812 1044.65 743.492 1035.33 731.995 1035.33C720.498 1035.33 711.178 1044.65 711.178 1056.14C711.178 1067.64 720.498 1076.96 731.995 1076.96Z" fill="black"/>
<path d="M777.447 1043.4C768.525 1087.16 710.748 1113.5 613.46 1073.99C512.349 1033.2 468.591 935.915 457.545 907.026C517.447 794.869 475.813 717.124 475.813 717.124C613.885 705.229 734.538 866.667 734.538 866.667L753.231 946.536C754.931 953.333 758.329 959.281 763.427 963.529C772.349 979.248 782.97 1015.36 777.447 1043.4Z" fill="white"/>
<path d="M455.423 908.301C463.495 895.98 468.593 881.536 471.992 867.516C478.364 838.203 480.489 808.464 480.913 778.725V767.68C479.639 756.634 475.815 745.163 471.567 734.967C466.044 721.373 486.011 712.876 492.384 726.471C493.234 728.17 493.234 731.144 493.234 732.843C494.508 790.621 497.057 864.967 460.521 912.974C457.972 915.523 452.874 911.699 455.423 908.301Z" fill="black"/>
<path d="M739.212 865.817C745.585 869.641 747.709 874.739 748.559 879.837C751.108 890.033 750.258 901.079 752.807 911.7C754.931 921.896 761.304 931.667 763.003 942.288C765.128 953.334 771.5 976.7 774.049 988.17C774.899 990.719 773.199 993.693 770.226 994.118C768.526 994.543 767.252 994.118 765.977 993.268C760.454 988.595 757.905 983.922 754.507 977.974C748.984 967.778 745.16 958.432 741.762 946.961C738.788 936.765 740.062 925.719 737.513 915.098C735.389 904.902 729.441 895.131 727.317 884.51C726.043 879.412 725.618 873.889 729.441 867.517C731.99 864.968 736.239 864.118 739.212 865.817Z" fill="black"/>
<path d="M769.802 977.974C688.658 973.725 622.384 948.235 557.809 833.104C612.188 881.111 676.338 899.379 743.887 907.876L752.809 946.961C754.508 953.758 764.704 973.725 769.802 977.974Z" fill="black"/>
<path d="M766.404 962.255C780.849 989.444 789.346 1023.43 780.424 1053.59C773.627 1074.84 754.084 1090.56 732.842 1096.5C683.561 1109.67 626.633 1088.86 582.875 1065.49C528.921 1035.33 488.986 984.771 463.496 929.542C461.797 925.294 467.744 921.895 470.293 926.144C479.215 943.987 489.411 961.405 500.882 977.124C512.352 993.268 525.522 1008.14 540.391 1021.31C583.725 1060.39 642.352 1084.61 700.98 1084.61C761.306 1082.91 784.248 1051.05 770.228 992.418C768.104 983.072 764.705 973.301 760.032 965.229C757.483 961.83 763.855 958.006 766.404 962.255Z" fill="black"/>
<path d="M930.815 452.026C938.462 487.712 912.972 525.948 912.972 621.111C912.972 718.399 895.128 824.183 821.632 897.68C758.331 960.98 685.684 958.431 600.292 891.732C588.396 882.386 546.762 850.948 536.142 840.327C523.821 828.007 517.024 819.085 511.076 809.739C505.978 801.242 507.253 751.961 500.03 740.49C481.338 709.477 477.514 743.039 453.298 715.85C419.736 679.314 379.377 605.817 399.344 475.817C431.632 265.098 598.592 240.458 722.22 263.824C846.697 287.614 910.423 358.137 930.815 452.026Z" fill="white"/>
<path d="M474.541 753.66C464.77 737.516 452.449 723.072 440.979 708.202C429.508 692.484 420.162 675.915 412.515 658.072C369.181 553.137 375.554 415.915 452.449 327.549C505.129 267.222 588.397 247.255 664.868 251.503C741.338 256.176 820.783 275.719 877.286 330.948C909.998 362.81 930.815 405.294 940.162 449.477C943.136 463.497 941.011 478.791 937.613 491.961C927.842 528.921 918.495 564.183 917.645 602.418C918.07 659.346 916.371 717.549 899.802 772.353C887.907 808.889 873.887 845.425 851.796 877.287C828.855 909.575 794.443 935.49 754.933 943.137C675.489 959.281 601.142 909.15 548.462 854.771C546.338 852.222 549.312 849.248 551.861 850.948C582.024 873.889 613.038 895.131 646.6 909.575C743.462 954.183 823.757 912.974 866.24 819.51C901.926 751.536 912.123 678.039 909.149 601.993C909.149 582.876 909.998 563.758 912.547 544.64C915.096 517.026 924.443 489.412 924.018 462.222C916.796 418.039 896.404 375.555 865.815 342.843C793.168 265.948 653.822 243.431 556.109 278.268C440.979 319.052 409.966 435.033 403.593 545.915C399.345 612.189 418.887 677.189 469.018 722.647L488.985 743.464C495.783 752.81 481.338 763.856 474.541 753.66Z" fill="black"/>
<path d="M524.672 618.562C524.672 618.562 511.502 554.837 449.476 562.484C395.946 569.281 377.254 697.582 498.757 733.268" fill="white"/>
<path d="M493.234 677.614C483.463 672.092 476.666 662.745 476.241 651.275C476.666 642.778 477.94 633.007 475.816 624.51C474.541 616.438 466.045 614.314 459.672 614.739C452.875 616.013 448.626 624.51 447.352 631.307C447.352 631.732 446.927 633.007 446.927 633.431C446.502 635.556 443.103 635.556 442.254 633.431C436.731 616.863 449.051 598.595 466.894 600.719C491.96 602.418 495.358 628.758 490.685 648.726C488.136 657.222 491.535 664.869 496.208 672.092L497.058 673.366C499.182 675.915 495.783 679.314 493.234 677.614Z" fill="black"/>
<path d="M833.103 573.529C839.476 603.693 851.371 631.732 866.241 658.072C879.411 690.359 845.424 720.947 815.26 719.673C811.862 719.673 811.437 715 814.411 714.15C833.528 708.202 850.947 695.457 853.92 675.915C855.195 669.967 853.496 664.869 850.522 659.771C836.502 633.431 828.005 603.268 830.13 573.529C830.13 571.405 833.103 571.405 833.103 573.529Z" fill="black"/>
<path d="M522.549 618.987C512.777 593.921 491.536 570.13 463.072 570.555C460.523 570.13 456.274 570.98 453.725 570.98C446.503 571.405 440.555 573.954 435.032 579.052C407.843 606.241 412.516 654.248 434.608 684.411C442.255 695.032 452.026 704.379 463.072 712.026C474.117 719.673 486.438 725.621 499.608 730.719C502.581 731.568 501.307 736.241 498.333 735.817C469.869 729.869 442.679 715.849 423.987 692.483C395.098 657.647 389.15 599.444 423.562 565.457C431.209 558.66 441.83 553.562 452.451 553.562C455.849 553.562 460.947 552.712 464.346 553.562C482.189 554.411 499.183 563.333 510.228 577.353C520 589.248 525.523 603.692 527.222 618.137C527.222 620.686 523.398 621.536 522.549 618.987Z" fill="black"/>
<path d="M791.043 760.457C791.468 767.255 786.37 779.15 777.023 787.647C729.017 758.333 707.35 773.627 707.35 773.627C690.357 747.712 694.18 712.451 735.389 739.215C763.853 757.908 781.697 760.882 791.043 760.457Z" fill="black"/>
<path d="M776.599 788.072C766.403 796.993 751.109 802.516 730.292 794.019C720.521 790.196 712.873 782.549 706.926 774.052C707.351 774.052 728.592 758.758 776.599 788.072Z" fill="white"/>
<path d="M799.115 759.183C799.115 759.183 781.272 768.954 735.389 739.64C680.585 704.379 691.631 778.3 730.291 794.019C770.651 810.588 791.468 774.477 791.043 760.882" stroke="black" stroke-width="3" stroke-miterlimit="10" stroke-linecap="round" stroke-linejoin="round"/>
<path d="M707.352 774.052C707.352 774.052 729.018 758.758 777.025 788.072" stroke="black" stroke-width="3" stroke-miterlimit="10" stroke-linecap="round" stroke-linejoin="round"/>
<path d="M694.608 586.7C694.608 587.125 694.608 587.549 694.608 587.549L694.183 599.445C693.759 609.641 685.262 617.288 675.066 616.863C664.87 616.438 657.223 607.517 658.072 597.746L658.497 585.85C658.497 583.726 659.347 581.177 660.196 579.478L694.183 581.177C694.183 582.876 694.608 584.576 694.608 586.7Z" fill="black"/>
<path d="M872.187 596.046L871.763 607.092C871.338 616.438 863.266 623.66 853.919 623.236C844.573 622.811 837.351 614.739 837.776 605.392L838.2 594.347C838.2 592.222 838.625 590.098 839.475 588.399L871.338 589.673C871.763 591.798 872.187 593.922 872.187 596.046Z" fill="black"/>
<path d="M737.09 528.497C746.436 529.771 753.658 520 750.26 510.654C748.56 505.556 745.586 500.883 740.913 497.909C726.469 488.987 672.514 488.137 644.05 508.53C618.56 527.222 694.606 522.549 737.09 528.497Z" fill="black"/>
<path d="M854.768 533.17C847.121 533.17 842.448 523.399 846.272 515.327C848.396 511.079 851.37 507.255 855.618 505.131C868.788 498.758 904.049 502.582 919.768 524.249C933.788 543.366 890.03 532.745 854.768 533.17Z" fill="black"/>
<path d="M721.793 586.699L651.695 585.425C643.199 585 643.623 572.255 652.12 572.68L722.218 577.778C728.166 578.203 727.741 586.699 721.793 586.699Z" fill="black"/>
<path d="M890.032 593.921L838.202 594.771C829.706 594.771 829.281 582.451 837.777 582.026C838.202 582.026 838.202 582.026 838.627 582.026L890.457 587.549C894.281 587.974 893.856 593.496 890.032 593.921Z" fill="black"/>
<path d="M884.933 169.509C799.966 182.255 752.809 226.862 729.018 224.738C538.691 206.045 450.325 276.143 425.26 298.66C389.998 329.673 361.534 454.575 363.659 524.673C366.208 622.385 444.377 728.594 448.201 733.268C474.116 764.281 480.489 805.065 486.861 782.549C488.985 775.326 483.038 737.091 485.162 728.594C378.953 687.81 398.07 569.281 449.9 562.483C504.279 555.686 521.273 604.117 524.247 616.013C524.247 616.013 525.946 651.274 532.319 661.47C538.691 671.666 580.75 688.66 580.75 688.66C580.75 688.66 576.927 617.287 576.077 610.065C575.227 602.843 538.691 589.248 532.319 511.503C529.77 453.725 542.09 347.941 698.855 419.738C735.815 436.732 818.234 457.549 898.528 447.353C898.528 447.353 993.266 451.601 1037.45 367.058C1081.63 282.941 1004.31 151.242 884.933 169.509Z" fill="black"/>
<path d="M582.024 698.431C582.024 698.431 542.515 675.065 539.116 678.039C535.717 680.588 585.423 709.052 582.024 698.431Z" fill="black"/>
<path d="M582.026 704.804C582.026 704.804 556.111 693.333 552.288 695.457C548.039 697.581 586.699 716.699 582.026 704.804Z" fill="black"/>
<path d="M863.268 774.052C832.255 779.15 816.536 761.307 810.589 752.81C799.968 774.052 774.478 792.32 723.497 783.399C657.223 771.928 656.373 712.026 656.373 712.026C677.19 734.118 703.955 717.549 740.916 703.954C784.674 688.235 804.641 703.104 811.438 711.601C812.288 710.752 821.634 721.372 840.752 701.405C845 697.157 852.648 704.804 859.02 710.327C880.262 729.869 890.458 732.418 898.105 720.948C898.105 721.372 899.804 768.104 863.268 774.052Z" fill="black"/>
</g>
</svg>
