<svg width="1300" height="1300" viewBox="0 0 1300 1300" fill="none" xmlns="http://www.w3.org/2000/svg">
<mask id="mask0_610_1303" style="mask-type:alpha" maskUnits="userSpaceOnUse" x="0" y="0" width="1296" height="1296">
<circle cx="647.869" cy="647.869" r="647.869" fill="#D9D9D9"/>
</mask>
<g mask="url(#mask0_610_1303)">
<path d="M1003.04 1182.75C1000.07 1184.87 996.669 1186.99 993.695 1189.12C990.296 1191.24 987.322 1193.37 983.923 1195.07C980.95 1196.76 978.401 1198.46 975.427 1200.16C975.002 1200.59 974.577 1200.59 974.152 1201.01C964.381 1206.96 954.185 1212.48 943.989 1217.58C941.015 1219.28 937.616 1220.98 934.642 1222.26C934.642 1222.26 934.218 1222.68 933.793 1222.68C930.394 1224.38 926.995 1226.08 923.597 1227.78C916.799 1231.18 909.577 1234.15 902.78 1237.12C899.381 1238.82 895.557 1240.1 892.159 1241.37C888.76 1242.65 884.937 1244.35 881.538 1245.62C878.139 1246.9 874.316 1248.59 870.917 1249.87C870.917 1249.87 870.917 1249.87 870.492 1249.87C867.093 1251.14 863.27 1252.42 859.871 1253.69C852.224 1256.24 844.152 1258.79 836.505 1261.34C833.956 1262.19 830.982 1263.04 828.433 1263.89C820.361 1266.44 812.29 1268.56 804.218 1270.26C801.244 1271.11 798.27 1271.54 794.871 1272.39C787.224 1274.09 779.152 1275.78 771.505 1277.48C769.806 1277.91 768.531 1277.91 766.832 1278.33C764.283 1278.76 761.309 1279.18 758.76 1279.61C754.937 1280.03 751.538 1280.88 747.714 1281.31C746.015 1281.73 744.316 1281.73 742.616 1282.16C740.492 1282.58 737.943 1283.01 735.394 1283.01C728.597 1283.86 721.374 1284.71 714.577 1285.56C712.453 1285.98 709.904 1285.98 707.78 1286.41H707.355C704.381 1286.83 701.407 1286.83 698.433 1287.25C695.459 1287.68 692.486 1287.68 689.512 1287.68C687.812 1287.68 685.688 1288.1 683.989 1288.1C680.59 1288.1 677.616 1288.53 674.642 1288.53C670.394 1288.53 666.571 1288.95 662.322 1288.95C658.074 1288.95 654.25 1288.95 650.002 1288.95C647.028 1288.95 644.054 1288.95 641.08 1288.95C461.799 1286.41 300.786 1210.36 185.656 1089.71C185.656 1089.71 185.656 1089.28 185.231 1089.28C172.486 1077.81 183.531 1016.63 234.937 977.974C299.512 929.118 454.152 898.53 454.152 898.53C454.152 898.53 514.054 888.758 736.244 935.066C866.244 962.255 965.231 1001.76 1020.46 1108.82C1031.93 1130.92 1043.4 1164.9 1003.04 1182.75Z" fill="white"/>
<path d="M737.518 930.392C819.087 946.961 906.178 964.804 973.302 1018.76C995.819 1037.03 1010.69 1063.79 1023.01 1089.71C1028.96 1102.45 1034.9 1115.62 1039.58 1129.64C1042.13 1138.99 1045.95 1149.61 1043.83 1160.65C1043.4 1163.63 1040.85 1167.45 1038.73 1169.58C1028.96 1179.35 1018.34 1185.29 1007.71 1192.94C945.263 1236.27 873.466 1266.86 799.119 1283.01C633.433 1319.12 454.152 1291.08 308.433 1203.99C260.002 1174.67 215.394 1138.99 177.159 1096.93C172.91 1091.83 172.91 1083.33 172.91 1077.81C173.335 1065.07 176.734 1052.75 180.982 1041.27C191.178 1014.93 204.348 988.595 226.864 970.327C243.008 959.281 260.427 949.935 278.27 942.288C334.348 918.497 393.4 901.928 454.152 895.131C459.25 894.706 460.1 901.928 455.002 902.778C396.799 914.673 339.021 932.516 285.067 956.732C265.525 966.503 244.708 975 228.989 990.294C214.119 1006.44 203.498 1026.41 195.002 1046.8C189.479 1059.12 185.655 1078.66 187.355 1088.43C214.119 1120.29 245.557 1148.33 279.544 1172.55C465.623 1302.55 748.139 1311.05 946.113 1202.71C963.956 1192.94 981.374 1181.9 997.943 1170.42C1006.01 1164.9 1014.51 1160.23 1020.88 1153.86C1021.31 1153.43 1020.88 1153.86 1020.88 1154.28C1020.88 1154.71 1020.46 1155.13 1020.46 1155.13C1020.88 1150.03 1019.18 1143.24 1017.06 1136.44C1009.41 1111.8 997.093 1085.88 983.923 1063.37C963.106 1029.8 927.845 1008.56 892.159 991.569C867.518 980.098 841.603 971.177 815.263 962.68C788.923 954.183 762.159 946.961 735.394 940.588C728.597 938.889 730.721 929.118 737.518 930.392Z" fill="black"/>
<path d="M1144.09 1446.14H69.6738C69.6738 1446.14 87.0921 1271.11 153.367 1131.34C177.582 1080.36 185.654 1005.59 233.661 972.875C282.942 939.313 387.876 912.548 424.412 908.299C444.804 905.75 440.131 904.051 454.576 900.228C459.249 912.973 506.406 1037.87 619.412 1083.76C716.7 1123.27 774.478 1096.93 783.399 1053.17C788.922 1025.13 771.504 979.247 762.582 964.378C757.484 960.13 754.086 953.757 752.386 947.384L748.987 933.365C756.635 931.665 763.857 929.541 771.504 927.417C775.327 928.267 779.576 927.842 782.974 929.966C818.661 949.509 926.144 977.123 982.223 1036.18C1004.31 1059.12 1038.73 1140.69 1044.25 1193.79C1059.97 1339.51 1144.09 1446.14 1144.09 1446.14Z" fill="white"/>
<path d="M1150.04 1448.69C831.408 1449.54 384.055 1453.37 70.1005 1452.09C66.277 1452.09 63.3031 1448.69 63.728 1444.87C67.5515 1414.71 72.6495 1385.39 78.5973 1355.65C94.3162 1274.51 118.107 1194.64 153.793 1120.29C168.238 1085.46 175.46 1048.92 192.878 1014.93C203.074 994.542 218.368 975 238.761 963.529C271.473 943.987 307.584 931.667 343.695 920.621C365.362 914.248 387.453 908.301 409.545 904.052C420.591 901.503 431.636 901.928 441.833 897.68C447.355 895.556 457.976 889.183 461.375 897.255C492.388 977.549 552.29 1053.59 635.983 1082.06C679.316 1097.78 754.512 1110.95 776.604 1057.84C783.401 1037.88 777.029 1016.21 771.081 996.242C767.682 986.046 763.434 975.425 758.336 966.928L759.61 968.203C751.963 961.83 747.715 951.634 746.44 942.288L744.316 933.791C743.466 930.392 745.591 926.993 748.989 926.144C756.636 924.869 764.283 922.32 771.931 920.196C776.179 920.196 782.976 921.046 788.499 924.02C835.231 945.686 888.336 961.405 932.944 988.595C958.009 1003.46 983.499 1020.88 999.643 1045.95C1029.38 1095.65 1048.5 1152.16 1054.02 1209.51C1065.92 1291.5 1099.05 1370.1 1146.64 1437.65L1148.34 1439.77L1149.19 1440.62L1149.61 1441.05C1149.61 1441.05 1149.61 1440.62 1150.04 1441.9C1150.46 1444.44 1150.46 1447.42 1150.04 1448.69ZM1138.56 1443.17C1137.71 1444.44 1137.71 1447.42 1138.56 1448.69C1139.41 1449.54 1138.99 1449.12 1138.99 1449.12L1138.56 1448.69L1137.71 1447.42L1136.02 1445.29C1109.25 1404.51 1087.16 1360.75 1071.02 1315.29C1058.27 1281.73 1048.92 1246.9 1043.83 1211.21C1042.13 1198.46 1040 1181.47 1037.03 1169.15C1027.26 1128.37 1011.54 1087.58 989.022 1052.32C981.8 1040.85 971.179 1031.93 960.558 1023.43C926.996 997.941 887.486 982.222 848.401 966.928L808.467 952.059C795.297 946.961 779.578 941.438 771.506 933.366H774.904C767.257 935.915 759.61 938.039 751.963 939.739L756.636 932.091L758.761 940.588C760.46 948.235 762.159 955.033 768.107 960.131C768.532 960.556 768.957 960.98 769.382 961.405C780.852 982.222 787.649 1003.89 791.048 1027.25C798.27 1067.61 772.78 1099.48 733.695 1107.12C679.741 1117.75 615.166 1094.38 570.558 1064.22C514.48 1024.71 474.12 966.078 449.48 902.778L457.127 906.601C453.303 907.876 450.754 909.15 446.931 910.85C443.107 912.974 438.434 914.248 434.185 915.098C434.61 917.647 433.336 910 435.035 920.196C426.963 921.046 420.591 921.471 412.944 923.17C391.277 926.569 369.61 931.667 348.368 937.614C319.904 945.261 291.865 954.608 265.525 966.928C252.355 973.301 239.61 980.098 229.839 989.02C219.643 997.941 211.571 1009.84 204.774 1022.58C184.806 1061.24 175.035 1107.55 154.643 1146.63C112.159 1241.37 88.3685 1344.61 76.8979 1447.84L70.5254 1441.05C378.957 1439.77 825.035 1441.47 1138.56 1443.17Z" fill="black"/>
<path d="M799.12 1168.3C784.251 1172.55 732.421 1118.59 721.8 1109.25C712.029 1120.29 643.205 1198.04 609.218 1192.94C571.833 1187.42 476.245 1123.27 427.813 1022.58C401.048 967.353 400.199 933.791 403.173 915.523C404.447 907.026 406.996 901.503 408.271 898.529C412.519 888.758 443.107 850.947 450.754 851.372V851.797C454.578 892.581 467.748 932.091 489.839 966.503C517.029 1008.56 559.937 1059.12 619.839 1083.33C717.127 1122.84 767.682 1083.76 776.179 1040C781.702 1011.96 771.931 978.823 763.009 963.954C757.911 959.706 754.513 953.333 752.813 946.96L749.414 932.941C757.062 931.242 764.284 929.117 771.931 926.993C774.055 926.143 776.604 925.719 778.728 924.869C780.003 926.568 781.702 928.268 782.977 929.967C800.82 950.359 819.513 978.398 829.709 1025.98C846.702 1102.03 815.689 1163.2 799.12 1168.3Z" fill="black"/>
<path d="M720.525 1106.7C720.525 1106.7 751.538 1124.54 750.689 1139.41C749.839 1154.28 758.761 1201.44 758.761 1201.44" stroke="black" stroke-width="3" stroke-miterlimit="10" stroke-linecap="round" stroke-linejoin="round"/>
<path d="M720.1 1163.2C725.731 1163.2 730.296 1158.64 730.296 1153.01C730.296 1147.38 725.731 1142.81 720.1 1142.81C714.469 1142.81 709.904 1147.38 709.904 1153.01C709.904 1158.64 714.469 1163.2 720.1 1163.2Z" fill="black"/>
<path d="M723.497 1203.14C729.128 1203.14 733.693 1198.57 733.693 1192.94C733.693 1187.31 729.128 1182.74 723.497 1182.74C717.866 1182.74 713.301 1187.31 713.301 1192.94C713.301 1198.57 717.866 1203.14 723.497 1203.14Z" fill="black"/>
<path d="M279.969 1446.14L260.852 1288.53" stroke="#544D4D" stroke-width="3" stroke-miterlimit="10" stroke-linecap="round" stroke-linejoin="round"/>
<path d="M1022.16 1235C1022.16 1235 1009.41 1266.01 1013.24 1297.03C1017.06 1328.04 1028.11 1373.5 1012.39 1446.14" stroke="#544D4D" stroke-width="3" stroke-miterlimit="10" stroke-linecap="round" stroke-linejoin="round"/>
<path d="M450.753 851.372C450.753 851.372 587.975 808.889 779.152 924.444C779.152 924.444 831.832 1066.34 799.119 1088.01C766.407 1109.67 663.596 1111.8 591.799 1088.01C519.577 1064.64 426.962 947.81 450.753 851.372Z" fill="black"/>
<path d="M777.447 1043.4C768.525 1087.16 710.748 1113.5 613.46 1073.99C512.349 1033.2 468.591 935.915 457.545 907.026C517.447 794.869 475.813 717.124 475.813 717.124C613.885 705.229 734.538 866.667 734.538 866.667L753.231 946.536C754.931 953.333 758.329 959.281 763.427 963.529C772.349 979.248 782.97 1015.36 777.447 1043.4Z" fill="white"/>
<path d="M455.423 908.301C463.495 895.98 468.593 881.536 471.992 867.516C478.364 838.203 480.489 808.464 480.913 778.725V767.68C479.639 756.634 475.815 745.163 471.567 734.967C466.044 721.373 486.011 712.876 492.384 726.471C493.234 728.17 493.234 731.144 493.234 732.843C494.508 790.621 497.057 864.967 460.521 912.974C457.972 915.523 452.874 911.699 455.423 908.301Z" fill="black"/>
<path d="M739.212 865.817C745.585 869.641 747.709 874.739 748.559 879.837C751.108 890.033 750.258 901.079 752.807 911.7C754.931 921.896 761.304 931.667 763.003 942.288C765.128 953.334 771.5 976.7 774.049 988.17C774.899 990.719 773.199 993.693 770.226 994.118C768.526 994.543 767.252 994.118 765.977 993.268C760.454 988.595 757.905 983.922 754.507 977.974C748.984 967.778 745.16 958.432 741.762 946.961C738.788 936.765 740.062 925.719 737.513 915.098C735.389 904.902 729.441 895.131 727.317 884.51C726.043 879.412 725.618 873.889 729.441 867.517C731.99 864.968 736.239 864.118 739.212 865.817Z" fill="black"/>
<path d="M769.802 977.974C688.658 973.725 622.384 948.235 557.809 833.104C612.188 881.111 676.338 899.379 743.887 907.876L752.809 946.961C754.508 953.758 764.704 973.725 769.802 977.974Z" fill="black"/>
<path d="M766.404 962.255C780.849 989.444 789.346 1023.43 780.424 1053.59C773.627 1074.84 754.084 1090.56 732.842 1096.5C683.561 1109.67 626.633 1088.86 582.875 1065.49C528.921 1035.33 488.986 984.771 463.496 929.542C461.797 925.294 467.744 921.895 470.293 926.144C479.215 943.987 489.411 961.405 500.882 977.124C512.352 993.268 525.522 1008.14 540.391 1021.31C583.725 1060.39 642.352 1084.61 700.98 1084.61C761.306 1082.91 784.248 1051.05 770.228 992.418C768.104 983.072 764.705 973.301 760.032 965.229C757.483 961.83 763.855 958.006 766.404 962.255Z" fill="black"/>
<path d="M930.815 452.026C938.462 487.712 912.972 525.948 912.972 621.111C912.972 718.399 895.128 824.183 821.632 897.68C758.331 960.98 685.684 958.431 600.292 891.732C588.396 882.386 546.762 850.948 536.142 840.327C523.821 828.007 517.024 819.085 511.076 809.739C505.978 801.242 507.253 751.961 500.03 740.49C481.338 709.477 477.514 743.039 453.298 715.85C419.736 679.314 379.377 605.817 399.344 475.817C431.632 265.098 598.592 240.458 722.22 263.824C846.697 287.614 910.423 358.137 930.815 452.026Z" fill="white"/>
<path d="M474.541 753.66C464.77 737.516 452.449 723.072 440.979 708.202C429.508 692.484 420.162 675.915 412.515 658.072C369.181 553.137 375.554 415.915 452.449 327.549C505.129 267.222 588.397 247.255 664.868 251.503C741.338 256.176 820.783 275.719 877.286 330.948C909.998 362.81 930.815 405.294 940.162 449.477C943.136 463.497 941.011 478.791 937.613 491.961C927.842 528.921 918.495 564.183 917.645 602.418C918.07 659.346 916.371 717.549 899.802 772.353C887.907 808.889 873.887 845.425 851.796 877.287C828.855 909.575 794.443 935.49 754.933 943.137C675.489 959.281 601.142 909.15 548.462 854.771C546.338 852.222 549.312 849.248 551.861 850.948C582.024 873.889 613.038 895.131 646.6 909.575C743.462 954.183 823.757 912.974 866.24 819.51C901.926 751.536 912.123 678.039 909.149 601.993C909.149 582.876 909.998 563.758 912.547 544.64C915.096 517.026 924.443 489.412 924.018 462.222C916.796 418.039 896.404 375.555 865.815 342.843C793.168 265.948 653.822 243.431 556.109 278.268C440.979 319.052 409.966 435.033 403.593 545.915C399.345 612.189 418.887 677.189 469.018 722.647L488.985 743.464C495.783 752.81 481.338 763.856 474.541 753.66Z" fill="black"/>
<path d="M524.672 618.562C524.672 618.562 511.502 554.837 449.476 562.484C395.946 569.281 377.254 697.582 498.757 733.268" fill="white"/>
<path d="M493.234 677.614C483.463 672.092 476.666 662.745 476.241 651.275C476.666 642.778 477.94 633.007 475.816 624.51C474.541 616.438 466.045 614.314 459.672 614.739C452.875 616.013 448.626 624.51 447.352 631.307C447.352 631.732 446.927 633.007 446.927 633.431C446.502 635.556 443.103 635.556 442.254 633.431C436.731 616.863 449.051 598.595 466.894 600.719C491.96 602.418 495.358 628.758 490.685 648.726C488.136 657.222 491.535 664.869 496.208 672.092L497.058 673.366C499.182 675.915 495.783 679.314 493.234 677.614Z" fill="black"/>
<path d="M833.103 573.529C839.476 603.693 851.371 631.732 866.241 658.072C879.411 690.359 845.424 720.947 815.26 719.673C811.862 719.673 811.437 715 814.411 714.15C833.528 708.202 850.947 695.457 853.92 675.915C855.195 669.967 853.496 664.869 850.522 659.771C836.502 633.431 828.005 603.268 830.13 573.529C830.13 571.405 833.103 571.405 833.103 573.529Z" fill="black"/>
<path d="M522.549 618.987C512.777 593.921 491.536 570.13 463.072 570.555C460.523 570.13 456.274 570.98 453.725 570.98C446.503 571.405 440.555 573.954 435.032 579.052C407.843 606.241 412.516 654.248 434.608 684.411C442.255 695.032 452.026 704.379 463.072 712.026C474.117 719.673 486.438 725.621 499.608 730.719C502.581 731.568 501.307 736.241 498.333 735.817C469.869 729.869 442.679 715.849 423.987 692.483C395.098 657.647 389.15 599.444 423.562 565.457C431.209 558.66 441.83 553.562 452.451 553.562C455.849 553.562 460.947 552.712 464.346 553.562C482.189 554.411 499.183 563.333 510.228 577.353C520 589.248 525.523 603.692 527.222 618.137C527.222 620.686 523.398 621.536 522.549 618.987Z" fill="black"/>
<path d="M791.043 760.457C791.468 767.255 786.37 779.15 777.023 787.647C729.017 758.333 707.35 773.627 707.35 773.627C690.357 747.712 694.18 712.451 735.389 739.215C763.853 757.908 781.697 760.882 791.043 760.457Z" fill="black"/>
<path d="M776.599 788.072C766.403 796.993 751.109 802.516 730.292 794.019C720.521 790.196 712.873 782.549 706.926 774.052C707.351 774.052 728.592 758.758 776.599 788.072Z" fill="white"/>
<path d="M799.115 759.183C799.115 759.183 781.272 768.954 735.389 739.64C680.585 704.379 691.631 778.3 730.291 794.019C770.651 810.588 791.468 774.477 791.043 760.882" stroke="black" stroke-width="3" stroke-miterlimit="10" stroke-linecap="round" stroke-linejoin="round"/>
<path d="M707.352 774.052C707.352 774.052 729.018 758.758 777.025 788.072" stroke="black" stroke-width="3" stroke-miterlimit="10" stroke-linecap="round" stroke-linejoin="round"/>
<path d="M694.608 586.7C694.608 587.125 694.608 587.549 694.608 587.549L694.183 599.445C693.759 609.641 685.262 617.288 675.066 616.863C664.87 616.438 657.223 607.517 658.072 597.746L658.497 585.85C658.497 583.726 659.347 581.177 660.196 579.478L694.183 581.177C694.183 582.876 694.608 584.576 694.608 586.7Z" fill="black"/>
<path d="M872.187 596.046L871.763 607.092C871.338 616.438 863.266 623.66 853.919 623.236C844.573 622.811 837.351 614.739 837.776 605.392L838.2 594.347C838.2 592.222 838.625 590.098 839.475 588.399L871.338 589.673C871.763 591.798 872.187 593.922 872.187 596.046Z" fill="black"/>
<path d="M737.09 528.497C746.436 529.771 753.658 520 750.26 510.654C748.56 505.556 745.586 500.883 740.913 497.909C726.469 488.987 672.514 488.137 644.05 508.53C618.56 527.222 694.606 522.549 737.09 528.497Z" fill="black"/>
<path d="M854.768 533.17C847.121 533.17 842.448 523.399 846.272 515.327C848.396 511.079 851.37 507.255 855.618 505.131C868.788 498.758 904.049 502.582 919.768 524.249C933.788 543.366 890.03 532.745 854.768 533.17Z" fill="black"/>
<path d="M721.793 586.699L651.695 585.425C643.199 585 643.623 572.255 652.12 572.68L722.218 577.778C728.166 578.203 727.741 586.699 721.793 586.699Z" fill="black"/>
<path d="M890.032 593.921L838.202 594.771C829.706 594.771 829.281 582.451 837.777 582.026C838.202 582.026 838.202 582.026 838.627 582.026L890.457 587.549C894.281 587.974 893.856 593.496 890.032 593.921Z" fill="black"/>
<path d="M644.477 243.006C393.399 237.908 367.909 448.202 383.628 573.529C401.046 712.875 484.314 767.679 484.314 767.679L489.837 730.718C489.837 730.718 469.869 723.921 450.752 709.902C384.477 659.771 404.87 568.431 449.902 562.908C494.935 556.96 514.477 589.673 521.275 607.516C545.066 528.921 511.504 509.379 545.066 453.725C650 340.294 723.072 416.764 774.477 431.633C830.556 447.352 867.517 429.509 888.334 409.542C903.203 395.098 922.321 422.287 922.321 422.287C922.321 422.287 894.706 248.104 644.477 243.006Z" fill="black"/>
<path d="M871.344 656.797C859.873 642.778 845.004 633.006 827.161 632.581C808.468 632.157 779.154 636.405 749.841 659.771C711.605 690.359 635.135 685.686 604.971 682.712C596.475 681.863 588.403 686.111 584.579 693.758C576.082 710.751 564.612 746.013 570.135 802.941C577.357 880.686 640.658 951.209 729.873 945.261C847.128 938.039 915.527 843.725 919.775 717.549C918.926 682.712 898.109 689.934 871.344 656.797Z" fill="white"/>
<path d="M867.943 659.346C858.172 647.026 844.577 637.255 828.434 636.405C801.669 635.13 774.904 644.902 753.662 661.895C748.14 666.143 741.767 670.392 735.394 673.79C700.558 690.359 660.198 691.209 622.388 689.509C614.741 689.509 606.669 687.385 598.597 688.235C593.499 689.085 589.251 693.333 587.126 698.431C568.859 740.915 568.434 801.666 585.002 845C598.597 879.836 624.937 909.575 658.499 926.143C684.839 939.313 715.427 942.712 744.741 938.888C750.264 938.464 763.434 935.49 768.957 934.64C771.93 933.79 785.525 929.542 788.499 928.692C791.048 927.843 797.421 924.869 799.545 924.019C860.721 897.255 898.107 833.954 908.303 769.804C910.427 759.183 911.702 748.137 912.551 737.091C912.976 726.045 915.1 715 912.126 705.653C909.577 695.457 900.656 690.784 892.584 683.987C883.662 676.339 875.166 668.268 867.943 659.346ZM874.316 654.248C884.937 667.843 899.381 674.64 912.551 685.686C927.421 698.006 924.447 720.522 923.172 737.091C923.172 741.764 921.473 748.987 921.048 754.085C913.826 804.215 893.434 853.496 858.597 890.882C810.166 942.287 729.447 966.503 661.898 940.588C597.747 915.098 561.636 848.823 562.486 781.699C562.061 753.235 565.46 724.346 576.506 697.581C577.355 695.457 578.205 693.758 579.055 691.634C583.303 682.712 592.649 676.764 602.421 677.189C631.31 680.163 660.623 681.437 689.087 677.189C710.754 674.215 731.996 668.268 748.564 654.673C774.479 634.706 814.414 620.686 846.277 632.581C857.747 637.679 866.669 645.326 874.316 654.248Z" fill="black"/>
<path d="M715.423 680.589C759.606 696.732 844.574 729.445 889.606 718.399C897.253 716.275 903.201 711.602 906.6 703.955C907.449 701.406 911.273 702.68 910.848 704.804C899.802 756.634 794.443 717.125 762.155 705.229C745.587 698.857 729.443 692.059 713.724 683.987C711.175 683.562 712.874 679.739 715.423 680.589Z" fill="black"/>
<path d="M643.204 738.366C716.7 771.928 823.334 818.235 902.354 785.523C904.478 784.673 906.602 787.222 904.903 788.921C856.472 835.229 755.36 798.693 702.256 774.902C681.014 765.131 660.622 754.51 641.079 742.189C638.955 740.915 640.655 737.091 643.204 738.366Z" fill="black"/>
<path d="M637.679 811.863C667.418 833.954 702.255 849.673 737.941 858.595C759.183 863.693 781.274 867.091 803.366 866.667C823.333 867.091 842.876 863.693 862.843 864.542C864.117 864.542 864.967 865.392 864.967 866.667C864.967 867.516 864.542 868.366 863.693 868.366C859.019 870.49 853.921 872.19 849.248 873.464C834.379 878.137 818.66 878.987 803.366 878.562C757.059 878.562 711.176 864.967 671.666 841.176C658.496 833.105 646.176 824.608 634.706 813.987C633.006 813.137 635.555 810.163 637.679 811.863Z" fill="black"/>
<path d="M662.32 691.209C647.876 717.124 642.778 747.713 639.379 777.026C633.432 826.307 644.053 877.288 666.144 921.896C667.419 924.02 664.02 926.569 662.32 924.02C631.307 870.491 621.536 805.915 635.981 745.589C639.379 730.719 644.053 715.85 650.85 701.83C653.399 697.157 655.523 692.909 658.922 688.66C659.772 687.811 661.046 687.386 661.896 688.236C662.745 689.085 663.17 690.36 662.32 691.209Z" fill="black"/>
<path d="M597.745 698.856C572.255 678.889 551.013 655.523 532.321 629.183C525.948 620.686 520.85 611.34 515.327 602.418C514.478 601.144 514.902 599.02 516.602 598.17C517.876 597.32 520 597.745 520.85 599.444C537.419 625.784 557.811 649.15 581.177 669.543C588.824 676.34 597.321 683.137 605.393 688.66C612.19 693.333 604.968 703.954 597.745 698.856Z" fill="black"/>
<path d="M496.21 731.993C513.203 783.399 548.889 826.307 592.223 858.17C599.02 863.268 591.373 873.464 584.576 868.366C541.242 833.954 505.556 787.647 490.262 733.693C488.987 729.869 494.935 727.745 496.21 731.993Z" fill="black"/>
</g>
</svg>
