<svg width="18" height="18" viewBox="0 0 18 18" fill="none" xmlns="http://www.w3.org/2000/svg">
<path opacity="0.4" d="M12.2552 1.49976H5.75271C3.21021 1.49976 1.50021 3.28476 1.50021 5.93976V12.0673C1.50021 14.7148 3.21021 16.4998 5.75271 16.4998H12.2552C14.7977 16.4998 16.5002 14.7148 16.5002 12.0673V5.93976C16.5002 3.28476 14.7977 1.49976 12.2552 1.49976" fill="#212121"/>
<path d="M8.11005 11.4359C7.94205 11.4359 7.77405 11.3721 7.6458 11.2439L5.86605 9.4641C5.60955 9.2076 5.60955 8.7921 5.86605 8.53635C6.12255 8.27985 6.5373 8.2791 6.7938 8.5356L8.11005 9.85185L11.2061 6.75585C11.4626 6.49935 11.8773 6.49935 12.1338 6.75585C12.3903 7.01235 12.3903 7.42785 12.1338 7.68435L8.5743 11.2439C8.44605 11.3721 8.27805 11.4359 8.11005 11.4359" fill="#FFE24B"/>
</svg>
