<svg width="36" height="36" viewBox="0 0 36 36" fill="none" xmlns="http://www.w3.org/2000/svg">
<path d="M9.56665 22.9354L12.9708 20.3321C12.7762 19.741 12.6709 19.1085 12.6709 18.4506C12.6709 17.7927 12.7762 17.1602 12.9708 16.569L9.56665 13.9658C8.90271 15.3157 8.53033 16.8375 8.53033 18.4506C8.53033 20.0636 8.90271 21.5855 9.56665 22.9354Z" fill="#FBBC05"/>
<path d="M12.9708 16.568C13.7562 14.1824 15.9972 12.4687 18.6518 12.4687C20.078 12.4687 21.3662 12.9748 22.3783 13.8029L25.3227 10.8585C23.5285 9.29426 21.2281 8.32812 18.6518 8.32812C14.652 8.32812 11.213 10.6177 9.56665 13.9649L12.9708 16.568Z" fill="#EA4335"/>
<path d="M18.6518 28.5706C14.6509 28.5706 11.2111 26.2797 9.56531 22.9311L12.9681 20.3223C13.751 22.7122 15.9941 24.43 18.6518 24.43C19.9523 24.43 21.1046 24.1237 22.0172 23.5478L25.2489 26.0498C23.4798 27.6947 21.1205 28.5706 18.6518 28.5706Z" fill="#34A853"/>
<path d="M18.6519 16.6094H28.0832C28.2212 17.2075 28.3132 17.8515 28.3132 18.4496C28.3132 21.7485 27.1063 24.3233 25.249 26.0503L22.0172 23.5483C23.0738 22.8814 23.8091 21.853 24.0806 20.5199H18.6519V16.6094Z" fill="#4285F4"/>
</svg>
