<svg width="31" height="44" viewBox="0 0 31 44" fill="none" xmlns="http://www.w3.org/2000/svg">
<mask id="mask0_114_459" style="mask-type:luminance" maskUnits="userSpaceOnUse" x="5" y="13" width="19" height="18">
<path d="M23.3825 20.3636H14.9961V23.8409H19.8234C19.3734 26.05 17.4916 27.3182 14.9961 27.3182C12.0506 27.3182 9.67792 24.9455 9.67792 22C9.67792 19.0546 12.0506 16.6818 14.9961 16.6818C16.2643 16.6818 17.4097 17.1318 18.3097 17.8682L20.9279 15.25C19.3325 13.8591 17.287 13 14.9961 13C10.0052 13 5.99609 17.0091 5.99609 22C5.99609 26.9909 10.0052 31 14.9961 31C19.4961 31 23.587 27.7273 23.587 22C23.587 21.4682 23.5052 20.8955 23.3825 20.3636Z" fill="white"/>
</mask>
<g mask="url(#mask0_114_459)">
<path d="M5.17798 27.3183V16.6819L12.1325 22.0001L5.17798 27.3183Z" fill="#FBBC05"/>
</g>
<mask id="mask1_114_459" style="mask-type:luminance" maskUnits="userSpaceOnUse" x="5" y="13" width="19" height="18">
<path d="M23.3825 20.3636H14.9961V23.8409H19.8234C19.3734 26.05 17.4916 27.3182 14.9961 27.3182C12.0506 27.3182 9.67792 24.9455 9.67792 22C9.67792 19.0546 12.0506 16.6818 14.9961 16.6818C16.2643 16.6818 17.4097 17.1318 18.3097 17.8682L20.9279 15.25C19.3325 13.8591 17.287 13 14.9961 13C10.0052 13 5.99609 17.0091 5.99609 22C5.99609 26.9909 10.0052 31 14.9961 31C19.4961 31 23.587 27.7273 23.587 22C23.587 21.4682 23.5052 20.8955 23.3825 20.3636Z" fill="white"/>
</mask>
<g mask="url(#mask1_114_459)">
<path d="M5.17798 16.6819L12.1325 22.0001L14.9962 19.5046L24.8144 17.9092V12.1819H5.17798V16.6819Z" fill="#EA4335"/>
</g>
<mask id="mask2_114_459" style="mask-type:luminance" maskUnits="userSpaceOnUse" x="5" y="13" width="19" height="18">
<path d="M23.3825 20.3636H14.9961V23.8409H19.8234C19.3734 26.05 17.4916 27.3182 14.9961 27.3182C12.0506 27.3182 9.67792 24.9455 9.67792 22C9.67792 19.0546 12.0506 16.6818 14.9961 16.6818C16.2643 16.6818 17.4097 17.1318 18.3097 17.8682L20.9279 15.25C19.3325 13.8591 17.287 13 14.9961 13C10.0052 13 5.99609 17.0091 5.99609 22C5.99609 26.9909 10.0052 31 14.9961 31C19.4961 31 23.587 27.7273 23.587 22C23.587 21.4682 23.5052 20.8955 23.3825 20.3636Z" fill="white"/>
</mask>
<g mask="url(#mask2_114_459)">
<path d="M5.17798 27.3183L17.4507 17.9092L20.6825 18.3183L24.8144 12.1819V31.8183H5.17798V27.3183Z" fill="#34A853"/>
</g>
<mask id="mask3_114_459" style="mask-type:luminance" maskUnits="userSpaceOnUse" x="5" y="13" width="19" height="18">
<path d="M23.3825 20.3636H14.9961V23.8409H19.8234C19.3734 26.05 17.4916 27.3182 14.9961 27.3182C12.0506 27.3182 9.67792 24.9455 9.67792 22C9.67792 19.0546 12.0506 16.6818 14.9961 16.6818C16.2643 16.6818 17.4097 17.1318 18.3097 17.8682L20.9279 15.25C19.3325 13.8591 17.287 13 14.9961 13C10.0052 13 5.99609 17.0091 5.99609 22C5.99609 26.9909 10.0052 31 14.9961 31C19.4961 31 23.587 27.7273 23.587 22C23.587 21.4682 23.5052 20.8955 23.3825 20.3636Z" fill="white"/>
</mask>
<g mask="url(#mask3_114_459)">
<path d="M24.8143 31.8183L12.1325 22.0001L10.4961 20.7728L24.8143 16.6819V31.8183Z" fill="#4285F4"/>
</g>
</svg>
