<svg width="24" height="24" viewBox="0 0 24 24" fill="none" xmlns="http://www.w3.org/2000/svg">
<mask id="mask0_1337_1148" style="mask-type:luminance" maskUnits="userSpaceOnUse" x="3" y="3" width="18" height="18">
<path d="M20.3864 10.3636H12V13.8409H16.8273C16.3773 16.05 14.4955 17.3182 12 17.3182C9.05455 17.3182 6.68182 14.9455 6.68182 12C6.68182 9.05455 9.05455 6.68182 12 6.68182C13.2682 6.68182 14.4136 7.13182 15.3137 7.86819L17.9318 5.25C16.3364 3.85909 14.2909 3 12 3C7.0091 3 3 7.0091 3 12C3 16.9909 7.0091 21 12 21C16.5 21 20.5909 17.7273 20.5909 12C20.5909 11.4682 20.5091 10.8955 20.3864 10.3636Z" fill="white"/>
</mask>
<g mask="url(#mask0_1337_1148)">
<path d="M2.18182 17.3182V6.68182L9.13638 12L2.18182 17.3182Z" fill="#FBBC05"/>
</g>
<mask id="mask1_1337_1148" style="mask-type:luminance" maskUnits="userSpaceOnUse" x="3" y="3" width="18" height="18">
<path d="M20.3864 10.3636H12V13.8409H16.8273C16.3773 16.05 14.4955 17.3182 12 17.3182C9.05455 17.3182 6.68182 14.9455 6.68182 12C6.68182 9.05455 9.05455 6.68182 12 6.68182C13.2682 6.68182 14.4136 7.13182 15.3137 7.86819L17.9318 5.25C16.3364 3.85909 14.2909 3 12 3C7.0091 3 3 7.0091 3 12C3 16.9909 7.0091 21 12 21C16.5 21 20.5909 17.7273 20.5909 12C20.5909 11.4682 20.5091 10.8955 20.3864 10.3636Z" fill="white"/>
</mask>
<g mask="url(#mask1_1337_1148)">
<path d="M2.18182 6.6818L9.13638 12L12 9.50453L21.8182 7.90907V2.18179H2.18182V6.6818Z" fill="#EA4335"/>
</g>
<mask id="mask2_1337_1148" style="mask-type:luminance" maskUnits="userSpaceOnUse" x="3" y="3" width="18" height="18">
<path d="M20.3864 10.3636H12V13.8409H16.8273C16.3773 16.05 14.4955 17.3182 12 17.3182C9.05455 17.3182 6.68182 14.9455 6.68182 12C6.68182 9.05455 9.05455 6.68182 12 6.68182C13.2682 6.68182 14.4136 7.13182 15.3137 7.86819L17.9318 5.25C16.3364 3.85909 14.2909 3 12 3C7.0091 3 3 7.0091 3 12C3 16.9909 7.0091 21 12 21C16.5 21 20.5909 17.7273 20.5909 12C20.5909 11.4682 20.5091 10.8955 20.3864 10.3636Z" fill="white"/>
</mask>
<g mask="url(#mask2_1337_1148)">
<path d="M2.18182 17.3182L14.4546 7.90907L17.6864 8.31816L21.8182 2.18179V21.8182H2.18182V17.3182Z" fill="#34A853"/>
</g>
<mask id="mask3_1337_1148" style="mask-type:luminance" maskUnits="userSpaceOnUse" x="3" y="3" width="18" height="18">
<path d="M20.3864 10.3636H12V13.8409H16.8273C16.3773 16.05 14.4955 17.3182 12 17.3182C9.05455 17.3182 6.68182 14.9455 6.68182 12C6.68182 9.05455 9.05455 6.68182 12 6.68182C13.2682 6.68182 14.4136 7.13182 15.3137 7.86819L17.9318 5.25C16.3364 3.85909 14.2909 3 12 3C7.0091 3 3 7.0091 3 12C3 16.9909 7.0091 21 12 21C16.5 21 20.5909 17.7273 20.5909 12C20.5909 11.4682 20.5091 10.8955 20.3864 10.3636Z" fill="white"/>
</mask>
<g mask="url(#mask3_1337_1148)">
<path d="M21.8182 21.8182L9.13637 12L7.5 10.7727L21.8182 6.68182V21.8182Z" fill="#4285F4"/>
</g>
</svg>
