<svg width="380" height="275" viewBox="0 0 380 275" fill="none" xmlns="http://www.w3.org/2000/svg">
<path d="M302.254 195.091L275.215 180.988L260.715 164.488L248.471 168.672L279.144 45.7676L330.205 100.554L312.568 177.259L302.254 195.091Z" fill="#FD0013"/>
<path d="M302.254 195.091L275.215 180.988L260.715 164.488L248.471 168.672L279.144 45.7676L330.205 100.554L312.568 177.259L302.254 195.091Z" fill="#FD0013"/>
<path d="M263.651 147.873L285.208 52.3401L278.95 45.3387L255.565 139.11L263.651 147.873Z" fill="black" fill-opacity="0.2"/>
<path fill-rule="evenodd" clip-rule="evenodd" d="M135.153 197.564L135.154 197.565L135.154 197.565C162.488 228.338 186.168 254.998 191.445 259.256C203.972 269.366 211.969 272.889 228.404 274.39C245.549 275.896 255.418 273.91 273.685 263.025C287.381 252.195 293.853 244.7 301.006 226.154L316.939 157.712C309.697 177.295 301.55 185.724 288.788 173.245L157.235 27.0529C152.922 22.5936 149.923 21.0822 145.796 19.0024L145.796 19.0023C144.588 18.3934 143.283 17.7359 141.821 16.9414C136.031 14.892 132.65 14.0458 126.25 13.3627C119.34 13.0123 115.322 13.1161 107.877 13.8901C102.594 14.4366 98.5962 15.6039 92.755 17.3097C91.808 17.5863 90.8126 17.877 89.7554 18.1815C89.7554 18.1815 81.4283 21.1596 75.1983 23.9679C69.8968 26.3577 66.4501 28.4353 62.0697 31.0758L62.0696 31.0759C61.3024 31.5383 60.5066 32.0181 59.6672 32.5197C52.8058 36.4513 49.2125 39.0575 42.9472 43.9338C35.5514 49.7293 31.5393 53.395 24.5631 60.4921C17.3275 68.5707 13.6346 73.3905 7.95549 82.7117C3.73476 89.1119 2.09295 92.9281 0 99.9973C5.64281 85.6918 23.3447 81.6141 40.0572 94.8647C53.1567 105.251 97.6017 155.288 135.152 197.563L135.153 197.564ZM137.218 32.9568C138.859 31.4779 141.388 31.6093 142.867 33.2504L158.327 50.4051C159.806 52.0462 159.675 54.5754 158.034 56.0543L149.788 63.4852C148.147 64.9641 145.618 64.8327 144.139 63.1916L128.679 46.0369C127.2 44.3959 127.331 41.8666 128.973 40.3877L137.218 32.9568ZM182.252 78.7616C180.773 77.1205 178.244 76.9891 176.603 78.468L168.357 85.8989C166.716 87.3778 166.585 89.907 168.064 91.5481L183.524 108.703C185.003 110.344 187.532 110.475 189.173 108.996L197.419 101.566C199.06 100.087 199.191 97.5574 197.712 95.9163L182.252 78.7616ZM215.113 123.98C216.754 122.501 219.283 122.632 220.762 124.273L236.222 141.428C237.701 143.069 237.569 145.598 235.928 147.077L227.683 154.508C226.042 155.987 223.512 155.856 222.034 154.215L206.574 137.06C205.095 135.419 205.226 132.89 206.867 131.411L215.113 123.98ZM260.147 169.785C258.668 168.144 256.139 168.012 254.498 169.491L246.252 176.922C244.611 178.401 244.48 180.93 245.959 182.571L261.418 199.726C262.897 201.367 265.427 201.498 267.068 200.019L275.313 192.589C276.954 191.11 277.086 188.58 275.607 186.939L260.147 169.785Z" fill="#FD0013"/>
<path d="M327.814 89.768C268.967 23.085 263.966 41.1846 348.295 19.1367C352.302 18.1687 355.837 22.0391 354.657 26.1022L336.828 87.5927C335.651 91.6522 330.644 92.8629 327.814 89.768Z" fill="#FD0013"/>
</svg>
