<svg width="72" height="28" viewBox="0 0 72 28" fill="none" xmlns="http://www.w3.org/2000/svg">
<path d="M15.4394 6.80006C14.4659 6.25106 13.3864 5.97656 12.1984 5.97656C10.939 5.97656 9.79022 6.30412 8.75451 6.96153C7.71879 7.61894 6.96681 8.55085 6.49854 9.75726H6.30939V6.2995H2.28418V26.963H6.30939V18.9149H6.49854C6.83994 20.0314 7.47198 20.9402 8.39005 21.6438C9.30812 22.345 10.4522 22.6979 11.8201 22.6979C13.0796 22.6979 14.2283 22.3911 15.2641 21.7799C16.2998 21.1686 17.1279 20.2182 17.7484 18.9311C18.3689 17.6439 18.6803 16.0454 18.6803 14.1354C18.6803 12.2254 18.3827 10.6638 17.7899 9.44816C17.1971 8.23253 16.4128 7.35136 15.4394 6.80006ZM13.5479 17.5909C12.8097 18.4743 11.7832 18.9149 10.4684 18.9149C9.22508 18.9149 8.22166 18.4928 7.45583 17.6462C6.69 16.7997 6.30709 15.6924 6.30709 14.3246C6.30709 13.4249 6.48701 12.6268 6.84686 11.9348C7.2067 11.2428 7.71187 10.7053 8.36006 10.327C9.00825 9.94872 9.73717 9.75957 10.5468 9.75957C11.8616 9.75957 12.8743 10.1517 13.5848 10.9337C14.2952 11.718 14.6528 12.7929 14.6528 14.1608C14.6528 15.5287 14.2837 16.7097 13.5455 17.5909H13.5479Z" fill="white"/>
<path d="M20.8809 4.22303V22.6444H24.9061V1.03516H20.8809V4.22303Z" fill="white"/>
<path d="M52.5632 6.30032H50.5633V1.84375H46.5381V17.8339C46.5381 18.9688 46.7272 19.8915 47.1055 20.6019C47.4838 21.3124 48.0236 21.8314 48.7272 22.1544C49.4307 22.4773 50.3026 22.6411 51.3476 22.6411C52.4456 22.6411 53.6335 22.4957 54.9138 22.2097V18.8327C54.6439 18.9411 54.3786 19.0311 54.1179 19.1026C53.8573 19.1741 53.6012 19.2387 53.3475 19.2917C52.8423 19.3817 52.4294 19.4278 52.1042 19.4278C51.7628 19.4278 51.4791 19.3655 51.253 19.2387C51.0269 19.1118 50.8562 18.9111 50.7386 18.632C50.621 18.3529 50.5633 17.9884 50.5633 17.5386L50.5356 9.84112V9.59892H54.9114V6.30263H52.5609L52.5632 6.30032Z" fill="white"/>
<path d="M69.7163 6.30078H57.0479V9.8116H65.0544L57.0479 18.8608V22.3716H69.7163V18.8608H61.7097L69.7163 9.8116V6.30078Z" fill="white"/>
<path d="M43.321 11.1192L42.6751 9.99815L37.7111 12.8631L40.576 7.90135L39.4573 7.25317L36.5923 12.2172V6.13672H35.2983V12.2172L32.258 6.95329L31.1393 7.59917L34.1772 12.8631L28.9133 9.82285L28.2674 10.9439L33.5313 13.9842H27.4531V15.2759H33.5313L28.2674 18.3162L28.9133 19.4349L34.1772 16.397L31.1393 21.6609L32.258 22.3068L35.2983 17.0429V22.7727H36.5923V17.0429L39.4573 22.0046L40.576 21.3587L37.7111 16.397L42.6751 19.2619L43.321 18.1409L38.3593 15.2759H44.0891V13.9842H38.3593L43.321 11.1192Z" fill="#00FF57"/>
</svg>
