<svg width="58" height="58" viewBox="0 0 58 58" fill="none" xmlns="http://www.w3.org/2000/svg">
<path d="M28.8669 56.8C44.2941 56.8 56.8003 44.2938 56.8003 28.8667C56.8003 13.4395 44.2941 0.93335 28.8669 0.93335C13.4398 0.93335 0.933594 13.4395 0.933594 28.8667C0.933594 44.2938 13.4398 56.8 28.8669 56.8Z" fill="#0F0F0F" fill-opacity="0.4"/>
<path d="M28.8667 57.7333C12.9667 57.7333 0 44.8 0 28.8667C0 12.9333 12.9667 0 28.8667 0C44.7667 0 57.7333 12.9333 57.7333 28.8667C57.7333 44.8 44.8 57.7333 28.8667 57.7333ZM28.8667 1.83333C13.9667 1.83333 1.83333 13.9667 1.83333 28.8667C1.83333 43.7667 13.9667 55.9 28.8667 55.9C43.7667 55.9 55.9 43.7667 55.9 28.8667C55.9 13.9667 43.7667 1.83333 28.8667 1.83333Z" fill="white" fill-opacity="0.8"/>
<path d="M42.8333 28.8666L21.6333 16.3333V41.3999L42.8333 28.8666Z" fill="white"/>
</svg>
