<svg width="1028" height="1307" viewBox="0 0 1028 1307" fill="none" xmlns="http://www.w3.org/2000/svg">
<g clip-path="url(#clip0_259_543)">
<path d="M721.684 1224.34C668.934 1151.08 627.663 1009.44 622.779 938.614L371.852 830.55L267.452 1224.34H721.684Z" fill="#AC6651" stroke="black" stroke-width="14.6526"/>
<mask id="mask0_259_543" style="mask-type:alpha" maskUnits="userSpaceOnUse" x="267" y="830" width="455" height="431">
<path d="M721.684 1260.97C668.934 1187.71 627.663 1009.44 622.779 938.614L371.852 830.55L267.452 1260.97H721.684Z" fill="#AC6651"/>
</mask>
<g mask="url(#mask0_259_543)">
<g style="mix-blend-mode:multiply">
<ellipse cx="611.789" cy="823.223" rx="216.126" ry="197.811" fill="black"/>
</g>
</g>
<mask id="path-4-inside-1_259_543" fill="white">
<path fill-rule="evenodd" clip-rule="evenodd" d="M831.164 606.797C831.064 606.372 830.964 605.947 830.862 605.522C830.76 605.097 830.657 604.672 830.554 604.248L770.489 353.552C770.43 353.305 770.372 353.057 770.312 352.81C770.253 352.563 770.194 352.316 770.134 352.07L769.867 350.954L769.861 350.955C732.431 199.136 579.397 105.786 427.104 142.274C274.811 178.762 180.696 331.327 216.129 483.624L216.121 483.626L278.363 743.41L278.414 743.397C317.254 893.237 469.155 984.95 620.326 948.731C771.496 912.511 865.343 761.92 832.063 610.748L832.108 610.737L831.164 606.797Z"/>
</mask>
<path fill-rule="evenodd" clip-rule="evenodd" d="M831.164 606.797C831.064 606.372 830.964 605.947 830.862 605.522C830.76 605.097 830.657 604.672 830.554 604.248L770.489 353.552C770.43 353.305 770.372 353.057 770.312 352.81C770.253 352.563 770.194 352.316 770.134 352.07L769.867 350.954L769.861 350.955C732.431 199.136 579.397 105.786 427.104 142.274C274.811 178.762 180.696 331.327 216.129 483.624L216.121 483.626L278.363 743.41L278.414 743.397C317.254 893.237 469.155 984.95 620.326 948.731C771.496 912.511 865.343 761.92 832.063 610.748L832.108 610.737L831.164 606.797Z" fill="#AC6651"/>
<path d="M831.164 606.797L816.9 610.147L816.907 610.179L816.915 610.211L831.164 606.797ZM830.862 605.522L845.111 602.108L845.111 602.107L830.862 605.522ZM830.554 604.248L816.304 607.663L816.312 607.694L816.32 607.726L830.554 604.248ZM770.489 353.552L756.231 356.929L756.235 356.947L756.24 356.966L770.489 353.552ZM770.134 352.07L755.884 355.483L755.889 355.502L755.894 355.521L770.134 352.07ZM769.867 350.954L784.116 347.54L780.707 333.31L766.473 336.7L769.867 350.954ZM769.861 350.955L755.635 354.462L759.114 368.576L773.255 365.209L769.861 350.955ZM427.104 142.274L430.518 156.523L430.518 156.523L427.104 142.274ZM216.129 483.624L219.56 497.87L233.695 494.465L230.4 480.304L216.129 483.624ZM216.121 483.626L212.69 469.381L198.462 472.809L201.872 487.04L216.121 483.626ZM278.363 743.41L264.114 746.824L267.527 761.07L281.774 757.66L278.363 743.41ZM278.414 743.397L292.598 739.721L288.99 725.8L275.004 729.147L278.414 743.397ZM620.326 948.731L616.912 934.481L616.912 934.481L620.326 948.731ZM832.063 610.748L828.65 596.498L814.66 599.849L817.753 613.898L832.063 610.748ZM832.108 610.737L835.522 624.987L849.772 621.573L846.358 607.323L832.108 610.737ZM845.429 603.447C845.324 603.001 845.218 602.555 845.111 602.108L816.612 608.936C816.709 609.339 816.805 609.742 816.9 610.147L845.429 603.447ZM845.111 602.107C845.004 601.661 844.896 601.216 844.788 600.771L816.32 607.726C816.418 608.129 816.516 608.533 816.613 608.936L845.111 602.107ZM756.24 356.966L816.304 607.663L844.803 600.834L784.738 350.138L756.24 356.966ZM784.747 350.174C784.686 349.916 784.624 349.656 784.562 349.396L756.063 356.225C756.119 356.459 756.175 356.693 756.231 356.929L784.747 350.174ZM784.562 349.396C784.5 349.137 784.437 348.877 784.374 348.618L755.894 355.521C755.95 355.755 756.007 355.99 756.063 356.225L784.562 349.396ZM755.617 354.368L755.884 355.483L784.383 348.656L784.116 347.54L755.617 354.368ZM773.255 365.209L773.26 365.208L766.473 336.7L766.468 336.701L773.255 365.209ZM784.088 347.447C744.731 187.813 583.821 89.6587 423.69 128.025L430.518 156.523C574.972 121.913 720.131 210.459 755.635 354.462L784.088 347.447ZM423.69 128.025C263.558 166.391 164.6 326.808 201.857 486.945L230.4 480.304C196.791 335.847 286.063 191.134 430.518 156.523L423.69 128.025ZM219.553 497.871L219.56 497.87L212.697 469.379L212.69 469.381L219.553 497.871ZM292.613 739.996L230.371 480.212L201.872 487.04L264.114 746.824L292.613 739.996ZM275.004 729.147L274.953 729.159L281.774 757.66L281.825 757.648L275.004 729.147ZM264.23 747.074C305.071 904.631 464.788 1001.06 623.74 962.98L616.912 934.481C473.523 968.836 329.438 881.844 292.598 739.721L264.23 747.074ZM623.74 962.98C782.692 924.896 881.367 766.556 846.373 607.598L817.753 613.898C849.319 757.285 760.3 900.126 616.912 934.481L623.74 962.98ZM828.695 596.488L828.65 596.498L835.476 624.997L835.522 624.987L828.695 596.488ZM816.915 610.211L817.859 614.151L846.358 607.323L845.414 603.382L816.915 610.211Z" fill="black" mask="url(#path-4-inside-1_259_543)"/>
</g>
<path d="M717.315 732.291C721.219 718.165 722.595 703.473 721.394 688.893C720.77 681.32 713.026 677.102 706.464 679.688C690.974 685.792 639.728 705.205 603.595 710.176C563.95 715.629 503.912 709.006 486.533 706.848C479.466 705.97 473.166 712.044 474.386 719.425C476.773 733.868 481.69 747.791 488.923 760.548C496.99 774.776 507.781 787.275 520.678 797.333C533.576 807.391 548.329 814.81 564.094 819.166C579.859 823.522 596.327 824.731 612.559 822.723C628.791 820.714 644.469 815.529 658.697 807.462C672.925 799.395 685.424 788.604 695.482 775.706C705.54 762.808 712.959 748.056 717.315 732.291Z" fill="black" stroke="black" stroke-width="14.6526"/>
<mask id="mask1_259_543" style="mask-type:alpha" maskUnits="userSpaceOnUse" x="480" y="684" width="235" height="133">
<path d="M713.601 684.725C715.491 700.002 714.354 715.502 710.253 730.34C706.153 745.177 699.171 759.062 689.705 771.201C680.239 783.34 668.474 793.496 655.083 801.088C641.692 808.681 626.937 813.562 611.66 815.452C596.383 817.342 580.883 816.204 566.045 812.104C551.207 808.004 537.323 801.022 525.184 791.556C513.044 782.09 502.889 770.325 495.296 756.934C487.704 743.543 482.823 728.788 480.933 713.511L713.601 684.725Z" fill="#171921"/>
</mask>
<g mask="url(#mask1_259_543)">
<circle cx="613.702" cy="831.699" r="78.7579" transform="rotate(-7.05286 613.702 831.699)" fill="#FC909F"/>
</g>
<path d="M630.104 380.766C650.862 370.997 699.704 362.083 729.01 404.576" stroke="black" stroke-width="14.6526" stroke-linecap="round"/>
<path d="M353.826 473.468C361.411 451.817 389.293 410.736 440.14 419.625" stroke="black" stroke-width="14.6526" stroke-linecap="round"/>
<path opacity="0.35" d="M732.62 292.702C703.315 269.258 652.642 267.06 631.884 268.892L602.578 171.818C652.397 183.54 719.799 259.734 732.62 292.702Z" fill="#717376"/>
<path d="M358.27 53.091C358.27 53.091 379.288 38.5789 467.996 16.2299C556.705 -6.11917 589.049 2.61144 589.049 2.61144L632.231 269.406C632.231 269.406 602.783 268.77 529.545 284.767C456.306 300.764 421.252 320.176 421.252 320.176L358.27 53.091Z" fill="#171921"/>
<path d="M223.442 327.503C198.532 175.116 308.915 77.7977 358.978 50.9346L421.252 320.177C350.919 175.116 255.189 264.619 223.442 327.503Z" fill="#171921"/>
<path opacity="0.35" d="M291.21 488.68C264.835 389.042 371.799 335.436 421.252 320.173C395.61 260.341 336.999 206.615 265.568 272.554C199.631 384.279 225.273 470.366 245.421 536.301L291.21 488.68Z" fill="#717376"/>
<path fill-rule="evenodd" clip-rule="evenodd" d="M404.207 530.519C404.625 533.496 408.41 534.16 410.515 532.012C419.545 522.796 433.428 516.025 449.543 514.11C459.048 512.981 468.193 513.676 476.342 515.84C479.103 516.573 481.818 514.242 480.854 511.552C474.753 494.535 457.535 483.349 438.819 485.573C417.056 488.159 401.509 507.898 404.096 529.662C404.13 529.948 404.167 530.234 404.207 530.519Z" fill="black"/>
<path fill-rule="evenodd" clip-rule="evenodd" d="M639.009 493.886C639.422 496.864 643.207 497.529 645.314 495.384C654.262 486.279 667.995 479.591 683.932 477.697C693.326 476.581 702.365 477.264 710.423 479.395C713.185 480.126 715.9 477.794 714.931 475.106C708.87 458.279 691.829 447.225 673.308 449.426C651.748 451.988 636.346 471.543 638.908 493.104C638.939 493.366 638.973 493.626 639.009 493.886Z" fill="#171921"/>
<path d="M561.521 551.881C580.644 544.605 613.992 546.803 611.938 583.798C610.114 616.678 576.38 623.206 565.633 615.54" stroke="black" stroke-width="14.6526"/>
<path d="M283.936 556.455C275.401 553.644 266.187 552.148 256.756 552.148C218.317 552.148 187.156 575.959 190.819 619.917C194.635 665.706 221.98 682.191 260.419 682.191C264.696 682.191 268.883 681.815 272.947 681.096C277.381 680.311 281.669 679.117 285.768 677.556" stroke="#171921" stroke-width="29.3053"/>
<path d="M287.6 676.828C279.249 680.281 270.063 682.191 260.419 682.191C221.98 682.191 194.635 665.706 190.819 619.917C187.156 575.959 218.317 552.148 256.756 552.148C268.249 552.148 279.419 554.37 289.431 558.484L287.6 676.828Z" fill="#AC6651"/>
<path d="M272.947 583.287C258.294 576.572 226.059 573.03 214.336 612.593" stroke="#171921" stroke-width="14.6526"/>
<path d="M234.484 585.117C242.421 591.833 257.562 612.591 254.631 641.896" stroke="#171921" stroke-width="14.6526"/>
<path d="M523.033 1213.63C523.034 1213.63 523.034 1213.63 527.536 1207.85L523.034 1213.63L529.341 1218.54L533.685 1211.83L533.686 1211.83L533.693 1211.82L533.727 1211.77C533.759 1211.72 533.809 1211.64 533.877 1211.54C533.937 1211.45 534.01 1211.34 534.097 1211.21C534.208 1211.04 534.341 1210.84 534.495 1210.61C535.046 1209.79 535.871 1208.56 536.949 1207.01C539.105 1203.89 542.272 1199.43 546.284 1194.1C554.32 1183.42 565.692 1169.32 579.082 1155.54C592.508 1141.71 607.751 1128.43 623.502 1119.18C639.314 1109.9 654.929 1105.1 669.42 1107.05C824.88 1128.01 939.281 1196.87 1013.54 1299.43H12.4026C72.1109 1191.95 157.036 1123.54 294.722 1092.14C300.59 1090.8 308.568 1091.21 318.542 1093.53C328.414 1095.83 339.669 1099.86 351.808 1105.2C376.083 1115.87 403.181 1131.42 428.646 1147.54C454.072 1163.64 477.682 1180.17 494.948 1192.69C503.576 1198.94 510.61 1204.19 515.481 1207.87C517.917 1209.7 519.811 1211.15 521.094 1212.14C521.349 1212.33 521.581 1212.51 521.787 1212.67C522.099 1212.91 522.354 1213.1 522.55 1213.26C522.713 1213.38 522.836 1213.48 522.917 1213.54L523.007 1213.61L523.029 1213.63L523.033 1213.63Z" fill="#6BD9E9" stroke="black" stroke-width="14.6526"/>
<path d="M251.38 1101.94L270.307 1031.49C271.073 1028.63 274.764 1027.83 276.757 1030.01C331.203 1089.59 399.911 1087.25 422.715 1084.52C425.811 1084.14 428.235 1087.53 426.781 1090.29L378.585 1181.7C377.846 1183.1 376.334 1183.87 374.784 1183.55C360.319 1180.53 288.249 1162.92 251.805 1104.8C251.272 1103.95 251.12 1102.9 251.38 1101.94Z" fill="#D2EFF3" stroke="black" stroke-width="14.6526"/>
<path d="M729.723 1101.56L687.301 1030.19C685.861 1027.77 682.313 1027.8 680.778 1030.17C659.762 1062.54 623.516 1077.45 610.842 1081.85C608.562 1082.64 607.519 1085.35 608.748 1087.43L658.21 1171C658.948 1172.25 660.343 1172.93 661.736 1172.53C669.556 1170.3 696.39 1159.08 729.675 1105.36C730.39 1104.21 730.417 1102.72 729.723 1101.56Z" fill="#D2EFF3" stroke="black" stroke-width="14.6526"/>
<path d="M459.768 1165.73L426.799 1086.97L401.157 1141.92L459.768 1165.73Z" fill="black" stroke="black" stroke-width="14.6526" stroke-linejoin="round"/>
<path d="M575.157 1162.07L608.125 1083.31L633.768 1138.25L575.157 1162.07Z" fill="black" stroke="black" stroke-width="14.6526" stroke-linejoin="round"/>
<path d="M316.904 1017.37L272.946 1028.36L309.578 1052.17L316.904 1017.37Z" fill="black" stroke="black" stroke-width="14.6526" stroke-linejoin="round"/>
<path d="M644.757 1017.37L685.052 1028.36L659.41 1052.17L644.757 1017.37Z" fill="black" stroke="black" stroke-width="14.6526" stroke-linejoin="round"/>
<defs>
<clipPath id="clip0_259_543">
<rect width="732.632" height="1172.21" fill="white" transform="translate(157.557 53.96)"/>
</clipPath>
</defs>
</svg>
