<svg width="14" height="14" viewBox="0 0 14 14" fill="none" xmlns="http://www.w3.org/2000/svg">
<g clip-path="url(#clip0_333_7324)">
<path d="M6.41666 8.75008H7.58332V9.91675H6.41666V8.75008ZM6.41666 4.08342H7.58332V7.58342H6.41666V4.08342ZM6.99416 1.16675C3.77416 1.16675 1.16666 3.78008 1.16666 7.00008C1.16666 10.2201 3.77416 12.8334 6.99416 12.8334C10.22 12.8334 12.8333 10.2201 12.8333 7.00008C12.8333 3.78008 10.22 1.16675 6.99416 1.16675ZM6.99999 11.6667C4.42166 11.6667 2.33332 9.57841 2.33332 7.00008C2.33332 4.42175 4.42166 2.33341 6.99999 2.33341C9.57832 2.33341 11.6667 4.42175 11.6667 7.00008C11.6667 9.57841 9.57832 11.6667 6.99999 11.6667Z" fill="#323232"/>
</g>
<defs>
<clipPath id="clip0_333_7324">
<rect width="14" height="14" fill="white"/>
</clipPath>
</defs>
</svg>
