<svg width="24" height="24" viewBox="0 0 24 24" fill="none" xmlns="http://www.w3.org/2000/svg">
<path d="M19.6698 18.6507L15.4098 14.4107C16.2398 13.3807 16.7498 12.0707 16.7498 10.6507C16.7498 7.35066 14.0798 4.68066 10.7798 4.68066C7.47981 4.68066 4.80981 7.35066 4.80981 10.6507C4.80981 13.9507 7.47981 16.6207 10.7798 16.6207C12.1998 16.6207 13.5098 16.1207 14.5298 15.2907L18.7898 19.5307L19.6698 18.6407V18.6507ZM10.7798 15.3707C8.17981 15.3707 6.05981 13.2507 6.05981 10.6507C6.05981 8.05066 8.17981 5.93066 10.7798 5.93066C13.3798 5.93066 15.4998 8.05066 15.4998 10.6507C15.4998 13.2507 13.3798 15.3707 10.7798 15.3707Z" fill="white"/>
</svg>
