<svg width="16" height="16" viewBox="0 0 16 16" fill="none" xmlns="http://www.w3.org/2000/svg">
<path d="M7.9999 10.2732C6.74656 10.2732 5.72656 9.25323 5.72656 7.9999C5.72656 6.74656 6.74656 5.72656 7.9999 5.72656C9.25323 5.72656 10.2732 6.74656 10.2732 7.9999C10.2732 9.25323 9.25323 10.2732 7.9999 10.2732ZM7.9999 6.5599C7.20656 6.5599 6.5599 7.20656 6.5599 7.9999C6.5599 8.79323 7.20656 9.4399 7.9999 9.4399C8.79323 9.4399 9.4399 8.79323 9.4399 7.9999C9.4399 7.20656 8.79323 6.5599 7.9999 6.5599Z" fill="#9D9D9D"/>
<path d="M8.00001 12.1531C6.27335 12.1464 4.76001 11.4464 3.61335 10.1331C2.75335 9.1531 2.41335 8.17977 2.39335 8.13977L2.34668 7.99977L2.39335 7.85977C2.40668 7.81977 2.75335 6.84644 3.61335 5.86644C4.76001 4.5531 6.27335 3.85977 8.00001 3.84644C9.72668 3.8531 11.24 4.5531 12.3867 5.86644C13.2467 6.84644 13.5867 7.81977 13.6067 7.85977L13.6533 7.99977L13.6067 8.13977C13.5933 8.17977 13.2467 9.1531 12.3867 10.1331C11.24 11.4464 9.72668 12.1398 8.00001 12.1531ZM3.23335 7.99977C3.35335 8.27977 3.67335 8.94644 4.25335 9.60644C5.24668 10.7331 6.50668 11.3064 7.99335 11.3131C9.48001 11.3064 10.74 10.7264 11.7333 9.60644C12.3133 8.94644 12.6333 8.27977 12.7533 7.99977C12.6333 7.71977 12.3133 7.0531 11.7333 6.3931C10.74 5.26644 9.48001 4.6931 7.99335 4.68644C6.49335 4.6931 5.23335 5.27977 4.23335 6.41977C3.66001 7.0731 3.34668 7.72644 3.22668 8.00644L3.23335 7.99977Z" fill="#9D9D9D"/>
</svg>
