<svg width="16" height="16" viewBox="0 0 16 16" fill="none" xmlns="http://www.w3.org/2000/svg">
<path d="M11.2669 12.54H5.37354V6.27332L7.41353 4.41332L7.74687 2.56665H8.09353C8.90687 2.55332 9.48687 2.81332 9.83353 3.33998C10.1669 3.84665 10.2335 4.56665 10.0335 5.47332C9.98687 5.67998 9.93353 5.87332 9.8802 6.03998H13.2269V8.47332L11.2735 12.5533L11.2669 12.54ZM6.20687 11.7066H10.7402L12.3869 8.27332V6.86665H8.62687L8.89353 6.27998C9.10687 5.81332 9.5602 4.44665 9.12687 3.79332C8.99353 3.58665 8.76687 3.45998 8.43353 3.41332L8.1802 4.83332L6.20687 6.63998V11.7066Z" fill="#9D9D9D"/>
<path d="M6.21355 12.5403H3.22021V6.04028H6.21355V12.5403ZM4.05355 11.7069H5.38021V6.87362H4.05355V11.7069Z" fill="#9D9D9D"/>
</svg>
