<svg width="25" height="25" viewBox="0 0 25 25" fill="none" xmlns="http://www.w3.org/2000/svg">
<path d="M12.9366 12.4687C10.9166 12.4687 9.2666 10.8187 9.2666 8.79866C9.2666 6.77866 10.9166 5.12866 12.9366 5.12866C14.9566 5.12866 16.6066 6.77866 16.6066 8.79866C16.6066 10.8187 14.9566 12.4687 12.9366 12.4687ZM12.9366 6.37866C11.6066 6.37866 10.5166 7.45866 10.5166 8.79866C10.5166 10.1387 11.5966 11.2187 12.9366 11.2187C14.2766 11.2187 15.3566 10.1387 15.3566 8.79866C15.3566 7.45866 14.2766 6.37866 12.9366 6.37866Z" fill="#606060"/>
<path d="M19.5164 19.8886H6.35645L6.38644 19.2386C6.54644 15.9786 9.41645 13.4186 12.9364 13.4186C16.4564 13.4186 19.3265 15.9786 19.4865 19.2386L19.5164 19.8886ZM7.71645 18.6386H18.1564C17.7064 16.3686 15.5364 14.6686 12.9364 14.6686C10.3364 14.6686 8.16645 16.3686 7.71645 18.6386Z" fill="#606060"/>
</svg>
