<svg width="25" height="24" viewBox="0 0 25 24" fill="none" xmlns="http://www.w3.org/2000/svg">
<path d="M20.6066 18.65L16.3466 14.41C17.1766 13.38 17.6866 12.07 17.6866 10.65C17.6866 7.34999 15.0166 4.67999 11.7166 4.67999C8.41658 4.67999 5.74658 7.34999 5.74658 10.65C5.74658 13.95 8.41658 16.62 11.7166 16.62C13.1366 16.62 14.4466 16.12 15.4666 15.29L19.7266 19.53L20.6066 18.64V18.65ZM11.7166 15.37C9.11658 15.37 6.99658 13.25 6.99658 10.65C6.99658 8.04999 9.11658 5.92999 11.7166 5.92999C14.3166 5.92999 16.4366 8.04999 16.4366 10.65C16.4366 13.25 14.3166 15.37 11.7166 15.37Z" fill="#3E3E3E"/>
</svg>
