<svg width="25" height="25" viewBox="0 0 25 25" fill="none" xmlns="http://www.w3.org/2000/svg">
<path d="M12.9367 20.8986C8.49672 20.8986 4.88672 17.2886 4.88672 12.8486C4.88672 8.40858 8.49672 4.79858 12.9367 4.79858C17.3767 4.79858 20.9867 8.40858 20.9867 12.8486C20.9867 17.2886 17.3767 20.8986 12.9367 20.8986ZM12.9367 6.05858C9.18672 6.05858 6.13672 9.10858 6.13672 12.8586C6.13672 16.6086 9.18672 19.6586 12.9367 19.6586C16.6867 19.6586 19.7367 16.6086 19.7367 12.8586C19.7367 9.10858 16.6867 6.05858 12.9367 6.05858Z" fill="#606060"/>
<path d="M8.82666 16.9586L11.1167 11.0686L17.0667 8.71863L14.7167 14.6686L8.82666 16.9586ZM12.0867 12.0386L11.0267 14.7686L13.7567 13.7086L14.8467 10.9486L12.0867 12.0386Z" fill="#606060"/>
</svg>
